OpenSans-CondensedMedium.ufo
<glyph name="two" format="2">
  <advance width="879"/>
  <unicode hex="0032"/>
  <outline>
    <contour>
      <point x="782" y="0" type="line"/>
      <point x="782" y="154" type="line"/>
      <point x="268" y="154" type="line"/>
      <point x="268" y="162" type="line"/>
      <point x="508" y="500" type="line"/>
      <point x="676" y="731"/>
      <point x="754" y="883"/>
      <point x="754" y="1116" type="curve" smooth="yes"/>
      <point x="754" y="1333"/>
      <point x="623" y="1483"/>
      <point x="403" y="1483" type="curve" smooth="yes"/>
      <point x="274" y="1483"/>
      <point x="182" y="1444"/>
      <point x="78" y="1346" type="curve"/>
      <point x="166" y="1227" type="line"/>
      <point x="240" y="1300"/>
      <point x="303" y="1329"/>
      <point x="389" y="1329" type="curve" smooth="yes"/>
      <point x="514" y="1329"/>
      <point x="582" y="1241"/>
      <point x="582" y="1110" type="curve" smooth="yes"/>
      <point x="582" y="922"/>
      <point x="530" y="805"/>
      <point x="356" y="551" type="curve" smooth="yes"/>
      <point x="68" y="127" type="line"/>
      <point x="68" y="0" type="line"/>
    </contour>
  </outline>
</glyph>
<glyph name="six" format="2">
  <advance width="879"/>
  <unicode hex="0036"/>
  <outline>
    <contour>
      <point x="90" y="621" type="curve" smooth="yes"/>
      <point x="90" y="209"/>
      <point x="219" y="-20"/>
      <point x="453" y="-20" type="curve" smooth="yes"/>
      <point x="682" y="-20"/>
      <point x="795" y="190"/>
      <point x="795" y="463" type="curve" smooth="yes"/>
      <point x="795" y="721"/>
      <point x="696" y="926"/>
      <point x="492" y="926" type="curve" smooth="yes"/>
      <point x="387" y="926"/>
      <point x="307" y="864"/>
      <point x="262" y="762" type="curve"/>
      <point x="254" y="762" type="line"/>
      <point x="266" y="1139"/>
      <point x="375" y="1331"/>
      <point x="573" y="1331" type="curve" smooth="yes"/>
      <point x="627" y="1331"/>
      <point x="676" y="1323"/>
      <point x="719" y="1309" type="curve"/>
      <point x="719" y="1462" type="line"/>
      <point x="676" y="1475"/>
      <point x="625" y="1483"/>
      <point x="567" y="1483" type="curve" smooth="yes"/>
      <point x="225" y="1483"/>
      <point x="90" y="1163"/>
    </contour>
    <contour>
      <point x="451" y="133" type="curve" smooth="yes"/>
      <point x="313" y="133"/>
      <point x="264" y="354"/>
      <point x="264" y="522" type="curve" smooth="yes"/>
      <point x="264" y="653"/>
      <point x="328" y="774"/>
      <point x="451" y="774" type="curve" smooth="yes"/>
      <point x="565" y="774"/>
      <point x="625" y="666"/>
      <point x="625" y="459" type="curve" smooth="yes"/>
      <point x="625" y="240"/>
      <point x="559" y="133"/>
    </contour>
  </outline>
</glyph>
<glyph name="nine" format="2">
  <advance width="879"/>
  <unicode hex="0039"/>
  <outline>
    <contour>
      <point x="780" y="854" type="curve" smooth="yes"/>
      <point x="780" y="1257"/>
      <point x="655" y="1483"/>
      <point x="428" y="1483" type="curve" smooth="yes"/>
      <point x="188" y="1483"/>
      <point x="76" y="1272"/>
      <point x="76" y="999" type="curve" smooth="yes"/>
      <point x="76" y="741"/>
      <point x="172" y="537"/>
      <point x="379" y="537" type="curve" smooth="yes"/>
      <point x="483" y="537"/>
      <point x="563" y="598"/>
      <point x="608" y="700" type="curve"/>
      <point x="616" y="700" type="line"/>
      <point x="606" y="406"/>
      <point x="526" y="131"/>
      <point x="295" y="131" type="curve" smooth="yes"/>
      <point x="233" y="131"/>
      <point x="184" y="139"/>
      <point x="141" y="156" type="curve"/>
      <point x="141" y="0" type="line"/>
      <point x="180" y="-10"/>
      <point x="250" y="-20"/>
      <point x="299" y="-20" type="curve" smooth="yes"/>
      <point x="635" y="-20"/>
      <point x="780" y="307"/>
    </contour>
    <contour>
      <point x="426" y="1329" type="curve" smooth="yes"/>
      <point x="575" y="1329"/>
      <point x="608" y="1094"/>
      <point x="608" y="956" type="curve" smooth="yes"/>
      <point x="608" y="821"/>
      <point x="549" y="688"/>
      <point x="422" y="688" type="curve" smooth="yes"/>
      <point x="307" y="688"/>
      <point x="248" y="797"/>
      <point x="248" y="1004" type="curve" smooth="yes"/>
      <point x="248" y="1223"/>
      <point x="309" y="1329"/>
    </contour>
  </outline>
</glyph>
<glyph name="A" format="2">
  <advance width="922"/>
  <unicode hex="0041"/>
  <anchor x="451" y="0" name="bottom"/>
  <anchor x="459" y="1462" name="top"/>
  <anchor x="799" y="1462" name="topright"/>
  <outline>
    <contour>
      <point x="739" y="0" type="line"/>
      <point x="922" y="0" type="line"/>
      <point x="561" y="1462" type="line"/>
      <point x="354" y="1462" type="line"/>
      <point x="0" y="0" type="line"/>
      <point x="184" y="0" type="line"/>
      <point x="291" y="457" type="line"/>
      <point x="633" y="457" type="line"/>
    </contour>
    <contour>
      <point x="600" y="616" type="line"/>
      <point x="317" y="616" type="line"/>
      <point x="422" y="1098" type="line" smooth="yes"/>
      <point x="438" y="1169"/>
      <point x="451" y="1243"/>
      <point x="457" y="1307" type="curve"/>
      <point x="465" y="1243"/>
      <point x="477" y="1171"/>
      <point x="492" y="1096" type="curve"/>
    </contour>
  </outline>
</glyph>
<glyph name="C" format="2">
  <advance width="913"/>
  <unicode hex="0043"/>
  <anchor x="547" y="0" name="bottom"/>
  <anchor x="567" y="1462" name="top"/>
  <anchor x="872" y="1462" name="topright"/>
  <outline>
    <contour>
      <point x="598" y="1329" type="curve" smooth="yes"/>
      <point x="674" y="1329"/>
      <point x="741" y="1305"/>
      <point x="803" y="1266" type="curve"/>
      <point x="864" y="1411" type="line"/>
      <point x="780" y="1460"/>
      <point x="690" y="1485"/>
      <point x="592" y="1485" type="curve" smooth="yes"/>
      <point x="262" y="1485"/>
      <point x="102" y="1149"/>
      <point x="102" y="733" type="curve" smooth="yes"/>
      <point x="102" y="260"/>
      <point x="289" y="-20"/>
      <point x="588" y="-20" type="curve"/>
      <point x="682" y="-20"/>
      <point x="762" y="-2"/>
      <point x="827" y="35" type="curve"/>
      <point x="827" y="190" type="line"/>
      <point x="762" y="158"/>
      <point x="690" y="135"/>
      <point x="608" y="135" type="curve" smooth="yes"/>
      <point x="408" y="135"/>
      <point x="281" y="360"/>
      <point x="281" y="731" type="curve" smooth="yes"/>
      <point x="281" y="1049"/>
      <point x="373" y="1329"/>
    </contour>
  </outline>
</glyph>
<glyph name="E" format="2">
  <advance width="823"/>
  <unicode hex="0045"/>
  <anchor x="453" y="0" name="bottom"/>
  <anchor x="442" y="1462" name="top"/>
  <anchor x="782" y="1462" name="topright"/>
  <outline>
    <contour>
      <point x="731" y="0" type="line"/>
      <point x="731" y="156" type="line"/>
      <point x="322" y="156" type="line"/>
      <point x="322" y="686" type="line"/>
      <point x="707" y="686" type="line"/>
      <point x="707" y="840" type="line"/>
      <point x="322" y="840" type="line"/>
      <point x="322" y="1309" type="line"/>
      <point x="731" y="1309" type="line"/>
      <point x="731" y="1462" type="line"/>
      <point x="150" y="1462" type="line"/>
      <point x="150" y="0" type="line"/>
    </contour>
  </outline>
</glyph>
<glyph name="N" format="2">
  <advance width="1165"/>
  <unicode hex="004E"/>
  <anchor x="582" y="0" name="bottom"/>
  <anchor x="582" y="1462" name="top"/>
  <anchor x="1124" y="1462" name="topright"/>
  <outline>
    <contour>
      <point x="1018" y="0" type="line"/>
      <point x="1018" y="1462" type="line"/>
      <point x="854" y="1462" type="line"/>
      <point x="854" y="586" type="line" smooth="yes"/>
      <point x="854" y="508"/>
      <point x="858" y="410"/>
      <point x="864" y="289" type="curve"/>
      <point x="858" y="289" type="line"/>
      <point x="358" y="1462" type="line"/>
      <point x="150" y="1462" type="line"/>
      <point x="150" y="0" type="line"/>
      <point x="313" y="0" type="line"/>
      <point x="313" y="897" type="line" smooth="yes"/>
      <point x="313" y="981"/>
      <point x="309" y="1079"/>
      <point x="301" y="1192" type="curve"/>
      <point x="309" y="1192" type="line"/>
      <point x="809" y="0" type="line"/>
    </contour>
  </outline>
</glyph>
<glyph name="P" format="2">
  <advance width="907"/>
  <unicode hex="0050"/>
  <anchor x="455" y="0" name="bottom"/>
  <anchor x="471" y="1462" name="top"/>
  <anchor x="866" y="1462" name="topright"/>
  <outline>
    <contour>
      <point x="420" y="1462" type="curve" smooth="yes"/>
      <point x="150" y="1462" type="line"/>
      <point x="150" y="0" type="line"/>
      <point x="322" y="0" type="line"/>
      <point x="322" y="569" type="line"/>
      <point x="416" y="569" type="line" smooth="yes"/>
      <point x="702" y="569"/>
      <point x="844" y="731"/>
      <point x="844" y="1030" type="curve" smooth="yes"/>
      <point x="844" y="1323"/>
      <point x="709" y="1462"/>
    </contour>
    <contour>
      <point x="414" y="1311" type="line" smooth="yes"/>
      <point x="588" y="1311"/>
      <point x="668" y="1229"/>
      <point x="668" y="1028" type="curve" smooth="yes"/>
      <point x="668" y="809"/>
      <point x="590" y="721"/>
      <point x="399" y="721" type="curve" smooth="yes"/>
      <point x="322" y="721" type="line"/>
      <point x="322" y="1311" type="line"/>
    </contour>
  </outline>
</glyph>
<glyph name="S" format="2">
  <advance width="846"/>
  <unicode hex="0053"/>
  <anchor x="399" y="0" name="bottom"/>
  <anchor x="442" y="1462" name="top"/>
  <anchor x="805" y="1462" name="topright"/>
  <outline>
    <contour>
      <point x="768" y="401" type="curve" smooth="yes"/>
      <point x="768" y="590"/>
      <point x="678" y="711"/>
      <point x="487" y="811" type="curve"/>
      <point x="317" y="903"/>
      <point x="262" y="956"/>
      <point x="262" y="1106" type="curve" smooth="yes"/>
      <point x="262" y="1231"/>
      <point x="338" y="1321"/>
      <point x="465" y="1321" type="curve" smooth="yes"/>
      <point x="539" y="1321"/>
      <point x="618" y="1298"/>
      <point x="700" y="1253" type="curve"/>
      <point x="756" y="1411" type="line"/>
      <point x="680" y="1450"/>
      <point x="575" y="1483"/>
      <point x="461" y="1483" type="curve"/>
      <point x="242" y="1485"/>
      <point x="84" y="1325"/>
      <point x="88" y="1098" type="curve"/>
      <point x="88" y="866"/>
      <point x="195" y="774"/>
      <point x="369" y="680" type="curve" smooth="yes"/>
      <point x="537" y="592"/>
      <point x="594" y="526"/>
      <point x="594" y="385" type="curve" smooth="yes"/>
      <point x="594" y="252"/>
      <point x="514" y="141"/>
      <point x="377" y="141" type="curve" smooth="yes"/>
      <point x="285" y="141"/>
      <point x="170" y="168"/>
      <point x="78" y="221" type="curve"/>
      <point x="78" y="43" type="line"/>
      <point x="164" y="0"/>
      <point x="264" y="-20"/>
      <point x="383" y="-20" type="curve" smooth="yes"/>
      <point x="614" y="-20"/>
      <point x="768" y="154"/>
    </contour>
  </outline>
</glyph>
<glyph name="l" format="2">
  <advance width="430"/>
  <unicode hex="006C"/>
  <anchor x="217" y="0" name="bottom"/>
  <anchor x="215" y="551" name="center"/>
  <anchor x="217" y="1556" name="top"/>
  <anchor x="342" y="1556" name="topright"/>
  <outline>
    <contour>
      <point x="299" y="0" type="line"/>
      <point x="299" y="1556" type="line"/>
      <point x="133" y="1556" type="line"/>
      <point x="133" y="0" type="line"/>
    </contour>
  </outline>
</glyph>
<glyph name="w" format="2">
  <advance width="1239"/>
  <unicode hex="0077"/>
  <anchor x="616" y="0" name="bottom"/>
  <anchor x="618" y="1100" name="top"/>
  <anchor x="1198" y="1100" name="topright"/>
  <outline>
    <contour>
      <point x="786" y="0" type="line"/>
      <point x="979" y="0" type="line"/>
      <point x="1221" y="1100" type="line"/>
      <point x="1059" y="1100" type="line"/>
      <point x="922" y="434" type="line"/>
      <point x="903" y="336"/>
      <point x="891" y="254"/>
      <point x="887" y="201" type="curve"/>
      <point x="881" y="201" type="line"/>
      <point x="860" y="348"/>
      <point x="842" y="465"/>
      <point x="825" y="541" type="curve"/>
      <point x="713" y="1100" type="line"/>
      <point x="528" y="1100" type="line"/>
      <point x="414" y="543" type="line" smooth="yes"/>
      <point x="387" y="414"/>
      <point x="371" y="299"/>
      <point x="358" y="201" type="curve"/>
      <point x="352" y="201" type="line"/>
      <point x="336" y="317"/>
      <point x="315" y="438"/>
      <point x="295" y="551" type="curve"/>
      <point x="184" y="1100" type="line"/>
      <point x="18" y="1100" type="line"/>
      <point x="254" y="0" type="line"/>
      <point x="444" y="0" type="line"/>
      <point x="580" y="666" type="line"/>
      <point x="594" y="739"/>
      <point x="606" y="827"/>
      <point x="618" y="907" type="curve"/>
      <point x="623" y="907" type="line"/>
      <point x="633" y="831"/>
      <point x="645" y="743"/>
      <point x="659" y="666" type="curve"/>
    </contour>
  </outline>
</glyph>
<glyph name="bar" format="2">
  <advance width="829"/>
  <unicode hex="007C"/>
  <outline>
    <contour>
      <point x="338" y="1563" type="line"/>
      <point x="338" y="-485" type="line"/>
      <point x="492" y="-485" type="line"/>
      <point x="492" y="1563" type="line"/>
    </contour>
  </outline>
</glyph>
<glyph name="braceright" format="2">
  <advance width="741"/>
  <unicode hex="007D"/>
  <outline>
    <contour>
      <point x="84" y="-330" type="line"/>
      <point x="342" y="-326"/>
      <point x="449" y="-217"/>
      <point x="449" y="-2" type="curve" smooth="yes"/>
      <point x="449" y="305" type="line" smooth="yes"/>
      <point x="449" y="449"/>
      <point x="504" y="506"/>
      <point x="655" y="506" type="curve"/>
      <point x="655" y="633" type="line"/>
      <point x="492" y="633"/>
      <point x="449" y="702"/>
      <point x="449" y="834" type="curve" smooth="yes"/>
      <point x="449" y="1143" type="line" smooth="yes"/>
      <point x="449" y="1362"/>
      <point x="330" y="1464"/>
      <point x="84" y="1468" type="curve"/>
      <point x="84" y="1333" type="line"/>
      <point x="215" y="1329"/>
      <point x="287" y="1278"/>
      <point x="287" y="1137" type="curve" smooth="yes"/>
      <point x="287" y="829" type="line" smooth="yes"/>
      <point x="287" y="678"/>
      <point x="340" y="598"/>
      <point x="477" y="573" type="curve"/>
      <point x="477" y="565" type="line"/>
      <point x="340" y="539"/>
      <point x="287" y="459"/>
      <point x="287" y="309" type="curve" smooth="yes"/>
      <point x="287" y="2" type="line" smooth="yes"/>
      <point x="287" y="-135"/>
      <point x="227" y="-193"/>
      <point x="84" y="-195" type="curve"/>
    </contour>
  </outline>
</glyph>
<glyph name="currency" format="2">
  <advance width="1128"/>
  <unicode hex="00A4"/>
  <outline>
    <contour>
      <point x="168" y="723" type="curve" smooth="yes"/>
      <point x="168" y="637"/>
      <point x="193" y="559"/>
      <point x="244" y="489" type="curve"/>
      <point x="113" y="358" type="line"/>
      <point x="197" y="272" type="line"/>
      <point x="328" y="406" type="line"/>
      <point x="393" y="354"/>
      <point x="471" y="328"/>
      <point x="563" y="328" type="curve" smooth="yes"/>
      <point x="647" y="328"/>
      <point x="727" y="354"/>
      <point x="795" y="403" type="curve"/>
      <point x="930" y="270" type="line"/>
      <point x="1014" y="354" type="line"/>
      <point x="883" y="487" type="line"/>
      <point x="932" y="557"/>
      <point x="958" y="635"/>
      <point x="958" y="723" type="curve" smooth="yes"/>
      <point x="958" y="809"/>
      <point x="932" y="889"/>
      <point x="883" y="956" type="curve"/>
      <point x="1016" y="1092" type="line"/>
      <point x="928" y="1174" type="line"/>
      <point x="795" y="1040" type="line"/>
      <point x="727" y="1094"/>
      <point x="649" y="1118"/>
      <point x="563" y="1118" type="curve" smooth="yes"/>
      <point x="475" y="1118"/>
      <point x="397" y="1092"/>
      <point x="328" y="1038" type="curve"/>
      <point x="197" y="1174" type="line"/>
      <point x="111" y="1090" type="line"/>
      <point x="244" y="954" type="line"/>
      <point x="193" y="885"/>
      <point x="168" y="807"/>
    </contour>
    <contour>
      <point x="285" y="723" type="curve" smooth="yes"/>
      <point x="285" y="874"/>
      <point x="412" y="1004"/>
      <point x="563" y="1004" type="curve" smooth="yes"/>
      <point x="715" y="1004"/>
      <point x="844" y="872"/>
      <point x="844" y="723" type="curve" smooth="yes"/>
      <point x="844" y="573"/>
      <point x="725" y="444"/>
      <point x="563" y="444" type="curve" smooth="yes"/>
      <point x="406" y="444"/>
      <point x="285" y="569"/>
    </contour>
  </outline>
</glyph>
<glyph name="yen" format="2">
  <advance width="879"/>
  <unicode hex="00A5"/>
  <outline>
    <contour>
      <point x="438" y="774" type="line"/>
      <point x="248" y="1462" type="line"/>
      <point x="74" y="1462" type="line"/>
      <point x="315" y="684" type="line"/>
      <point x="123" y="684" type="line"/>
      <point x="123" y="563" type="line"/>
      <point x="350" y="563" type="line"/>
      <point x="350" y="387" type="line"/>
      <point x="123" y="387" type="line"/>
      <point x="123" y="266" type="line"/>
      <point x="350" y="266" type="line"/>
      <point x="350" y="0" type="line"/>
      <point x="522" y="0" type="line"/>
      <point x="522" y="266" type="line"/>
      <point x="754" y="266" type="line"/>
      <point x="754" y="387" type="line"/>
      <point x="522" y="387" type="line"/>
      <point x="522" y="563" type="line"/>
      <point x="754" y="563" type="line"/>
      <point x="754" y="684" type="line"/>
      <point x="555" y="684" type="line"/>
      <point x="799" y="1462" type="line"/>
      <point x="623" y="1462" type="line"/>
    </contour>
  </outline>
</glyph>
<glyph name="copyright" format="2">
  <advance width="1700"/>
  <unicode hex="00A9"/>
  <outline>
    <contour>
      <point x="850" y="-20" type="curve" smooth="yes"/>
      <point x="1282" y="-20"/>
      <point x="1602" y="295"/>
      <point x="1602" y="731" type="curve" smooth="yes"/>
      <point x="1602" y="1153"/>
      <point x="1294" y="1483"/>
      <point x="850" y="1483" type="curve" smooth="yes"/>
      <point x="432" y="1483"/>
      <point x="98" y="1178"/>
      <point x="98" y="731" type="curve" smooth="yes"/>
      <point x="98" y="324"/>
      <point x="387" y="-20"/>
    </contour>
    <contour>
      <point x="879" y="274" type="curve" smooth="yes"/>
      <point x="958" y="274"/>
      <point x="1034" y="291"/>
      <point x="1106" y="324" type="curve"/>
      <point x="1106" y="449" type="line"/>
      <point x="1030" y="416"/>
      <point x="956" y="399"/>
      <point x="889" y="399" type="curve" smooth="yes"/>
      <point x="713" y="399"/>
      <point x="623" y="504"/>
      <point x="623" y="733" type="curve" smooth="yes"/>
      <point x="623" y="942"/>
      <point x="725" y="1061"/>
      <point x="893" y="1061" type="curve" smooth="yes"/>
      <point x="956" y="1061"/>
      <point x="1022" y="1047"/>
      <point x="1092" y="1014" type="curve"/>
      <point x="1145" y="1128" type="line"/>
      <point x="1063" y="1167"/>
      <point x="977" y="1186"/>
      <point x="889" y="1186" type="curve" smooth="yes"/>
      <point x="631" y="1186"/>
      <point x="473" y="1008"/>
      <point x="473" y="727" type="curve" smooth="yes"/>
      <point x="473" y="436"/>
      <point x="621" y="274"/>
    </contour>
    <contour>
      <point x="850" y="88" type="curve" smooth="yes"/>
      <point x="492" y="88"/>
      <point x="213" y="346"/>
      <point x="213" y="731" type="curve" smooth="yes"/>
      <point x="213" y="1092"/>
      <point x="471" y="1374"/>
      <point x="850" y="1374" type="curve" smooth="yes"/>
      <point x="1214" y="1374"/>
      <point x="1485" y="1104"/>
      <point x="1485" y="731" type="curve" smooth="yes"/>
      <point x="1485" y="371"/>
      <point x="1229" y="88"/>
    </contour>
  </outline>
</glyph>
<glyph name="guillemotleft" format="2">
  <advance width="942"/>
  <unicode hex="00AB"/>
  <outline>
    <contour>
      <point x="72" y="555" type="line"/>
      <point x="72" y="526" type="line"/>
      <point x="367" y="129" type="line"/>
      <point x="483" y="193" type="line"/>
      <point x="266" y="541" type="line"/>
      <point x="483" y="893" type="line"/>
      <point x="367" y="952" type="line"/>
    </contour>
    <contour>
      <point x="459" y="555" type="line"/>
      <point x="459" y="526" type="line"/>
      <point x="756" y="129" type="line"/>
      <point x="870" y="193" type="line"/>
      <point x="655" y="541" type="line"/>
      <point x="870" y="893" type="line"/>
      <point x="756" y="952" type="line"/>
    </contour>
  </outline>
</glyph>
<glyph name="acute" format="2">
  <advance width="545"/>
  <unicode hex="00B4"/>
  <outline>
    <contour>
      <point x="463" y="1569" type="line"/>
      <point x="264" y="1569" type="line"/>
      <point x="221" y="1477"/>
      <point x="160" y="1374"/>
      <point x="82" y="1264" type="curve"/>
      <point x="82" y="1241" type="line"/>
      <point x="188" y="1241" type="line"/>
      <point x="272" y="1315"/>
      <point x="412" y="1464"/>
      <point x="463" y="1550" type="curve"/>
    </contour>
  </outline>
</glyph>
<glyph name="micro" format="2">
  <advance width="938"/>
  <unicode hex="00B5"/>
  <outline>
    <contour>
      <point x="805" y="1100" type="line"/>
      <point x="639" y="1100" type="line"/>
      <point x="639" y="526" type="line" smooth="yes"/>
      <point x="639" y="264"/>
      <point x="586" y="129"/>
      <point x="434" y="129" type="curve" smooth="yes"/>
      <point x="342" y="129"/>
      <point x="299" y="221"/>
      <point x="299" y="397" type="curve" smooth="yes"/>
      <point x="299" y="1100" type="line"/>
      <point x="133" y="1100" type="line"/>
      <point x="133" y="-492" type="line"/>
      <point x="299" y="-492" type="line"/>
      <point x="299" y="-119" type="line" smooth="yes"/>
      <point x="299" y="-63"/>
      <point x="295" y="6"/>
      <point x="291" y="80" type="curve"/>
      <point x="297" y="80" type="line"/>
      <point x="328" y="12"/>
      <point x="375" y="-20"/>
      <point x="442" y="-20" type="curve" smooth="yes"/>
      <point x="524" y="-20"/>
      <point x="602" y="41"/>
      <point x="643" y="150" type="curve"/>
      <point x="653" y="150" type="line"/>
      <point x="672" y="0" type="line"/>
      <point x="805" y="0" type="line"/>
    </contour>
  </outline>
</glyph>
<glyph name="guillemotright" format="2">
  <advance width="942"/>
  <unicode hex="00BB"/>
  <outline>
    <contour>
      <point x="872" y="526" type="line"/>
      <point x="872" y="555" type="line"/>
      <point x="575" y="952" type="line"/>
      <point x="461" y="893" type="line"/>
      <point x="676" y="541" type="line"/>
      <point x="461" y="193" type="line"/>
      <point x="575" y="129" type="line"/>
    </contour>
    <contour>
      <point x="485" y="526" type="line"/>
      <point x="485" y="555" type="line"/>
      <point x="186" y="952" type="line"/>
      <point x="74" y="893" type="line"/>
      <point x="287" y="541" type="line"/>
      <point x="74" y="193" type="line"/>
      <point x="186" y="129" type="line"/>
    </contour>
  </outline>
</glyph>
<glyph name="onequarter" format="2">
  <advance width="1462"/>
  <unicode hex="00BC"/>
  <outline>
    <contour>
      <point x="315" y="0" type="line"/>
      <point x="457" y="0" type="line"/>
      <point x="1208" y="1462" type="line"/>
      <point x="1065" y="1462" type="line"/>
    </contour>
    <contour>
      <point x="289" y="586" type="line"/>
      <point x="422" y="586" type="line"/>
      <point x="422" y="1462" type="line"/>
      <point x="309" y="1462" type="line"/>
      <point x="55" y="1264" type="line"/>
      <point x="125" y="1174" type="line"/>
      <point x="244" y="1262" type="line" smooth="yes"/>
      <point x="256" y="1274"/>
      <point x="274" y="1290"/>
      <point x="297" y="1311" type="curve"/>
      <point x="291" y="1247"/>
      <point x="289" y="1186"/>
      <point x="289" y="1124" type="curve" smooth="yes"/>
    </contour>
    <contour>
      <point x="1194" y="0" type="line"/>
      <point x="1323" y="0" type="line"/>
      <point x="1323" y="188" type="line"/>
      <point x="1427" y="188" type="line"/>
      <point x="1427" y="301" type="line"/>
      <point x="1323" y="301" type="line"/>
      <point x="1323" y="881" type="line"/>
      <point x="1190" y="881" type="line"/>
      <point x="862" y="287" type="line"/>
      <point x="862" y="188" type="line"/>
      <point x="1194" y="188" type="line"/>
    </contour>
    <contour>
      <point x="989" y="301" type="line"/>
      <point x="1153" y="610" type="line" smooth="yes"/>
      <point x="1176" y="653"/>
      <point x="1190" y="686"/>
      <point x="1198" y="711" type="curve"/>
      <point x="1194" y="676"/>
      <point x="1194" y="621"/>
      <point x="1194" y="551" type="curve" smooth="yes"/>
      <point x="1194" y="301" type="line"/>
    </contour>
  </outline>
</glyph>
<glyph name="multiply" format="2">
  <advance width="881"/>
  <unicode hex="00D7"/>
  <outline>
    <contour>
      <point x="719" y="1100" type="line"/>
      <point x="438" y="819" type="line"/>
      <point x="160" y="1096" type="line"/>
      <point x="66" y="999" type="line"/>
      <point x="342" y="723" type="line"/>
      <point x="66" y="444" type="line"/>
      <point x="160" y="348" type="line"/>
      <point x="438" y="627" type="line"/>
      <point x="717" y="350" type="line"/>
      <point x="811" y="444" type="line"/>
      <point x="537" y="723" type="line"/>
      <point x="817" y="1006" type="line"/>
    </contour>
  </outline>
</glyph>
<glyph name="Oslash" format="2">
  <advance width="1126"/>
  <unicode hex="00D8"/>
  <anchor x="563" y="0" name="bottom"/>
  <anchor x="569" y="1462" name="top"/>
  <outline>
    <contour>
      <point x="1026" y="733" type="curve" smooth="yes"/>
      <point x="1026" y="969"/>
      <point x="989" y="1151"/>
      <point x="911" y="1278" type="curve"/>
      <point x="1020" y="1493" type="line"/>
      <point x="915" y="1544" type="line"/>
      <point x="829" y="1376" type="line"/>
      <point x="758" y="1448"/>
      <point x="670" y="1483"/>
      <point x="565" y="1483" type="curve" smooth="yes"/>
      <point x="260" y="1483"/>
      <point x="102" y="1235"/>
      <point x="102" y="735" type="curve" smooth="yes"/>
      <point x="102" y="492"/>
      <point x="139" y="307"/>
      <point x="227" y="168" type="curve"/>
      <point x="119" y="-51" type="line"/>
      <point x="225" y="-98" type="line"/>
      <point x="309" y="74" type="line"/>
      <point x="377" y="12"/>
      <point x="463" y="-20"/>
      <point x="565" y="-20" type="curve" smooth="yes"/>
      <point x="866" y="-20"/>
      <point x="1026" y="246"/>
    </contour>
    <contour>
      <point x="848" y="733" type="curve" smooth="yes"/>
      <point x="848" y="334"/>
      <point x="752" y="133"/>
      <point x="563" y="133" type="curve" smooth="yes"/>
      <point x="489" y="133"/>
      <point x="428" y="164"/>
      <point x="383" y="227" type="curve"/>
      <point x="811" y="1079" type="line"/>
      <point x="836" y="989"/>
      <point x="848" y="870"/>
    </contour>
    <contour>
      <point x="279" y="733" type="curve" smooth="yes"/>
      <point x="279" y="1124"/>
      <point x="375" y="1329"/>
      <point x="565" y="1329" type="curve" smooth="yes"/>
      <point x="647" y="1329"/>
      <point x="709" y="1294"/>
      <point x="756" y="1219" type="curve"/>
      <point x="326" y="360" type="line"/>
      <point x="295" y="451"/>
      <point x="279" y="575"/>
    </contour>
  </outline>
</glyph>
<glyph name="thorn" format="2">
  <advance width="946"/>
  <unicode hex="00FE"/>
  <anchor x="473" y="-492" name="bottom"/>
  <anchor x="473" y="1556" name="top"/>
  <outline>
    <contour>
      <point x="862" y="551" type="curve" smooth="yes"/>
      <point x="862" y="922"/>
      <point x="750" y="1120"/>
      <point x="539" y="1120" type="curve" smooth="yes"/>
      <point x="440" y="1120"/>
      <point x="358" y="1069"/>
      <point x="299" y="950" type="curve"/>
      <point x="293" y="950" type="line"/>
      <point x="297" y="1006"/>
      <point x="299" y="1059"/>
      <point x="299" y="1114" type="curve"/>
      <point x="299" y="1556" type="line"/>
      <point x="133" y="1556" type="line"/>
      <point x="133" y="-492" type="line"/>
      <point x="301" y="-492" type="line"/>
      <point x="301" y="0" type="line" smooth="yes"/>
      <point x="301" y="41"/>
      <point x="295" y="90"/>
      <point x="291" y="147" type="curve"/>
      <point x="299" y="147" type="line"/>
      <point x="348" y="41"/>
      <point x="442" y="-20"/>
      <point x="549" y="-20" type="curve" smooth="yes"/>
      <point x="750" y="-20"/>
      <point x="862" y="188"/>
    </contour>
    <contour>
      <point x="692" y="549" type="curve" smooth="yes"/>
      <point x="692" y="319"/>
      <point x="655" y="125"/>
      <point x="504" y="125" type="curve" smooth="yes"/>
      <point x="365" y="125"/>
      <point x="299" y="254"/>
      <point x="299" y="543" type="curve" smooth="yes"/>
      <point x="299" y="584" type="line" smooth="yes"/>
      <point x="299" y="854"/>
      <point x="365" y="975"/>
      <point x="502" y="975" type="curve" smooth="yes"/>
      <point x="635" y="975"/>
      <point x="692" y="844"/>
    </contour>
  </outline>
</glyph>
<glyph name="idotless" format="2">
  <advance width="432"/>
  <unicode hex="0131"/>
  <anchor x="219" y="0" name="bottom"/>
  <anchor x="215" y="1100" name="top"/>
  <outline>
    <contour>
      <point x="299" y="0" type="line"/>
      <point x="299" y="1100" type="line"/>
      <point x="133" y="1100" type="line"/>
      <point x="133" y="0" type="line"/>
    </contour>
  </outline>
</glyph>
<glyph name="lslash" format="2">
  <advance width="465"/>
  <unicode hex="0142"/>
  <anchor x="233" y="0" name="bottom"/>
  <anchor x="233" y="1556" name="top"/>
  <outline>
    <contour>
      <point x="150" y="0" type="line"/>
      <point x="315" y="0" type="line"/>
      <point x="315" y="733" type="line"/>
      <point x="512" y="881" type="line"/>
      <point x="428" y="989" type="line"/>
      <point x="315" y="905" type="line"/>
      <point x="315" y="1556" type="line"/>
      <point x="150" y="1556" type="line"/>
      <point x="150" y="784" type="line"/>
      <point x="-41" y="639" type="line"/>
      <point x="39" y="530" type="line"/>
      <point x="150" y="612" type="line"/>
    </contour>
  </outline>
</glyph>
<glyph name="Eng" format="2">
  <advance width="1165"/>
  <unicode hex="014A"/>
  <anchor x="584" y="-395" name="bottom"/>
  <anchor x="584" y="1462" name="top"/>
  <outline>
    <contour>
      <point x="741" y="-395" type="curve" smooth="yes"/>
      <point x="928" y="-395"/>
      <point x="1018" y="-262"/>
      <point x="1018" y="8" type="curve" smooth="yes"/>
      <point x="1018" y="1462" type="line"/>
      <point x="854" y="1462" type="line"/>
      <point x="854" y="655" type="line" smooth="yes"/>
      <point x="854" y="575"/>
      <point x="858" y="477"/>
      <point x="864" y="362" type="curve"/>
      <point x="858" y="362" type="line"/>
      <point x="358" y="1462" type="line"/>
      <point x="150" y="1462" type="line"/>
      <point x="150" y="0" type="line"/>
      <point x="313" y="0" type="line"/>
      <point x="313" y="911" type="line" smooth="yes"/>
      <point x="313" y="995"/>
      <point x="309" y="1096"/>
      <point x="301" y="1206" type="curve"/>
      <point x="307" y="1206" type="line"/>
      <point x="854" y="2" type="line"/>
      <point x="854" y="-172"/>
      <point x="813" y="-240"/>
      <point x="725" y="-240" type="curve" smooth="yes"/>
      <point x="682" y="-240"/>
      <point x="643" y="-231"/>
      <point x="610" y="-219" type="curve"/>
      <point x="610" y="-373" type="line"/>
      <point x="649" y="-389"/>
      <point x="692" y="-395"/>
    </contour>
  </outline>
</glyph>
<glyph name="uni0180" format="2">
  <advance width="946"/>
  <unicode hex="0180"/>
  <anchor x="473" y="0" name="bottom"/>
  <anchor x="473" y="1556" name="top"/>
  <outline>
    <contour>
      <point x="545" y="-20" type="curve" smooth="yes"/>
      <point x="748" y="-20"/>
      <point x="860" y="178"/>
      <point x="860" y="545" type="curve" smooth="yes"/>
      <point x="860" y="907"/>
      <point x="748" y="1104"/>
      <point x="541" y="1104" type="curve" smooth="yes"/>
      <point x="440" y="1104"/>
      <point x="358" y="1053"/>
      <point x="301" y="942" type="curve"/>
      <point x="291" y="942" type="line"/>
      <point x="295" y="995"/>
      <point x="297" y="1047"/>
      <point x="297" y="1090" type="curve" smooth="yes"/>
      <point x="297" y="1241" type="line"/>
      <point x="535" y="1241" type="line"/>
      <point x="535" y="1370" type="line"/>
      <point x="297" y="1370" type="line"/>
      <point x="297" y="1556" type="line"/>
      <point x="133" y="1556" type="line"/>
      <point x="133" y="1370" type="line"/>
      <point x="14" y="1370" type="line"/>
      <point x="14" y="1241" type="line"/>
      <point x="133" y="1241" type="line"/>
      <point x="133" y="0" type="line"/>
      <point x="266" y="0" type="line"/>
      <point x="291" y="139" type="line"/>
      <point x="301" y="139" type="line"/>
      <point x="362" y="29"/>
      <point x="442" y="-20"/>
    </contour>
    <contour>
      <point x="506" y="123" type="curve" smooth="yes"/>
      <point x="367" y="123"/>
      <point x="299" y="246"/>
      <point x="299" y="518" type="curve" smooth="yes"/>
      <point x="299" y="549" type="line" smooth="yes"/>
      <point x="299" y="784"/>
      <point x="338" y="956"/>
      <point x="504" y="956" type="curve" smooth="yes"/>
      <point x="635" y="956"/>
      <point x="692" y="817"/>
      <point x="692" y="545" type="curve" smooth="yes"/>
      <point x="692" y="252"/>
      <point x="631" y="123"/>
    </contour>
  </outline>
</glyph>
<glyph name="uni0185" format="2">
  <advance width="915"/>
  <unicode hex="0185"/>
  <anchor x="459" y="0" name="bottom"/>
  <anchor x="459" y="1556" name="top"/>
  <outline>
    <contour>
      <point x="471" y="-20" type="curve" smooth="yes"/>
      <point x="694" y="-20"/>
      <point x="831" y="195"/>
      <point x="831" y="551" type="curve" smooth="yes"/>
      <point x="831" y="924"/>
      <point x="717" y="1120"/>
      <point x="532" y="1120" type="curve" smooth="yes"/>
      <point x="418" y="1120"/>
      <point x="340" y="1051"/>
      <point x="295" y="934" type="curve"/>
      <point x="287" y="934" type="line"/>
      <point x="289" y="993"/>
      <point x="295" y="1098"/>
      <point x="295" y="1171" type="curve" smooth="yes"/>
      <point x="295" y="1556" type="line"/>
      <point x="129" y="1556" type="line"/>
      <point x="129" y="537" type="line" smooth="yes"/>
      <point x="129" y="156"/>
      <point x="250" y="-20"/>
    </contour>
    <contour>
      <point x="479" y="131" type="curve" smooth="yes"/>
      <point x="350" y="131"/>
      <point x="295" y="264"/>
      <point x="295" y="535" type="curve" smooth="yes"/>
      <point x="295" y="565" type="line" smooth="yes"/>
      <point x="295" y="825"/>
      <point x="352" y="969"/>
      <point x="483" y="969" type="curve" smooth="yes"/>
      <point x="598" y="969"/>
      <point x="664" y="829"/>
      <point x="664" y="551" type="curve" smooth="yes"/>
      <point x="664" y="272"/>
      <point x="600" y="131"/>
    </contour>
  </outline>
</glyph>
<glyph name="florin" format="2">
  <advance width="834"/>
  <unicode hex="0192"/>
  <anchor x="416" y="-492" name="bottom"/>
  <anchor x="520" y="1483" name="top"/>
  <outline>
    <contour>
      <point x="571" y="1483" type="curve" smooth="yes"/>
      <point x="395" y="1483"/>
      <point x="322" y="1366"/>
      <point x="322" y="1106" type="curve" smooth="yes"/>
      <point x="322" y="969" type="line"/>
      <point x="172" y="913" type="line"/>
      <point x="172" y="823" type="line"/>
      <point x="322" y="823" type="line"/>
      <point x="322" y="-133" type="line" smooth="yes"/>
      <point x="322" y="-279"/>
      <point x="287" y="-346"/>
      <point x="197" y="-346" type="curve" smooth="yes"/>
      <point x="164" y="-346"/>
      <point x="125" y="-340"/>
      <point x="80" y="-328" type="curve"/>
      <point x="80" y="-475" type="line"/>
      <point x="123" y="-485"/>
      <point x="168" y="-492"/>
      <point x="223" y="-492" type="curve" smooth="yes"/>
      <point x="424" y="-492"/>
      <point x="487" y="-356"/>
      <point x="487" y="-100" type="curve" smooth="yes"/>
      <point x="487" y="823" type="line"/>
      <point x="676" y="823" type="line"/>
      <point x="676" y="963" type="line"/>
      <point x="487" y="963" type="line"/>
      <point x="487" y="1104" type="line" smooth="yes"/>
      <point x="487" y="1272"/>
      <point x="514" y="1337"/>
      <point x="598" y="1337" type="curve" smooth="yes"/>
      <point x="631" y="1337"/>
      <point x="668" y="1327"/>
      <point x="709" y="1307" type="curve"/>
      <point x="756" y="1440" type="line"/>
      <point x="688" y="1470"/>
      <point x="631" y="1483"/>
    </contour>
  </outline>
</glyph>
<glyph name="uni0193" format="2">
  <advance width="1116"/>
  <unicode hex="0193"/>
  <anchor x="621" y="0" name="bottom"/>
  <anchor x="662" y="1667" name="top"/>
  <outline>
    <contour>
      <point x="1040" y="1774" type="curve" smooth="yes"/>
      <point x="936" y="1774"/>
      <point x="844" y="1708"/>
      <point x="844" y="1536" type="curve" smooth="yes"/>
      <point x="844" y="1448" type="line"/>
      <point x="782" y="1473"/>
      <point x="721" y="1483"/>
      <point x="655" y="1483" type="curve" smooth="yes"/>
      <point x="283" y="1483"/>
      <point x="102" y="1171"/>
      <point x="102" y="735" type="curve" smooth="yes"/>
      <point x="102" y="303"/>
      <point x="264" y="-20"/>
      <point x="623" y="-20" type="curve" smooth="yes"/>
      <point x="756" y="-20"/>
      <point x="885" y="4"/>
      <point x="1006" y="51" type="curve"/>
      <point x="1006" y="772" type="line"/>
      <point x="631" y="772" type="line"/>
      <point x="631" y="618" type="line"/>
      <point x="838" y="618" type="line"/>
      <point x="838" y="166" type="line"/>
      <point x="780" y="145"/>
      <point x="713" y="135"/>
      <point x="637" y="135" type="curve" smooth="yes"/>
      <point x="385" y="135"/>
      <point x="283" y="393"/>
      <point x="283" y="731" type="curve" smooth="yes"/>
      <point x="283" y="1120"/>
      <point x="414" y="1329"/>
      <point x="659" y="1329" type="curve" smooth="yes"/>
      <point x="750" y="1329"/>
      <point x="838" y="1300"/>
      <point x="928" y="1243" type="curve"/>
      <point x="989" y="1389" type="line"/>
      <point x="989" y="1511" type="line" smooth="yes"/>
      <point x="989" y="1604"/>
      <point x="1018" y="1626"/>
      <point x="1063" y="1626" type="curve" smooth="yes"/>
      <point x="1096" y="1626"/>
      <point x="1128" y="1612"/>
      <point x="1143" y="1604" type="curve"/>
      <point x="1143" y="1749" type="line"/>
      <point x="1122" y="1761"/>
      <point x="1087" y="1774"/>
    </contour>
  </outline>
</glyph>
<glyph name="uni019A" format="2">
  <advance width="444"/>
  <unicode hex="019A"/>
  <anchor x="223" y="0" name="bottom"/>
  <anchor x="223" y="1556" name="top"/>
  <outline>
    <contour>
      <point x="139" y="0" type="line"/>
      <point x="303" y="0" type="line"/>
      <point x="303" y="702" type="line"/>
      <point x="428" y="702" type="line"/>
      <point x="428" y="829" type="line"/>
      <point x="303" y="829" type="line"/>
      <point x="303" y="1556" type="line"/>
      <point x="139" y="1556" type="line"/>
      <point x="139" y="829" type="line"/>
      <point x="14" y="829" type="line"/>
      <point x="14" y="702" type="line"/>
      <point x="139" y="702" type="line"/>
    </contour>
  </outline>
</glyph>
<glyph name="uni01AA" format="2">
  <advance width="567"/>
  <unicode hex="01AA"/>
  <anchor x="285" y="-492" name="bottom"/>
  <anchor x="285" y="1571" name="top"/>
  <outline>
    <contour>
      <point x="195" y="1571" type="curve" smooth="yes"/>
      <point x="41" y="1571"/>
      <point x="-20" y="1452"/>
      <point x="-20" y="1331" type="curve" smooth="yes"/>
      <point x="-20" y="1196"/>
      <point x="53" y="1100"/>
      <point x="199" y="1100" type="curve" smooth="yes"/>
      <point x="256" y="1100" type="line"/>
      <point x="256" y="-209" type="line" smooth="yes"/>
      <point x="256" y="-408"/>
      <point x="319" y="-492"/>
      <point x="459" y="-492" type="curve" smooth="yes"/>
      <point x="514" y="-492"/>
      <point x="565" y="-479"/>
      <point x="608" y="-459" type="curve"/>
      <point x="608" y="-317" type="line"/>
      <point x="588" y="-330"/>
      <point x="539" y="-342"/>
      <point x="502" y="-342" type="curve" smooth="yes"/>
      <point x="444" y="-342"/>
      <point x="422" y="-305"/>
      <point x="422" y="-207" type="curve" smooth="yes"/>
      <point x="422" y="1264" type="line" smooth="yes"/>
      <point x="422" y="1462"/>
      <point x="352" y="1571"/>
    </contour>
    <contour>
      <point x="168" y="1452" type="curve" smooth="yes"/>
      <point x="225" y="1452"/>
      <point x="256" y="1405"/>
      <point x="256" y="1294" type="curve" smooth="yes"/>
      <point x="256" y="1214" type="line"/>
      <point x="203" y="1214" type="line" smooth="yes"/>
      <point x="135" y="1214"/>
      <point x="90" y="1249"/>
      <point x="90" y="1333" type="curve" smooth="yes"/>
      <point x="90" y="1401"/>
      <point x="115" y="1452"/>
    </contour>
  </outline>
</glyph>
<glyph name="uni01AD" format="2">
  <advance width="530"/>
  <unicode hex="01AD"/>
  <anchor x="266" y="0" name="bottom"/>
  <anchor x="266" y="1567" name="top"/>
  <outline>
    <contour>
      <point x="383" y="1567" type="curve" smooth="yes"/>
      <point x="233" y="1567"/>
      <point x="137" y="1462"/>
      <point x="137" y="1278" type="curve" smooth="yes"/>
      <point x="137" y="1092" type="line"/>
      <point x="35" y="1051" type="line"/>
      <point x="35" y="961" type="line"/>
      <point x="137" y="961" type="line"/>
      <point x="137" y="272" type="line" smooth="yes"/>
      <point x="137" y="76"/>
      <point x="203" y="-20"/>
      <point x="348" y="-20" type="curve" smooth="yes"/>
      <point x="410" y="-20"/>
      <point x="459" y="-8"/>
      <point x="502" y="12" type="curve"/>
      <point x="502" y="147" type="line"/>
      <point x="469" y="135"/>
      <point x="436" y="127"/>
      <point x="403" y="127" type="curve" smooth="yes"/>
      <point x="324" y="127"/>
      <point x="303" y="182"/>
      <point x="303" y="293" type="curve" smooth="yes"/>
      <point x="303" y="961" type="line"/>
      <point x="487" y="961" type="line"/>
      <point x="487" y="1100" type="line"/>
      <point x="303" y="1100" type="line"/>
      <point x="303" y="1270" type="line" smooth="yes"/>
      <point x="303" y="1382"/>
      <point x="332" y="1417"/>
      <point x="408" y="1417" type="curve" smooth="yes"/>
      <point x="434" y="1417"/>
      <point x="463" y="1411"/>
      <point x="492" y="1401" type="curve"/>
      <point x="492" y="1548" type="line"/>
      <point x="467" y="1559"/>
      <point x="422" y="1567"/>
    </contour>
  </outline>
</glyph>
<glyph name="uni01C0" format="2">
  <advance width="571"/>
  <unicode hex="01C0"/>
  <anchor x="287" y="0" name="bottom"/>
  <anchor x="287" y="1563" name="top"/>
  <outline>
    <contour>
      <point x="209" y="0" type="line"/>
      <point x="362" y="0" type="line"/>
      <point x="362" y="1563" type="line"/>
      <point x="209" y="1563" type="line"/>
    </contour>
  </outline>
</glyph>
<glyph name="uni01E5" format="2">
  <advance width="946"/>
  <unicode hex="01E5"/>
  <anchor x="473" y="-492" name="bottom"/>
  <anchor x="473" y="1100" name="top"/>
  <outline>
    <contour>
      <point x="408" y="1120" type="curve" smooth="yes"/>
      <point x="207" y="1120"/>
      <point x="86" y="930"/>
      <point x="86" y="578" type="curve" smooth="yes"/>
      <point x="86" y="231"/>
      <point x="201" y="43"/>
      <point x="401" y="43" type="curve" smooth="yes"/>
      <point x="512" y="43"/>
      <point x="590" y="98"/>
      <point x="649" y="215" type="curve"/>
      <point x="657" y="215" type="line"/>
      <point x="651" y="150"/>
      <point x="649" y="86"/>
      <point x="649" y="41" type="curve" smooth="yes"/>
      <point x="649" y="-74" type="line"/>
      <point x="340" y="-74" type="line"/>
      <point x="340" y="-186" type="line"/>
      <point x="645" y="-186" type="line"/>
      <point x="627" y="-301"/>
      <point x="545" y="-356"/>
      <point x="395" y="-356" type="curve" smooth="yes"/>
      <point x="313" y="-356"/>
      <point x="231" y="-334"/>
      <point x="139" y="-287" type="curve"/>
      <point x="139" y="-430" type="line"/>
      <point x="219" y="-471"/>
      <point x="299" y="-492"/>
      <point x="399" y="-492" type="curve" smooth="yes"/>
      <point x="666" y="-492"/>
      <point x="793" y="-362"/>
      <point x="811" y="-186" type="curve"/>
      <point x="938" y="-186" type="line"/>
      <point x="938" y="-74" type="line"/>
      <point x="815" y="-74" type="line"/>
      <point x="815" y="1100" type="line"/>
      <point x="676" y="1100" type="line"/>
      <point x="657" y="954" type="line"/>
      <point x="647" y="954" type="line"/>
      <point x="588" y="1071"/>
      <point x="512" y="1120"/>
    </contour>
    <contour>
      <point x="442" y="973" type="curve" smooth="yes"/>
      <point x="586" y="973"/>
      <point x="649" y="848"/>
      <point x="649" y="584" type="curve" smooth="yes"/>
      <point x="649" y="535" type="line" smooth="yes"/>
      <point x="649" y="311"/>
      <point x="580" y="188"/>
      <point x="449" y="188" type="curve" smooth="yes"/>
      <point x="317" y="188"/>
      <point x="256" y="311"/>
      <point x="256" y="575" type="curve" smooth="yes"/>
      <point x="256" y="827"/>
      <point x="313" y="973"/>
    </contour>
  </outline>
</glyph>
<glyph name="uni021C" format="2">
  <advance width="928"/>
  <unicode hex="021C"/>
  <anchor x="424" y="-227" name="bottom"/>
  <anchor x="420" y="1462" name="top"/>
  <outline>
    <contour>
      <point x="72" y="-369" type="line"/>
      <point x="618" y="-201"/>
      <point x="852" y="-10"/>
      <point x="852" y="365" type="curve" smooth="yes"/>
      <point x="852" y="573"/>
      <point x="754" y="694"/>
      <point x="639" y="764" type="curve"/>
      <point x="754" y="842"/>
      <point x="823" y="950"/>
      <point x="823" y="1114" type="curve" smooth="yes"/>
      <point x="823" y="1362"/>
      <point x="668" y="1483"/>
      <point x="461" y="1483" type="curve" smooth="yes"/>
      <point x="313" y="1483"/>
      <point x="176" y="1436"/>
      <point x="61" y="1331" type="curve"/>
      <point x="145" y="1208" type="line"/>
      <point x="233" y="1288"/>
      <point x="328" y="1327"/>
      <point x="444" y="1327" type="curve" smooth="yes"/>
      <point x="561" y="1327"/>
      <point x="647" y="1262"/>
      <point x="647" y="1102" type="curve" smooth="yes"/>
      <point x="647" y="911"/>
      <point x="539" y="834"/>
      <point x="229" y="741" type="curve"/>
      <point x="266" y="606" type="line"/>
      <point x="352" y="631"/>
      <point x="434" y="657"/>
      <point x="506" y="690" type="curve"/>
      <point x="610" y="616"/>
      <point x="674" y="528"/>
      <point x="674" y="365" type="curve" smooth="yes"/>
      <point x="674" y="115"/>
      <point x="545" y="-53"/>
      <point x="72" y="-207" type="curve"/>
    </contour>
  </outline>
</glyph>
<glyph name="uni0221" format="2">
  <advance width="1366"/>
  <unicode hex="0221"/>
  <anchor x="684" y="-209" name="bottom"/>
  <anchor x="684" y="1556" name="top"/>
  <outline>
    <contour>
      <point x="885" y="-209" type="line"/>
      <point x="887" y="-135"/>
      <point x="901" y="-45"/>
      <point x="913" y="12" type="curve"/>
      <point x="940" y="4"/>
      <point x="995" y="-4"/>
      <point x="1059" y="-4" type="curve" smooth="yes"/>
      <point x="1255" y="-4"/>
      <point x="1358" y="98"/>
      <point x="1358" y="248" type="curve" smooth="yes"/>
      <point x="1358" y="383"/>
      <point x="1264" y="477"/>
      <point x="1130" y="477" type="curve" smooth="yes"/>
      <point x="981" y="477"/>
      <point x="901" y="385"/>
      <point x="838" y="217" type="curve"/>
      <point x="817" y="250"/>
      <point x="815" y="289"/>
      <point x="815" y="330" type="curve"/>
      <point x="815" y="1556" type="line"/>
      <point x="649" y="1556" type="line"/>
      <point x="649" y="1110" type="line" smooth="yes"/>
      <point x="649" y="1067"/>
      <point x="651" y="1020"/>
      <point x="655" y="958" type="curve"/>
      <point x="647" y="958" type="line"/>
      <point x="592" y="1063"/>
      <point x="502" y="1120"/>
      <point x="401" y="1120" type="curve" smooth="yes"/>
      <point x="199" y="1120"/>
      <point x="86" y="915"/>
      <point x="86" y="549" type="curve" smooth="yes"/>
      <point x="86" y="178"/>
      <point x="197" y="-20"/>
      <point x="408" y="-20" type="curve" smooth="yes"/>
      <point x="526" y="-20"/>
      <point x="621" y="41"/>
      <point x="678" y="182" type="curve"/>
      <point x="688" y="182" type="line"/>
      <point x="698" y="133"/>
      <point x="737" y="76"/>
      <point x="782" y="49" type="curve"/>
      <point x="766" y="-18"/>
      <point x="754" y="-115"/>
      <point x="748" y="-199" type="curve"/>
    </contour>
    <contour>
      <point x="446" y="121" type="curve" smooth="yes"/>
      <point x="315" y="121"/>
      <point x="256" y="266"/>
      <point x="256" y="549" type="curve" smooth="yes"/>
      <point x="256" y="823"/>
      <point x="313" y="973"/>
      <point x="442" y="973" type="curve" smooth="yes"/>
      <point x="586" y="973"/>
      <point x="649" y="844"/>
      <point x="649" y="561" type="curve" smooth="yes"/>
      <point x="649" y="500" type="line" smooth="yes"/>
      <point x="649" y="246"/>
      <point x="580" y="121"/>
    </contour>
    <contour>
      <point x="1065" y="125" type="curve" smooth="yes"/>
      <point x="1020" y="125"/>
      <point x="971" y="131"/>
      <point x="942" y="139" type="curve"/>
      <point x="979" y="283"/>
      <point x="1022" y="344"/>
      <point x="1112" y="344" type="curve" smooth="yes"/>
      <point x="1176" y="344"/>
      <point x="1217" y="303"/>
      <point x="1217" y="238" type="curve" smooth="yes"/>
      <point x="1217" y="170"/>
      <point x="1155" y="125"/>
    </contour>
  </outline>
</glyph>
<glyph name="uni0222" format="2">
  <advance width="1126"/>
  <unicode hex="0222"/>
  <anchor x="563" y="0" name="bottom"/>
  <anchor x="563" y="1462" name="top"/>
  <outline>
    <contour>
      <point x="565" y="-20" type="curve" smooth="yes"/>
      <point x="897" y="-20"/>
      <point x="1026" y="188"/>
      <point x="1026" y="455" type="curve" smooth="yes"/>
      <point x="1026" y="639"/>
      <point x="961" y="793"/>
      <point x="793" y="856" type="curve"/>
      <point x="905" y="915"/>
      <point x="961" y="1040"/>
      <point x="961" y="1255" type="curve" smooth="yes"/>
      <point x="961" y="1462" type="line"/>
      <point x="788" y="1462" type="line"/>
      <point x="788" y="1243" type="line" smooth="yes"/>
      <point x="788" y="1012"/>
      <point x="713" y="924"/>
      <point x="567" y="924" type="curve" smooth="yes"/>
      <point x="422" y="924"/>
      <point x="340" y="1014"/>
      <point x="340" y="1241" type="curve" smooth="yes"/>
      <point x="340" y="1462" type="line"/>
      <point x="168" y="1462" type="line"/>
      <point x="168" y="1253" type="line" smooth="yes"/>
      <point x="168" y="1044"/>
      <point x="225" y="920"/>
      <point x="336" y="858" type="curve"/>
      <point x="180" y="803"/>
      <point x="102" y="672"/>
      <point x="102" y="457" type="curve" smooth="yes"/>
      <point x="102" y="195"/>
      <point x="227" y="-20"/>
    </contour>
    <contour>
      <point x="563" y="137" type="curve" smooth="yes"/>
      <point x="379" y="137"/>
      <point x="281" y="246"/>
      <point x="281" y="457" type="curve" smooth="yes"/>
      <point x="281" y="666"/>
      <point x="375" y="774"/>
      <point x="565" y="774" type="curve" smooth="yes"/>
      <point x="750" y="774"/>
      <point x="844" y="668"/>
      <point x="844" y="457" type="curve" smooth="yes"/>
      <point x="844" y="242"/>
      <point x="748" y="137"/>
    </contour>
  </outline>
</glyph>
<glyph name="uni023F" format="2">
  <advance width="694"/>
  <unicode hex="023F"/>
  <anchor x="348" y="-492" name="bottom"/>
  <anchor x="348" y="1100" name="top"/>
  <outline>
    <contour>
      <point x="504" y="-492" type="curve" smooth="yes"/>
      <point x="553" y="-492"/>
      <point x="588" y="-481"/>
      <point x="610" y="-471" type="curve"/>
      <point x="610" y="-340" type="line"/>
      <point x="592" y="-348"/>
      <point x="565" y="-358"/>
      <point x="535" y="-358" type="curve" smooth="yes"/>
      <point x="459" y="-358"/>
      <point x="422" y="-313"/>
      <point x="399" y="-156" type="curve" smooth="yes"/>
      <point x="391" y="-100"/>
      <point x="375" y="-53"/>
      <point x="344" y="-18" type="curve"/>
      <point x="526" y="-10"/>
      <point x="629" y="102"/>
      <point x="629" y="295" type="curve"/>
      <point x="629" y="463"/>
      <point x="537" y="543"/>
      <point x="401" y="629" type="curve" smooth="yes"/>
      <point x="272" y="707"/>
      <point x="227" y="748"/>
      <point x="227" y="836" type="curve" smooth="yes"/>
      <point x="227" y="922"/>
      <point x="285" y="979"/>
      <point x="377" y="979" type="curve" smooth="yes"/>
      <point x="444" y="979"/>
      <point x="508" y="954"/>
      <point x="565" y="915" type="curve"/>
      <point x="627" y="1049" type="line"/>
      <point x="551" y="1096"/>
      <point x="469" y="1120"/>
      <point x="375" y="1120" type="curve" smooth="yes"/>
      <point x="193" y="1120"/>
      <point x="68" y="1006"/>
      <point x="68" y="831" type="curve" smooth="yes"/>
      <point x="68" y="662"/>
      <point x="160" y="580"/>
      <point x="297" y="496" type="curve" smooth="yes"/>
      <point x="420" y="424"/>
      <point x="465" y="375"/>
      <point x="465" y="289" type="curve" smooth="yes"/>
      <point x="465" y="188"/>
      <point x="408" y="129"/>
      <point x="311" y="129" type="curve" smooth="yes"/>
      <point x="221" y="129"/>
      <point x="127" y="164"/>
      <point x="68" y="213" type="curve"/>
      <point x="68" y="41" type="line"/>
      <point x="78" y="35"/>
      <point x="90" y="25"/>
      <point x="119" y="16" type="curve" smooth="yes"/>
      <point x="172" y="-8"/>
      <point x="233" y="-43"/>
      <point x="254" y="-186" type="curve" smooth="yes"/>
      <point x="283" y="-397"/>
      <point x="346" y="-492"/>
    </contour>
  </outline>
</glyph>
<glyph name="uni0242" format="2">
  <advance width="690"/>
  <unicode hex="0242"/>
  <anchor x="346" y="0" name="bottom"/>
  <anchor x="346" y="1100" name="top"/>
  <outline>
    <contour>
      <point x="283" y="1118" type="curve" smooth="yes"/>
      <point x="186" y="1118"/>
      <point x="88" y="1096"/>
      <point x="2" y="1030" type="curve"/>
      <point x="66" y="899" type="line"/>
      <point x="133" y="948"/>
      <point x="190" y="969"/>
      <point x="266" y="969" type="curve" smooth="yes"/>
      <point x="365" y="969"/>
      <point x="457" y="889"/>
      <point x="457" y="741" type="curve" smooth="yes"/>
      <point x="457" y="565"/>
      <point x="393" y="467"/>
      <point x="190" y="301" type="curve"/>
      <point x="190" y="0" type="line"/>
      <point x="350" y="0" type="line"/>
      <point x="350" y="248" type="line"/>
      <point x="528" y="399"/>
      <point x="625" y="508"/>
      <point x="625" y="754" type="curve" smooth="yes"/>
      <point x="625" y="987"/>
      <point x="489" y="1118"/>
    </contour>
  </outline>
</glyph>
<glyph name="uni024A" format="2">
  <advance width="1141"/>
  <unicode hex="024A"/>
  <anchor x="571" y="-492" name="bottom"/>
  <anchor x="571" y="1462" name="top"/>
  <outline>
    <contour>
      <point x="510" y="1483" type="curve" smooth="yes"/>
      <point x="270" y="1483"/>
      <point x="102" y="1202"/>
      <point x="102" y="733" type="curve" smooth="yes"/>
      <point x="102" y="266"/>
      <point x="266" y="-20"/>
      <point x="510" y="-20" type="curve" smooth="yes"/>
      <point x="670" y="-20"/>
      <point x="762" y="66"/>
      <point x="817" y="199" type="curve"/>
      <point x="829" y="199" type="line"/>
      <point x="823" y="137"/>
      <point x="823" y="74"/>
      <point x="823" y="8" type="curve" smooth="yes"/>
      <point x="823" y="-182" type="line" smooth="yes"/>
      <point x="823" y="-395"/>
      <point x="913" y="-492"/>
      <point x="1092" y="-492" type="curve" smooth="yes"/>
      <point x="1149" y="-492"/>
      <point x="1196" y="-479"/>
      <point x="1225" y="-467" type="curve"/>
      <point x="1225" y="-322" type="line"/>
      <point x="1202" y="-330"/>
      <point x="1161" y="-340"/>
      <point x="1124" y="-340" type="curve" smooth="yes"/>
      <point x="1040" y="-340"/>
      <point x="995" y="-289"/>
      <point x="995" y="-170" type="curve" smooth="yes"/>
      <point x="995" y="1462" type="line"/>
      <point x="850" y="1462" type="line"/>
      <point x="817" y="1276" type="line"/>
      <point x="809" y="1276" type="line"/>
      <point x="758" y="1409"/>
      <point x="664" y="1483"/>
    </contour>
    <contour>
      <point x="557" y="1325" type="curve" smooth="yes"/>
      <point x="721" y="1325"/>
      <point x="821" y="1165"/>
      <point x="821" y="834" type="curve" smooth="yes"/>
      <point x="821" y="655" type="line" smooth="yes"/>
      <point x="821" y="291"/>
      <point x="717" y="137"/>
      <point x="557" y="137" type="curve" smooth="yes"/>
      <point x="381" y="137"/>
      <point x="281" y="360"/>
      <point x="281" y="731" type="curve" smooth="yes"/>
      <point x="281" y="1096"/>
      <point x="381" y="1325"/>
    </contour>
  </outline>
</glyph>
<glyph name="uni0254" format="2">
  <advance width="711"/>
  <unicode hex="0254"/>
  <anchor x="295" y="0" name="bottom"/>
  <anchor x="295" y="1100" name="top"/>
  <outline>
    <contour>
      <point x="266" y="1120" type="curve" smooth="yes"/>
      <point x="182" y="1120"/>
      <point x="102" y="1098"/>
      <point x="45" y="1065" type="curve"/>
      <point x="90" y="932" type="line"/>
      <point x="141" y="958"/>
      <point x="197" y="973"/>
      <point x="242" y="973" type="curve" smooth="yes"/>
      <point x="383" y="973"/>
      <point x="453" y="834"/>
      <point x="453" y="551" type="curve" smooth="yes"/>
      <point x="453" y="270"/>
      <point x="383" y="125"/>
      <point x="240" y="125" type="curve" smooth="yes"/>
      <point x="180" y="125"/>
      <point x="117" y="141"/>
      <point x="55" y="174" type="curve"/>
      <point x="55" y="31" type="line"/>
      <point x="102" y="6"/>
      <point x="162" y="-20"/>
      <point x="240" y="-20" type="curve" smooth="yes"/>
      <point x="483" y="-20"/>
      <point x="623" y="190"/>
      <point x="623" y="565" type="curve" smooth="yes"/>
      <point x="623" y="924"/>
      <point x="516" y="1120"/>
    </contour>
  </outline>
</glyph>
<glyph name="uni0268" format="2">
  <advance width="432"/>
  <unicode hex="0268"/>
  <anchor x="219" y="0" name="bottom"/>
  <anchor x="217" y="1513" name="top"/>
  <outline>
    <contour>
      <point x="424" y="649" type="line"/>
      <point x="8" y="649" type="line"/>
      <point x="8" y="522" type="line"/>
      <point x="424" y="522" type="line"/>
    </contour>
    <component base="i"/>
  </outline>
</glyph>
<glyph name="uni026A" format="2">
  <advance width="575"/>
  <unicode hex="026A"/>
  <anchor x="289" y="0" name="bottom"/>
  <anchor x="289" y="1100" name="top"/>
  <outline>
    <contour>
      <point x="502" y="1100" type="line"/>
      <point x="72" y="1100" type="line"/>
      <point x="72" y="999" type="line"/>
      <point x="205" y="971" type="line"/>
      <point x="205" y="127" type="line"/>
      <point x="72" y="98" type="line"/>
      <point x="72" y="0" type="line"/>
      <point x="502" y="0" type="line"/>
      <point x="502" y="98" type="line"/>
      <point x="369" y="127" type="line"/>
      <point x="369" y="971" type="line"/>
      <point x="502" y="999" type="line"/>
    </contour>
  </outline>
</glyph>
<glyph name="uni026C" format="2">
  <advance width="647"/>
  <unicode hex="026C"/>
  <anchor x="324" y="0" name="bottom"/>
  <anchor x="324" y="1556" name="top"/>
  <outline>
    <contour>
      <point x="283" y="0" type="line"/>
      <point x="451" y="0" type="line"/>
      <point x="451" y="621" type="line"/>
      <point x="637" y="621" type="line"/>
      <point x="637" y="743" type="line"/>
      <point x="451" y="743" type="line"/>
      <point x="451" y="1556" type="line"/>
      <point x="283" y="1556" type="line"/>
      <point x="283" y="956" type="line"/>
      <point x="252" y="991"/>
      <point x="211" y="1010"/>
      <point x="162" y="1010" type="curve" smooth="yes"/>
      <point x="43" y="1010"/>
      <point x="-20" y="932"/>
      <point x="-20" y="821" type="curve" smooth="yes"/>
      <point x="-20" y="694"/>
      <point x="57" y="621"/>
      <point x="217" y="621" type="curve" smooth="yes"/>
      <point x="283" y="621" type="line"/>
    </contour>
    <contour>
      <point x="215" y="743" type="line" smooth="yes"/>
      <point x="143" y="743"/>
      <point x="102" y="766"/>
      <point x="102" y="825" type="curve" smooth="yes"/>
      <point x="102" y="868"/>
      <point x="127" y="897"/>
      <point x="176" y="897" type="curve" smooth="yes"/>
      <point x="254" y="897"/>
      <point x="283" y="831"/>
      <point x="283" y="760" type="curve" smooth="yes"/>
      <point x="283" y="743" type="line"/>
    </contour>
  </outline>
</glyph>
<glyph name="uni0273" format="2">
  <advance width="934"/>
  <unicode hex="0273"/>
  <anchor x="467" y="-492" name="bottom"/>
  <anchor x="467" y="1100" name="top"/>
  <anchor x="856" y="1100" name="topright"/>
  <outline>
    <contour>
      <point x="805" y="-209" type="curve" smooth="yes"/>
      <point x="805" y="745" type="line" smooth="yes"/>
      <point x="805" y="999"/>
      <point x="713" y="1120"/>
      <point x="537" y="1120" type="curve" smooth="yes"/>
      <point x="432" y="1120"/>
      <point x="342" y="1059"/>
      <point x="295" y="950" type="curve"/>
      <point x="285" y="950" type="line"/>
      <point x="266" y="1100" type="line"/>
      <point x="133" y="1100" type="line"/>
      <point x="133" y="0" type="line"/>
      <point x="299" y="0" type="line"/>
      <point x="299" y="571" type="line" smooth="yes"/>
      <point x="299" y="854"/>
      <point x="358" y="973"/>
      <point x="502" y="973" type="curve" smooth="yes"/>
      <point x="598" y="973"/>
      <point x="639" y="885"/>
      <point x="639" y="713" type="curve" smooth="yes"/>
      <point x="639" y="-209" type="line" smooth="yes"/>
      <point x="639" y="-408"/>
      <point x="700" y="-492"/>
      <point x="842" y="-492" type="curve" smooth="yes"/>
      <point x="897" y="-492"/>
      <point x="948" y="-479"/>
      <point x="991" y="-459" type="curve"/>
      <point x="991" y="-317" type="line"/>
      <point x="971" y="-330"/>
      <point x="922" y="-342"/>
      <point x="885" y="-342" type="curve" smooth="yes"/>
      <point x="827" y="-342"/>
      <point x="805" y="-307"/>
    </contour>
  </outline>
</glyph>
<glyph name="rfishhookreversed" format="2">
  <advance width="608"/>
  <unicode hex="027F"/>
  <anchor x="305" y="-492" name="bottom"/>
  <anchor x="305" y="1100" name="top"/>
  <outline>
    <contour>
      <point x="127" y="1120" type="curve" smooth="yes"/>
      <point x="90" y="1120"/>
      <point x="49" y="1114"/>
      <point x="16" y="1106" type="curve"/>
      <point x="41" y="948" type="line"/>
      <point x="66" y="958"/>
      <point x="92" y="963"/>
      <point x="123" y="963" type="curve" smooth="yes"/>
      <point x="264" y="963"/>
      <point x="309" y="887"/>
      <point x="309" y="657" type="curve" smooth="yes"/>
      <point x="309" y="-492" type="line"/>
      <point x="475" y="-492" type="line"/>
      <point x="475" y="674" type="line" smooth="yes"/>
      <point x="475" y="971"/>
      <point x="393" y="1120"/>
    </contour>
  </outline>
</glyph>
<glyph name="uni0288" format="2">
  <advance width="530"/>
  <unicode hex="0288"/>
  <anchor x="266" y="-492" name="bottom"/>
  <anchor x="266" y="1348" name="top"/>
  <anchor x="487" y="1348" name="topright"/>
  <outline>
    <contour>
      <point x="403" y="-344" type="curve" smooth="yes"/>
      <point x="324" y="-344"/>
      <point x="303" y="-289"/>
      <point x="303" y="-178" type="curve" smooth="yes"/>
      <point x="303" y="961" type="line"/>
      <point x="487" y="961" type="line"/>
      <point x="487" y="1100" type="line"/>
      <point x="303" y="1100" type="line"/>
      <point x="303" y="1348" type="line"/>
      <point x="190" y="1348" type="line"/>
      <point x="145" y="1096" type="line"/>
      <point x="35" y="1051" type="line"/>
      <point x="35" y="961" type="line"/>
      <point x="137" y="961" type="line"/>
      <point x="137" y="-199" type="line" smooth="yes"/>
      <point x="137" y="-395"/>
      <point x="203" y="-492"/>
      <point x="348" y="-492" type="curve" smooth="yes"/>
      <point x="410" y="-492"/>
      <point x="459" y="-479"/>
      <point x="502" y="-459" type="curve"/>
      <point x="502" y="-324" type="line"/>
      <point x="469" y="-336"/>
      <point x="436" y="-344"/>
    </contour>
  </outline>
</glyph>
<glyph name="uni028F" format="2">
  <advance width="727"/>
  <unicode hex="028F"/>
  <anchor x="365" y="0" name="bottom"/>
  <anchor x="365" y="1100" name="top"/>
  <outline>
    <contour>
      <point x="719" y="1100" type="line"/>
      <point x="541" y="1100" type="line"/>
      <point x="362" y="717" type="line"/>
      <point x="186" y="1100" type="line"/>
      <point x="8" y="1100" type="line"/>
      <point x="279" y="541" type="line"/>
      <point x="279" y="0" type="line"/>
      <point x="444" y="0" type="line"/>
      <point x="444" y="541" type="line"/>
    </contour>
  </outline>
</glyph>
<glyph name="circumflex" format="2">
  <advance width="700"/>
  <unicode hex="02C6"/>
  <outline>
    <contour>
      <point x="428" y="1569" type="curve"/>
      <point x="270" y="1569" type="line"/>
      <point x="231" y="1481"/>
      <point x="156" y="1362"/>
      <point x="82" y="1262" type="curve"/>
      <point x="82" y="1241" type="line"/>
      <point x="174" y="1241" type="line"/>
      <point x="223" y="1288"/>
      <point x="287" y="1362"/>
      <point x="350" y="1434" type="curve"/>
      <point x="412" y="1362"/>
      <point x="469" y="1294"/>
      <point x="526" y="1241" type="curve"/>
      <point x="618" y="1241" type="line"/>
      <point x="618" y="1262" type="line"/>
      <point x="551" y="1352"/>
      <point x="471" y="1477"/>
    </contour>
  </outline>
</glyph>
<glyph name="caron" format="2">
  <advance width="700"/>
  <unicode hex="02C7"/>
  <outline>
    <contour>
      <point x="270" y="1241" type="curve"/>
      <point x="428" y="1241" type="line"/>
      <point x="471" y="1335"/>
      <point x="557" y="1464"/>
      <point x="618" y="1548" type="curve"/>
      <point x="618" y="1569" type="line"/>
      <point x="526" y="1569" type="line"/>
      <point x="457" y="1497"/>
      <point x="420" y="1458"/>
      <point x="350" y="1376" type="curve"/>
      <point x="289" y="1446"/>
      <point x="225" y="1522"/>
      <point x="174" y="1569" type="curve"/>
      <point x="82" y="1569" type="line"/>
      <point x="82" y="1548" type="line"/>
      <point x="154" y="1452"/>
      <point x="227" y="1331"/>
    </contour>
  </outline>
</glyph>
<glyph name="breve" format="2">
  <advance width="664"/>
  <unicode hex="02D8"/>
  <outline>
    <contour>
      <point x="582" y="1518" type="curve"/>
      <point x="475" y="1518" type="line"/>
      <point x="465" y="1417"/>
      <point x="414" y="1370"/>
      <point x="332" y="1370" type="curve" smooth="yes"/>
      <point x="248" y="1370"/>
      <point x="199" y="1419"/>
      <point x="190" y="1518" type="curve"/>
      <point x="82" y="1518" type="line"/>
      <point x="88" y="1335"/>
      <point x="178" y="1243"/>
      <point x="328" y="1243" type="curve" smooth="yes"/>
      <point x="479" y="1243"/>
      <point x="580" y="1348"/>
    </contour>
  </outline>
</glyph>
<glyph name="ring" format="2">
  <advance width="594"/>
  <unicode hex="02DA"/>
  <outline>
    <contour>
      <point x="297" y="1247" type="curve" smooth="yes"/>
      <point x="428" y="1247"/>
      <point x="512" y="1331"/>
      <point x="512" y="1456" type="curve" smooth="yes"/>
      <point x="512" y="1579"/>
      <point x="422" y="1659"/>
      <point x="297" y="1659" type="curve" smooth="yes"/>
      <point x="164" y="1659"/>
      <point x="82" y="1577"/>
      <point x="82" y="1452" type="curve" smooth="yes"/>
      <point x="82" y="1329"/>
      <point x="164" y="1247"/>
    </contour>
    <contour>
      <point x="299" y="1348" type="curve" smooth="yes"/>
      <point x="225" y="1348"/>
      <point x="188" y="1389"/>
      <point x="188" y="1452" type="curve" smooth="yes"/>
      <point x="188" y="1516"/>
      <point x="233" y="1561"/>
      <point x="299" y="1561" type="curve" smooth="yes"/>
      <point x="369" y="1561"/>
      <point x="408" y="1516"/>
      <point x="408" y="1452" type="curve" smooth="yes"/>
      <point x="408" y="1389"/>
      <point x="362" y="1348"/>
    </contour>
  </outline>
</glyph>
<glyph name="hookretroflexbelowcomb" format="2">
  <unicode hex="0322"/>
  <anchor x="143" y="0" name="_bottom"/>
  <anchor x="143" y="-485" name="bottom"/>
  <outline>
    <contour>
      <point x="182" y="-485" type="curve"/>
      <point x="221" y="-485"/>
      <point x="260" y="-473"/>
      <point x="287" y="-463" type="curve"/>
      <point x="287" y="-334" type="line"/>
      <point x="268" y="-340"/>
      <point x="244" y="-352"/>
      <point x="217" y="-352" type="curve"/>
      <point x="172" y="-352"/>
      <point x="143" y="-322"/>
      <point x="143" y="-238" type="curve" smooth="yes"/>
      <point x="143" y="84" type="line"/>
      <point x="0" y="84" type="line"/>
      <point x="0" y="-250" type="line" smooth="yes"/>
      <point x="0" y="-418"/>
      <point x="70" y="-485"/>
    </contour>
  </outline>
</glyph>
<glyph name="dotbelowcomb" format="2">
  <unicode hex="0323"/>
  <anchor x="-588" y="0" name="_bottom"/>
  <anchor x="-584" y="-367" name="bottom"/>
  <outline>
    <contour>
      <point x="-586" y="-367" type="curve" smooth="yes"/>
      <point x="-524" y="-367"/>
      <point x="-492" y="-326"/>
      <point x="-492" y="-250" type="curve" smooth="yes"/>
      <point x="-492" y="-174"/>
      <point x="-522" y="-131"/>
      <point x="-586" y="-131" type="curve" smooth="yes"/>
      <point x="-649" y="-131"/>
      <point x="-684" y="-172"/>
      <point x="-684" y="-250" type="curve" smooth="yes"/>
      <point x="-684" y="-326"/>
      <point x="-647" y="-367"/>
    </contour>
  </outline>
</glyph>
<glyph name="xabovecomb" format="2">
  <unicode hex="033D"/>
  <anchor x="-2" y="1100" name="_top"/>
  <anchor x="4" y="1573" name="top"/>
  <outline>
    <contour>
      <point x="-195" y="1499" type="line"/>
      <point x="-76" y="1378" type="line"/>
      <point x="-195" y="1255" type="line"/>
      <point x="-123" y="1184" type="line"/>
      <point x="0" y="1305" type="line"/>
      <point x="119" y="1184" type="line"/>
      <point x="193" y="1255" type="line"/>
      <point x="70" y="1378" type="line"/>
      <point x="193" y="1499" type="line"/>
      <point x="119" y="1573" type="line"/>
      <point x="0" y="1450" type="line"/>
      <point x="-123" y="1573" type="line"/>
    </contour>
  </outline>
</glyph>
<glyph name="tildeverticalcomb" format="2">
  <unicode hex="033E"/>
  <anchor x="-27" y="1100" name="_top"/>
  <anchor x="-23" y="1774" name="top"/>
  <outline>
    <contour>
      <point x="-123" y="1604" type="curve" smooth="yes"/>
      <point x="-123" y="1491"/>
      <point x="-25" y="1438"/>
      <point x="-25" y="1354" type="curve" smooth="yes"/>
      <point x="-25" y="1305"/>
      <point x="-47" y="1268"/>
      <point x="-117" y="1257" type="curve"/>
      <point x="-117" y="1180" type="line"/>
      <point x="6" y="1190"/>
      <point x="70" y="1253"/>
      <point x="70" y="1356" type="curve" smooth="yes"/>
      <point x="70" y="1470"/>
      <point x="-27" y="1528"/>
      <point x="-27" y="1599" type="curve" smooth="yes"/>
      <point x="-27" y="1655"/>
      <point x="-4" y="1683"/>
      <point x="66" y="1690" type="curve"/>
      <point x="66" y="1774" type="line"/>
      <point x="-59" y="1763"/>
      <point x="-123" y="1702"/>
    </contour>
  </outline>
</glyph>
<glyph name="almostequaltoabovecomb" format="2">
  <unicode hex="034C"/>
  <anchor x="-2" y="1100" name="_top"/>
  <anchor x="2" y="1733" name="top"/>
  <outline>
    <contour>
      <point x="117" y="1530" type="curve" smooth="yes"/>
      <point x="215" y="1530"/>
      <point x="264" y="1599"/>
      <point x="268" y="1733" type="curve"/>
      <point x="182" y="1733" type="line"/>
      <point x="178" y="1663"/>
      <point x="166" y="1632"/>
      <point x="121" y="1632" type="curve" smooth="yes"/>
      <point x="57" y="1632"/>
      <point x="-16" y="1733"/>
      <point x="-115" y="1733" type="curve" smooth="yes"/>
      <point x="-217" y="1733"/>
      <point x="-264" y="1657"/>
      <point x="-272" y="1528" type="curve"/>
      <point x="-184" y="1528" type="line"/>
      <point x="-178" y="1602"/>
      <point x="-162" y="1630"/>
      <point x="-119" y="1630" type="curve" smooth="yes"/>
      <point x="-59" y="1630"/>
      <point x="20" y="1530"/>
    </contour>
    <contour>
      <point x="117" y="1272" type="curve" smooth="yes"/>
      <point x="215" y="1272"/>
      <point x="264" y="1343"/>
      <point x="268" y="1477" type="curve"/>
      <point x="182" y="1477" type="line"/>
      <point x="178" y="1405"/>
      <point x="166" y="1374"/>
      <point x="121" y="1374" type="curve" smooth="yes"/>
      <point x="57" y="1374"/>
      <point x="-16" y="1475"/>
      <point x="-115" y="1475" type="curve" smooth="yes"/>
      <point x="-217" y="1475"/>
      <point x="-264" y="1401"/>
      <point x="-272" y="1272" type="curve"/>
      <point x="-184" y="1272" type="line"/>
      <point x="-178" y="1343"/>
      <point x="-162" y="1372"/>
      <point x="-119" y="1372" type="curve" smooth="yes"/>
      <point x="-59" y="1372"/>
      <point x="20" y="1272"/>
    </contour>
  </outline>
</glyph>
<glyph name="arrowheadrightbelowcomb" format="2">
  <unicode hex="0355"/>
  <anchor x="-2" y="0" name="_bottom"/>
  <anchor x="2" y="-492" name="bottom"/>
  <outline>
    <contour>
      <point x="-104" y="-80" type="curve"/>
      <point x="-119" y="-80" type="line"/>
      <point x="-119" y="-158" type="line"/>
      <point x="-78" y="-203"/>
      <point x="-33" y="-242"/>
      <point x="20" y="-287" type="curve"/>
      <point x="-31" y="-328"/>
      <point x="-78" y="-369"/>
      <point x="-119" y="-414" type="curve"/>
      <point x="-119" y="-492" type="line"/>
      <point x="-104" y="-492" type="line"/>
      <point x="-31" y="-422"/>
      <point x="53" y="-362"/>
      <point x="115" y="-334" type="curve"/>
      <point x="115" y="-242" type="line"/>
      <point x="51" y="-205"/>
      <point x="-49" y="-129"/>
    </contour>
  </outline>
</glyph>
<glyph name="arrowdoublerightbelowcomb" format="2">
  <unicode hex="0362"/>
  <anchor x="41" y="0" name="_bottom"/>
  <anchor x="45" y="-430" name="bottom"/>
  <outline>
    <contour>
      <point x="-520" y="-211" type="line"/>
      <point x="-520" y="-309" type="line"/>
      <point x="422" y="-309" type="line"/>
      <point x="422" y="-430" type="line"/>
      <point x="602" y="-262" type="line"/>
      <point x="422" y="-90" type="line"/>
      <point x="422" y="-211" type="line"/>
    </contour>
  </outline>
</glyph>
<glyph name="uni0374" format="2">
  <advance width="408"/>
  <unicode hex="0374"/>
  <outline>
    <contour>
      <point x="55" y="1159" type="curve"/>
      <point x="55" y="1135" type="line"/>
      <point x="141" y="1135" type="line"/>
      <point x="217" y="1208"/>
      <point x="301" y="1337"/>
      <point x="352" y="1442" type="curve"/>
      <point x="352" y="1462" type="line"/>
      <point x="182" y="1462" type="line"/>
      <point x="156" y="1368"/>
      <point x="102" y="1251"/>
    </contour>
  </outline>
</glyph>
<glyph name="Gamma" format="2">
  <advance width="752"/>
  <unicode hex="0393"/>
  <anchor x="377" y="0" name="bottom"/>
  <anchor x="449" y="1462" name="top"/>
  <outline>
    <contour>
      <point x="733" y="1462" type="line"/>
      <point x="150" y="1462" type="line"/>
      <point x="150" y="0" type="line"/>
      <point x="322" y="0" type="line"/>
      <point x="322" y="1307" type="line"/>
      <point x="733" y="1307" type="line"/>
    </contour>
  </outline>
</glyph>
<glyph name="Psi" format="2">
  <advance width="1300"/>
  <unicode hex="03A8"/>
  <anchor x="651" y="0" name="bottom"/>
  <anchor x="651" y="1462" name="top"/>
  <outline>
    <contour>
      <point x="1171" y="1462" type="line"/>
      <point x="999" y="1462" type="line"/>
      <point x="999" y="981" type="line" smooth="yes"/>
      <point x="999" y="696"/>
      <point x="930" y="592"/>
      <point x="735" y="590" type="curve"/>
      <point x="735" y="1462" type="line"/>
      <point x="567" y="1462" type="line"/>
      <point x="567" y="590" type="line"/>
      <point x="344" y="590"/>
      <point x="303" y="752"/>
      <point x="303" y="981" type="curve" smooth="yes"/>
      <point x="303" y="1462" type="line"/>
      <point x="131" y="1462" type="line"/>
      <point x="131" y="983" type="line" smooth="yes"/>
      <point x="131" y="631"/>
      <point x="244" y="436"/>
      <point x="567" y="436" type="curve"/>
      <point x="567" y="0" type="line"/>
      <point x="735" y="0" type="line"/>
      <point x="735" y="436" type="line"/>
      <point x="1059" y="436"/>
      <point x="1171" y="635"/>
      <point x="1171" y="993" type="curve" smooth="yes"/>
    </contour>
  </outline>
</glyph>
<glyph name="Omega" format="2">
  <advance width="1141"/>
  <unicode hex="03A9"/>
  <anchor x="571" y="0" name="bottom"/>
  <anchor x="571" y="1462" name="top"/>
  <anchor x="41" y="1462" name="topleft"/>
  <outline>
    <contour>
      <point x="573" y="1327" type="curve" smooth="yes"/>
      <point x="766" y="1327"/>
      <point x="854" y="1145"/>
      <point x="854" y="813" type="curve" smooth="yes"/>
      <point x="854" y="510"/>
      <point x="799" y="295"/>
      <point x="645" y="137" type="curve"/>
      <point x="645" y="0" type="line"/>
      <point x="1081" y="0" type="line"/>
      <point x="1081" y="156" type="line"/>
      <point x="815" y="156" type="line"/>
      <point x="948" y="287"/>
      <point x="1030" y="504"/>
      <point x="1030" y="827" type="curve" smooth="yes"/>
      <point x="1030" y="1257"/>
      <point x="870" y="1483"/>
      <point x="573" y="1483" type="curve" smooth="yes"/>
      <point x="274" y="1483"/>
      <point x="106" y="1268"/>
      <point x="106" y="825" type="curve" smooth="yes"/>
      <point x="106" y="510"/>
      <point x="188" y="291"/>
      <point x="322" y="156" type="curve"/>
      <point x="57" y="156" type="line"/>
      <point x="57" y="0" type="line"/>
      <point x="492" y="0" type="line"/>
      <point x="492" y="137" type="line"/>
      <point x="348" y="291"/>
      <point x="285" y="514"/>
      <point x="285" y="811" type="curve" smooth="yes"/>
      <point x="285" y="1159"/>
      <point x="385" y="1327"/>
    </contour>
  </outline>
</glyph>
<glyph name="alpha" format="2">
  <advance width="977"/>
  <unicode hex="03B1"/>
  <anchor x="510" y="0" name="bottom"/>
  <anchor x="520" y="1100" name="top"/>
  <outline>
    <contour>
      <point x="453" y="123" type="curve" smooth="yes"/>
      <point x="317" y="123"/>
      <point x="256" y="252"/>
      <point x="256" y="545" type="curve" smooth="yes"/>
      <point x="256" y="821"/>
      <point x="313" y="973"/>
      <point x="446" y="973" type="curve" smooth="yes"/>
      <point x="588" y="973"/>
      <point x="653" y="840"/>
      <point x="653" y="547" type="curve" smooth="yes"/>
      <point x="653" y="524" type="line" smooth="yes"/>
      <point x="653" y="264"/>
      <point x="586" y="123"/>
    </contour>
    <contour>
      <point x="408" y="-20" type="curve" smooth="yes"/>
      <point x="514" y="-20"/>
      <point x="602" y="41"/>
      <point x="657" y="154" type="curve"/>
      <point x="670" y="154" type="line"/>
      <point x="694" y="29"/>
      <point x="754" y="-20"/>
      <point x="868" y="-20" type="curve" smooth="yes"/>
      <point x="897" y="-20"/>
      <point x="940" y="-12"/>
      <point x="956" y="-2" type="curve"/>
      <point x="956" y="131" type="line"/>
      <point x="938" y="125"/>
      <point x="918" y="121"/>
      <point x="895" y="121" type="curve" smooth="yes"/>
      <point x="846" y="121"/>
      <point x="821" y="168"/>
      <point x="821" y="264" type="curve" smooth="yes"/>
      <point x="821" y="715" type="line"/>
      <point x="821" y="874"/>
      <point x="838" y="1012"/>
      <point x="864" y="1100" type="curve"/>
      <point x="731" y="1100" type="line"/>
      <point x="709" y="1061"/>
      <point x="688" y="997"/>
      <point x="678" y="942" type="curve"/>
      <point x="668" y="942" type="line"/>
      <point x="612" y="1061"/>
      <point x="532" y="1120"/>
      <point x="418" y="1120" type="curve" smooth="yes"/>
      <point x="211" y="1120"/>
      <point x="88" y="926"/>
      <point x="88" y="547" type="curve" smooth="yes"/>
      <point x="88" y="174"/>
      <point x="203" y="-20"/>
    </contour>
  </outline>
</glyph>
<glyph name="zeta" format="2">
  <advance width="709"/>
  <unicode hex="03B6"/>
  <anchor x="354" y="-406" name="bottom"/>
  <anchor x="354" y="1556" name="top"/>
  <outline>
    <contour>
      <point x="664" y="-115" type="curve" smooth="yes"/>
      <point x="664" y="49"/>
      <point x="551" y="115"/>
      <point x="444" y="164" type="curve" smooth="yes"/>
      <point x="285" y="240"/>
      <point x="258" y="315"/>
      <point x="258" y="475" type="curve" smooth="yes"/>
      <point x="258" y="829"/>
      <point x="436" y="1149"/>
      <point x="668" y="1436" type="curve"/>
      <point x="668" y="1556" type="line"/>
      <point x="123" y="1556" type="line"/>
      <point x="123" y="1413" type="line"/>
      <point x="313" y="1413" type="line"/>
      <point x="389" y="1413"/>
      <point x="451" y="1417"/>
      <point x="498" y="1425" type="curve"/>
      <point x="236" y="1081"/>
      <point x="88" y="807"/>
      <point x="88" y="461" type="curve" smooth="yes"/>
      <point x="88" y="205"/>
      <point x="158" y="106"/>
      <point x="330" y="27" type="curve" smooth="yes"/>
      <point x="457" y="-29"/>
      <point x="498" y="-76"/>
      <point x="498" y="-145" type="curve" smooth="yes"/>
      <point x="498" y="-205"/>
      <point x="446" y="-313"/>
      <point x="379" y="-406" type="curve"/>
      <point x="547" y="-406" type="line"/>
      <point x="608" y="-322"/>
      <point x="664" y="-203"/>
    </contour>
  </outline>
</glyph>
<glyph name="lambda" format="2">
  <advance width="825"/>
  <unicode hex="03BB"/>
  <anchor x="414" y="0" name="bottom"/>
  <anchor x="414" y="1571" name="top"/>
  <outline>
    <contour>
      <point x="16" y="0" type="line"/>
      <point x="186" y="0" type="line"/>
      <point x="369" y="707" type="line" smooth="yes"/>
      <point x="379" y="748"/>
      <point x="385" y="788"/>
      <point x="389" y="829" type="curve"/>
      <point x="397" y="829" type="line"/>
      <point x="408" y="764"/>
      <point x="420" y="686"/>
      <point x="436" y="616" type="curve" smooth="yes"/>
      <point x="518" y="244" type="line" smooth="yes"/>
      <point x="561" y="63"/>
      <point x="623" y="-20"/>
      <point x="748" y="-20" type="curve" smooth="yes"/>
      <point x="780" y="-20"/>
      <point x="811" y="-16"/>
      <point x="836" y="-6" type="curve"/>
      <point x="836" y="139" type="line"/>
      <point x="819" y="133"/>
      <point x="799" y="129"/>
      <point x="776" y="129" type="curve" smooth="yes"/>
      <point x="721" y="129"/>
      <point x="694" y="170"/>
      <point x="670" y="274" type="curve" smooth="yes"/>
      <point x="442" y="1286" type="line" smooth="yes"/>
      <point x="391" y="1485"/>
      <point x="319" y="1571"/>
      <point x="180" y="1571" type="curve" smooth="yes"/>
      <point x="145" y="1571"/>
      <point x="115" y="1565"/>
      <point x="88" y="1556" type="curve"/>
      <point x="88" y="1415" type="line"/>
      <point x="106" y="1423"/>
      <point x="129" y="1427"/>
      <point x="156" y="1427" type="curve" smooth="yes"/>
      <point x="229" y="1427"/>
      <point x="258" y="1370"/>
      <point x="281" y="1270" type="curve" smooth="yes"/>
      <point x="319" y="1083" type="line"/>
    </contour>
  </outline>
</glyph>
<glyph name="phi" format="2">
  <advance width="1184"/>
  <unicode hex="03C6"/>
  <anchor x="592" y="-492" name="bottom"/>
  <anchor x="592" y="1100" name="top"/>
  <outline>
    <contour>
      <point x="287" y="1110" type="line"/>
      <point x="154" y="948"/>
      <point x="88" y="764"/>
      <point x="88" y="553" type="curve" smooth="yes"/>
      <point x="88" y="205"/>
      <point x="233" y="6"/>
      <point x="508" y="-16" type="curve"/>
      <point x="508" y="-492" type="line"/>
      <point x="670" y="-492" type="line"/>
      <point x="670" y="-16" type="line"/>
      <point x="958" y="12"/>
      <point x="1100" y="256"/>
      <point x="1100" y="590" type="curve" smooth="yes"/>
      <point x="1100" y="874"/>
      <point x="995" y="1120"/>
      <point x="772" y="1120" type="curve" smooth="yes"/>
      <point x="594" y="1120"/>
      <point x="508" y="1001"/>
      <point x="508" y="754" type="curve" smooth="yes"/>
      <point x="508" y="127" type="line"/>
      <point x="342" y="152"/>
      <point x="258" y="295"/>
      <point x="258" y="551" type="curve" smooth="yes"/>
      <point x="258" y="731"/>
      <point x="311" y="897"/>
      <point x="412" y="1026" type="curve"/>
    </contour>
    <contour>
      <point x="770" y="977" type="curve"/>
      <point x="860" y="981"/>
      <point x="930" y="825"/>
      <point x="928" y="588" type="curve"/>
      <point x="928" y="317"/>
      <point x="825" y="145"/>
      <point x="668" y="127" type="curve"/>
      <point x="668" y="754" type="line" smooth="yes"/>
      <point x="668" y="907"/>
      <point x="694" y="977"/>
    </contour>
  </outline>
</glyph>
<glyph name="uni03D6" format="2">
  <advance width="1167"/>
  <unicode hex="03D6"/>
  <outline>
    <contour>
      <point x="1135" y="1100" type="line"/>
      <point x="119" y="1100" type="line"/>
      <point x="18" y="1026" type="line"/>
      <point x="18" y="956" type="line"/>
      <point x="195" y="956" type="line"/>
      <point x="145" y="797"/>
      <point x="121" y="659"/>
      <point x="121" y="498" type="curve" smooth="yes"/>
      <point x="121" y="168"/>
      <point x="219" y="-20"/>
      <point x="389" y="-20" type="curve" smooth="yes"/>
      <point x="494" y="-20"/>
      <point x="551" y="35"/>
      <point x="580" y="152" type="curve"/>
      <point x="588" y="152" type="line"/>
      <point x="616" y="33"/>
      <point x="676" y="-20"/>
      <point x="778" y="-20" type="curve" smooth="yes"/>
      <point x="946" y="-20"/>
      <point x="1044" y="164"/>
      <point x="1044" y="498" type="curve" smooth="yes"/>
      <point x="1044" y="655"/>
      <point x="1020" y="793"/>
      <point x="973" y="956" type="curve"/>
      <point x="1135" y="956" type="line"/>
    </contour>
    <contour>
      <point x="811" y="956" type="line"/>
      <point x="858" y="797"/>
      <point x="881" y="670"/>
      <point x="881" y="506" type="curve" smooth="yes"/>
      <point x="881" y="258"/>
      <point x="838" y="131"/>
      <point x="762" y="131" type="curve" smooth="yes"/>
      <point x="688" y="131"/>
      <point x="664" y="223"/>
      <point x="664" y="469" type="curve" smooth="yes"/>
      <point x="664" y="672" type="line"/>
      <point x="504" y="672" type="line"/>
      <point x="504" y="469" type="line" smooth="yes"/>
      <point x="504" y="229"/>
      <point x="481" y="131"/>
      <point x="403" y="131" type="curve" smooth="yes"/>
      <point x="326" y="131"/>
      <point x="287" y="256"/>
      <point x="287" y="508" type="curve" smooth="yes"/>
      <point x="287" y="678"/>
      <point x="307" y="793"/>
      <point x="356" y="956" type="curve"/>
    </contour>
  </outline>
</glyph>
<glyph name="uni03DA" format="2">
  <advance width="913"/>
  <unicode hex="03DA"/>
  <anchor x="457" y="0" name="bottom"/>
  <anchor x="457" y="1462" name="top"/>
  <outline>
    <contour>
      <point x="592" y="1485" type="curve" smooth="yes"/>
      <point x="262" y="1485"/>
      <point x="102" y="1214"/>
      <point x="102" y="881" type="curve" smooth="yes"/>
      <point x="102" y="530"/>
      <point x="258" y="313"/>
      <point x="512" y="279" type="curve"/>
      <point x="512" y="2" type="line"/>
      <point x="668" y="2" type="line"/>
      <point x="668" y="428" type="line"/>
      <point x="608" y="428" type="line" smooth="yes"/>
      <point x="408" y="428"/>
      <point x="281" y="600"/>
      <point x="281" y="879" type="curve" smooth="yes"/>
      <point x="281" y="1114"/>
      <point x="373" y="1329"/>
      <point x="598" y="1329" type="curve" smooth="yes"/>
      <point x="674" y="1329"/>
      <point x="741" y="1311"/>
      <point x="803" y="1282" type="curve"/>
      <point x="864" y="1425" type="line"/>
      <point x="780" y="1464"/>
      <point x="690" y="1485"/>
    </contour>
  </outline>
</glyph>
<glyph name="uni03E1" format="2">
  <advance width="705"/>
  <unicode hex="03E1"/>
  <anchor x="352" y="-492" name="bottom"/>
  <anchor x="352" y="1567" name="top"/>
  <outline>
    <contour>
      <point x="330" y="-492" type="curve"/>
      <point x="504" y="-492" type="line"/>
      <point x="575" y="-295"/>
      <point x="618" y="-49"/>
      <point x="618" y="242" type="curve" smooth="yes"/>
      <point x="618" y="928"/>
      <point x="332" y="1446"/>
      <point x="-156" y="1567" type="curve"/>
      <point x="-100" y="1378" type="line"/>
      <point x="57" y="1317"/>
      <point x="197" y="1180"/>
      <point x="283" y="995" type="curve"/>
      <point x="6" y="850" type="line"/>
      <point x="39" y="731" type="line"/>
      <point x="336" y="883" type="line"/>
      <point x="371" y="801"/>
      <point x="401" y="696"/>
      <point x="418" y="596" type="curve"/>
      <point x="102" y="432" type="line"/>
      <point x="135" y="313" type="line"/>
      <point x="436" y="473" type="line"/>
      <point x="444" y="406"/>
      <point x="449" y="317"/>
      <point x="449" y="242" type="curve" smooth="yes"/>
      <point x="449" y="-41"/>
      <point x="401" y="-283"/>
    </contour>
  </outline>
</glyph>
<glyph name="uni03F0" format="2">
  <advance width="1001"/>
  <unicode hex="03F0"/>
  <anchor x="502" y="0" name="bottom"/>
  <anchor x="502" y="1100" name="top"/>
  <outline>
    <contour>
      <point x="72" y="0" type="curve"/>
      <point x="250" y="0" type="line"/>
      <point x="664" y="711" type="line"/>
      <point x="641" y="604"/>
      <point x="621" y="487"/>
      <point x="621" y="344" type="curve"/>
      <point x="621" y="72"/>
      <point x="723" y="-20"/>
      <point x="854" y="-20" type="curve" smooth="yes"/>
      <point x="907" y="-20"/>
      <point x="956" y="-12"/>
      <point x="983" y="4" type="curve"/>
      <point x="971" y="141" type="line"/>
      <point x="950" y="131"/>
      <point x="924" y="125"/>
      <point x="895" y="125" type="curve" smooth="yes"/>
      <point x="821" y="125"/>
      <point x="780" y="205"/>
      <point x="780" y="414" type="curve" smooth="yes"/>
      <point x="780" y="668"/>
      <point x="846" y="901"/>
      <point x="930" y="1098" type="curve"/>
      <point x="748" y="1098" type="line"/>
      <point x="326" y="375" type="line"/>
      <point x="350" y="465"/>
      <point x="371" y="578"/>
      <point x="371" y="758" type="curve" smooth="yes"/>
      <point x="371" y="1024"/>
      <point x="268" y="1120"/>
      <point x="139" y="1120" type="curve" smooth="yes"/>
      <point x="84" y="1120"/>
      <point x="37" y="1112"/>
      <point x="10" y="1098" type="curve"/>
      <point x="33" y="958" type="line"/>
      <point x="51" y="971"/>
      <point x="72" y="977"/>
      <point x="96" y="977" type="curve" smooth="yes"/>
      <point x="170" y="977"/>
      <point x="211" y="881"/>
      <point x="211" y="672" type="curve" smooth="yes"/>
      <point x="211" y="414"/>
      <point x="143" y="164"/>
    </contour>
  </outline>
</glyph>
<glyph name="uni03FA" format="2">
  <advance width="1378"/>
  <unicode hex="03FA"/>
  <anchor x="690" y="0" name="bottom"/>
  <anchor x="690" y="1462" name="top"/>
  <outline>
    <contour>
      <point x="150" y="0" type="line"/>
      <point x="313" y="0" type="line"/>
      <point x="313" y="870" type="line" smooth="yes"/>
      <point x="313" y="1026"/>
      <point x="311" y="1110"/>
      <point x="303" y="1237" type="curve"/>
      <point x="309" y="1237" type="line"/>
      <point x="614" y="469" type="line"/>
      <point x="754" y="469" type="line"/>
      <point x="1065" y="1243" type="line"/>
      <point x="1071" y="1243" type="line"/>
      <point x="1065" y="1128"/>
      <point x="1061" y="1024"/>
      <point x="1061" y="883" type="curve"/>
      <point x="1061" y="0" type="line"/>
      <point x="1231" y="0" type="line"/>
      <point x="1231" y="1462" type="line"/>
      <point x="1008" y="1462" type="line"/>
      <point x="692" y="670" type="line"/>
      <point x="688" y="670" type="line"/>
      <point x="369" y="1462" type="line"/>
      <point x="150" y="1462" type="line"/>
    </contour>
  </outline>
</glyph>
<glyph name="uni03FB" format="2">
  <advance width="1128"/>
  <unicode hex="03FB"/>
  <anchor x="565" y="-492" name="bottom"/>
  <anchor x="565" y="1100" name="top"/>
  <outline>
    <contour>
      <point x="133" y="-492" type="line"/>
      <point x="289" y="-492" type="line"/>
      <point x="289" y="711" type="line" smooth="yes"/>
      <point x="289" y="770"/>
      <point x="289" y="850"/>
      <point x="285" y="901" type="curve"/>
      <point x="502" y="375" type="line"/>
      <point x="625" y="375" type="line"/>
      <point x="844" y="905" type="line"/>
      <point x="840" y="854"/>
      <point x="838" y="774"/>
      <point x="838" y="719" type="curve"/>
      <point x="838" y="0" type="line"/>
      <point x="997" y="0" type="line"/>
      <point x="997" y="1100" type="line"/>
      <point x="782" y="1100" type="line"/>
      <point x="565" y="561" type="line"/>
      <point x="344" y="1100" type="line"/>
      <point x="133" y="1100" type="line"/>
    </contour>
  </outline>
</glyph>
<glyph name="afii10048" format="2">
  <advance width="1493"/>
  <unicode hex="042E"/>
  <anchor x="748" y="0" name="bottom"/>
  <anchor x="748" y="1462" name="top"/>
  <outline>
    <contour>
      <point x="1391" y="733" type="curve" smooth="yes"/>
      <point x="1391" y="1221"/>
      <point x="1241" y="1483"/>
      <point x="963" y="1483" type="curve" smooth="yes"/>
      <point x="700" y="1483"/>
      <point x="555" y="1266"/>
      <point x="535" y="842" type="curve"/>
      <point x="322" y="842" type="line"/>
      <point x="322" y="1462" type="line"/>
      <point x="150" y="1462" type="line"/>
      <point x="150" y="0" type="line"/>
      <point x="322" y="0" type="line"/>
      <point x="322" y="686" type="line"/>
      <point x="532" y="686" type="line"/>
      <point x="545" y="225"/>
      <point x="696" y="-20"/>
      <point x="963" y="-20" type="curve" smooth="yes"/>
      <point x="1272" y="-20"/>
      <point x="1391" y="315"/>
    </contour>
    <contour>
      <point x="707" y="733" type="curve" smooth="yes"/>
      <point x="707" y="1124"/>
      <point x="795" y="1327"/>
      <point x="961" y="1327" type="curve" smooth="yes"/>
      <point x="1124" y="1327"/>
      <point x="1210" y="1133"/>
      <point x="1210" y="733" type="curve" smooth="yes"/>
      <point x="1210" y="338"/>
      <point x="1126" y="137"/>
      <point x="958" y="137" type="curve" smooth="yes"/>
      <point x="795" y="137"/>
      <point x="707" y="340"/>
    </contour>
  </outline>
</glyph>
<glyph name="afii10091" format="2">
  <advance width="1341"/>
  <unicode hex="0449"/>
  <anchor x="659" y="0" name="bottom"/>
  <anchor x="659" y="1100" name="top"/>
  <outline>
    <contour>
      <point x="1184" y="1100" type="line"/>
      <point x="1018" y="1100" type="line"/>
      <point x="1018" y="145" type="line"/>
      <point x="739" y="145" type="line"/>
      <point x="739" y="1100" type="line"/>
      <point x="575" y="1100" type="line"/>
      <point x="575" y="145" type="line"/>
      <point x="299" y="145" type="line"/>
      <point x="299" y="1100" type="line"/>
      <point x="133" y="1100" type="line"/>
      <point x="133" y="0" type="line"/>
      <point x="1141" y="0" type="line"/>
      <point x="1141" y="-383" type="line"/>
      <point x="1303" y="-383" type="line"/>
      <point x="1303" y="145" type="line"/>
      <point x="1184" y="145" type="line"/>
    </contour>
  </outline>
</glyph>
<glyph name="uni0469" format="2">
  <advance width="1288"/>
  <unicode hex="0469"/>
  <anchor x="846" y="0" name="bottom"/>
  <anchor x="846" y="1100" name="top"/>
  <outline>
    <contour>
      <point x="938" y="1100" type="line"/>
      <point x="745" y="1100" type="line"/>
      <point x="602" y="645" type="line"/>
      <point x="299" y="645" type="line"/>
      <point x="299" y="1100" type="line"/>
      <point x="133" y="1100" type="line"/>
      <point x="133" y="0" type="line"/>
      <point x="299" y="0" type="line"/>
      <point x="299" y="502" type="line"/>
      <point x="555" y="502" type="line"/>
      <point x="395" y="0" type="line"/>
      <point x="559" y="0" type="line"/>
      <point x="698" y="479" type="line"/>
      <point x="764" y="479" type="line"/>
      <point x="764" y="0" type="line"/>
      <point x="913" y="0" type="line"/>
      <point x="913" y="479" type="line"/>
      <point x="977" y="479" type="line"/>
      <point x="1118" y="0" type="line"/>
      <point x="1284" y="0" type="line"/>
    </contour>
    <contour>
      <point x="842" y="969" type="line"/>
      <point x="846" y="934"/>
      <point x="874" y="821"/>
      <point x="887" y="780" type="curve" smooth="yes"/>
      <point x="934" y="616" type="line"/>
      <point x="741" y="616" type="line"/>
      <point x="788" y="780" type="line"/>
      <point x="811" y="848"/>
      <point x="825" y="911"/>
      <point x="834" y="969" type="curve"/>
    </contour>
  </outline>
</glyph>
<glyph name="uni046B" format="2">
  <advance width="1038"/>
  <unicode hex="046B"/>
  <anchor x="520" y="0" name="bottom"/>
  <anchor x="520" y="1100" name="top"/>
  <outline>
    <contour>
      <point x="909" y="1100" type="line"/>
      <point x="125" y="1100" type="line"/>
      <point x="125" y="1006" type="line"/>
      <point x="371" y="637" type="line"/>
      <point x="209" y="616"/>
      <point x="156" y="508"/>
      <point x="109" y="334" type="curve" smooth="yes"/>
      <point x="14" y="0" type="line"/>
      <point x="184" y="0" type="line"/>
      <point x="274" y="350" type="line" smooth="yes"/>
      <point x="305" y="469"/>
      <point x="334" y="512"/>
      <point x="442" y="512" type="curve"/>
      <point x="442" y="0" type="line"/>
      <point x="594" y="0" type="line"/>
      <point x="594" y="514" type="line"/>
      <point x="700" y="514"/>
      <point x="731" y="477"/>
      <point x="768" y="348" type="curve" smooth="yes"/>
      <point x="854" y="0" type="line"/>
      <point x="1024" y="0" type="line"/>
      <point x="928" y="334" type="line" smooth="yes"/>
      <point x="879" y="504"/>
      <point x="827" y="614"/>
      <point x="666" y="637" type="curve"/>
      <point x="909" y="1006" type="line"/>
    </contour>
    <contour>
      <point x="719" y="971" type="line"/>
      <point x="518" y="657" type="line"/>
      <point x="317" y="971" type="line"/>
    </contour>
  </outline>
</glyph>
<glyph name="uni047B" format="2">
  <advance width="993"/>
  <unicode hex="047B"/>
  <outline>
    <contour>
      <point x="909" y="551" type="curve" smooth="yes"/>
      <point x="909" y="864"/>
      <point x="795" y="1065"/>
      <point x="588" y="1108" type="curve"/>
      <point x="575" y="1174"/>
      <point x="543" y="1200"/>
      <point x="500" y="1200" type="curve" smooth="yes"/>
      <point x="453" y="1200"/>
      <point x="420" y="1176"/>
      <point x="408" y="1110" type="curve"/>
      <point x="197" y="1073"/>
      <point x="86" y="881"/>
      <point x="86" y="551" type="curve" smooth="yes"/>
      <point x="86" y="233"/>
      <point x="201" y="29"/>
      <point x="408" y="-12" type="curve"/>
      <point x="420" y="-76"/>
      <point x="453" y="-104"/>
      <point x="500" y="-104" type="curve" smooth="yes"/>
      <point x="545" y="-104"/>
      <point x="573" y="-76"/>
      <point x="588" y="-10" type="curve"/>
      <point x="793" y="31"/>
      <point x="909" y="229"/>
    </contour>
    <contour>
      <point x="745" y="551" type="curve" smooth="yes"/>
      <point x="745" y="326"/>
      <point x="694" y="193"/>
      <point x="588" y="147" type="curve"/>
      <point x="575" y="209"/>
      <point x="545" y="240"/>
      <point x="500" y="240" type="curve" smooth="yes"/>
      <point x="455" y="240"/>
      <point x="418" y="209"/>
      <point x="410" y="147" type="curve"/>
      <point x="305" y="190"/>
      <point x="250" y="328"/>
      <point x="250" y="551" type="curve" smooth="yes"/>
      <point x="252" y="772"/>
      <point x="299" y="905"/>
      <point x="410" y="948" type="curve"/>
      <point x="420" y="885"/>
      <point x="453" y="856"/>
      <point x="500" y="856" type="curve" smooth="yes"/>
      <point x="545" y="856"/>
      <point x="578" y="887"/>
      <point x="588" y="950" type="curve"/>
      <point x="694" y="905"/>
      <point x="745" y="778"/>
    </contour>
  </outline>
</glyph>
<glyph name="titlocomb-cy" format="2">
  <unicode hex="0483"/>
  <anchor x="-524" y="1100" name="_top"/>
  <anchor x="-520" y="1466" name="top"/>
  <outline>
    <contour>
      <point x="-637" y="1260" type="curve"/>
      <point x="-348" y="1260" type="line" smooth="yes"/>
      <point x="-287" y="1260"/>
      <point x="-256" y="1294"/>
      <point x="-256" y="1362" type="curve" smooth="yes"/>
      <point x="-256" y="1432"/>
      <point x="-291" y="1466"/>
      <point x="-336" y="1466" type="curve" smooth="yes"/>
      <point x="-379" y="1466"/>
      <point x="-414" y="1438"/>
      <point x="-416" y="1382" type="curve"/>
      <point x="-702" y="1382" type="line" smooth="yes"/>
      <point x="-764" y="1382"/>
      <point x="-795" y="1348"/>
      <point x="-795" y="1280" type="curve" smooth="yes"/>
      <point x="-795" y="1214"/>
      <point x="-758" y="1176"/>
      <point x="-715" y="1176" type="curve" smooth="yes"/>
      <point x="-672" y="1176"/>
      <point x="-639" y="1200"/>
    </contour>
  </outline>
</glyph>
<glyph name="psilipneumatacomb-cy" format="2">
  <unicode hex="0486"/>
  <anchor x="-539" y="1100" name="_top"/>
  <anchor x="-535" y="1606" name="top"/>
  <outline>
    <contour>
      <point x="-424" y="1460" type="curve" smooth="yes"/>
      <point x="-424" y="1548"/>
      <point x="-467" y="1606"/>
      <point x="-537" y="1606" type="curve" smooth="yes"/>
      <point x="-592" y="1606"/>
      <point x="-627" y="1573"/>
      <point x="-627" y="1522" type="curve" smooth="yes"/>
      <point x="-627" y="1444"/>
      <point x="-530" y="1470"/>
      <point x="-530" y="1403" type="curve" smooth="yes"/>
      <point x="-530" y="1360"/>
      <point x="-567" y="1327"/>
      <point x="-653" y="1307" type="curve"/>
      <point x="-653" y="1237" type="line"/>
      <point x="-498" y="1264"/>
      <point x="-424" y="1337"/>
    </contour>
  </outline>
</glyph>
<glyph name="uni0488" format="2">
  <advance width="1896"/>
  <unicode hex="0488"/>
  <outline>
    <contour>
      <point x="1260" y="942" type="curve"/>
      <point x="1341" y="942" type="line"/>
      <point x="1348" y="1012"/>
      <point x="1389" y="1038"/>
      <point x="1470" y="1038" type="curve" smooth="yes"/>
      <point x="1548" y="1038"/>
      <point x="1595" y="1010"/>
      <point x="1602" y="942" type="curve"/>
      <point x="1688" y="942" type="line"/>
      <point x="1681" y="1067"/>
      <point x="1599" y="1137"/>
      <point x="1470" y="1137" type="curve" smooth="yes"/>
      <point x="1335" y="1137"/>
      <point x="1266" y="1063"/>
    </contour>
    <contour>
      <point x="201" y="-41" type="curve"/>
      <point x="283" y="-41" type="line"/>
      <point x="289" y="29"/>
      <point x="332" y="55"/>
      <point x="414" y="55" type="curve" smooth="yes"/>
      <point x="489" y="55"/>
      <point x="537" y="25"/>
      <point x="545" y="-41" type="curve"/>
      <point x="629" y="-41" type="line"/>
      <point x="621" y="84"/>
      <point x="541" y="154"/>
      <point x="414" y="154" type="curve" smooth="yes"/>
      <point x="279" y="154"/>
      <point x="207" y="80"/>
    </contour>
    <contour>
      <point x="725" y="-319" type="curve"/>
      <point x="807" y="-319" type="line"/>
      <point x="813" y="-250"/>
      <point x="856" y="-223"/>
      <point x="936" y="-223" type="curve" smooth="yes"/>
      <point x="1014" y="-223"/>
      <point x="1061" y="-252"/>
      <point x="1067" y="-319" type="curve"/>
      <point x="1153" y="-319" type="line"/>
      <point x="1147" y="-197"/>
      <point x="1065" y="-125"/>
      <point x="936" y="-125" type="curve" smooth="yes"/>
      <point x="801" y="-125"/>
      <point x="733" y="-201"/>
    </contour>
    <contour>
      <point x="39" y="457" type="curve"/>
      <point x="121" y="457" type="line"/>
      <point x="127" y="526"/>
      <point x="170" y="553"/>
      <point x="252" y="553" type="curve" smooth="yes"/>
      <point x="334" y="553"/>
      <point x="377" y="518"/>
      <point x="381" y="457" type="curve"/>
      <point x="467" y="457" type="line"/>
      <point x="461" y="580"/>
      <point x="379" y="651"/>
      <point x="252" y="651" type="curve" smooth="yes"/>
      <point x="115" y="651"/>
      <point x="45" y="578"/>
    </contour>
    <contour>
      <point x="199" y="942" type="curve"/>
      <point x="281" y="942" type="line"/>
      <point x="287" y="1010"/>
      <point x="330" y="1038"/>
      <point x="410" y="1038" type="curve" smooth="yes"/>
      <point x="487" y="1038"/>
      <point x="535" y="1008"/>
      <point x="541" y="942" type="curve"/>
      <point x="627" y="942" type="line"/>
      <point x="621" y="1065"/>
      <point x="539" y="1135"/>
      <point x="410" y="1135" type="curve" smooth="yes"/>
      <point x="274" y="1135"/>
      <point x="205" y="1061"/>
    </contour>
    <contour>
      <point x="1260" y="-41" type="curve"/>
      <point x="1341" y="-41" type="line"/>
      <point x="1348" y="29"/>
      <point x="1389" y="55"/>
      <point x="1470" y="55" type="curve" smooth="yes"/>
      <point x="1548" y="55"/>
      <point x="1595" y="27"/>
      <point x="1602" y="-41" type="curve"/>
      <point x="1688" y="-41" type="line"/>
      <point x="1681" y="84"/>
      <point x="1599" y="154"/>
      <point x="1470" y="154" type="curve" smooth="yes"/>
      <point x="1335" y="154"/>
      <point x="1266" y="80"/>
    </contour>
    <contour>
      <point x="1432" y="455" type="curve"/>
      <point x="1513" y="455" type="line"/>
      <point x="1520" y="524"/>
      <point x="1563" y="551"/>
      <point x="1645" y="551" type="curve" smooth="yes"/>
      <point x="1720" y="551"/>
      <point x="1767" y="522"/>
      <point x="1776" y="455" type="curve"/>
      <point x="1860" y="455" type="line"/>
      <point x="1851" y="578"/>
      <point x="1772" y="649"/>
      <point x="1645" y="649" type="curve" smooth="yes"/>
      <point x="1513" y="649"/>
      <point x="1440" y="582"/>
    </contour>
    <contour>
      <point x="725" y="1227" type="curve"/>
      <point x="807" y="1227" type="line"/>
      <point x="813" y="1296"/>
      <point x="856" y="1323"/>
      <point x="938" y="1323" type="curve" smooth="yes"/>
      <point x="1014" y="1323"/>
      <point x="1061" y="1294"/>
      <point x="1069" y="1227" type="curve"/>
      <point x="1153" y="1227" type="line"/>
      <point x="1145" y="1352"/>
      <point x="1065" y="1421"/>
      <point x="938" y="1421" type="curve" smooth="yes"/>
      <point x="807" y="1421"/>
      <point x="733" y="1354"/>
    </contour>
  </outline>
</glyph>
<glyph name="uni0492" format="2">
  <advance width="752"/>
  <unicode hex="0492"/>
  <anchor x="377" y="0" name="bottom"/>
  <anchor x="377" y="1462" name="top"/>
  <outline>
    <contour>
      <point x="733" y="1462" type="line"/>
      <point x="150" y="1462" type="line"/>
      <point x="150" y="801" type="line"/>
      <point x="27" y="801" type="line"/>
      <point x="27" y="651" type="line"/>
      <point x="150" y="651" type="line"/>
      <point x="150" y="0" type="line"/>
      <point x="322" y="0" type="line"/>
      <point x="322" y="651" type="line"/>
      <point x="557" y="651" type="line"/>
      <point x="557" y="801" type="line"/>
      <point x="322" y="801" type="line"/>
      <point x="322" y="1309" type="line"/>
      <point x="733" y="1309" type="line"/>
    </contour>
  </outline>
</glyph>
<glyph name="uni0496" format="2">
  <advance width="1348"/>
  <unicode hex="0496"/>
  <anchor x="674" y="-395" name="bottom"/>
  <anchor x="674" y="1462" name="top"/>
  <outline>
    <contour>
      <point x="1276" y="1462" type="line"/>
      <point x="1092" y="1462" type="line"/>
      <point x="723" y="758" type="line"/>
      <point x="723" y="1462" type="line"/>
      <point x="555" y="1462" type="line"/>
      <point x="555" y="758" type="line"/>
      <point x="186" y="1462" type="line"/>
      <point x="0" y="1462" type="line"/>
      <point x="381" y="758" type="line"/>
      <point x="-6" y="0" type="line"/>
      <point x="182" y="0" type="line"/>
      <point x="555" y="750" type="line"/>
      <point x="555" y="0" type="line"/>
      <point x="723" y="0" type="line"/>
      <point x="723" y="750" type="line"/>
      <point x="1094" y="0" type="line"/>
      <point x="1159" y="0" type="line"/>
      <point x="1159" y="-395" type="line"/>
      <point x="1327" y="-395" type="line"/>
      <point x="1327" y="156" type="line"/>
      <point x="1208" y="156" type="line"/>
      <point x="895" y="758" type="line"/>
    </contour>
  </outline>
</glyph>
<glyph name="uni04A4" format="2">
  <advance width="1241"/>
  <unicode hex="04A4"/>
  <anchor x="547" y="0" name="bottom"/>
  <anchor x="547" y="1462" name="top"/>
  <outline>
    <contour>
      <point x="150" y="0" type="line"/>
      <point x="322" y="0" type="line"/>
      <point x="322" y="686" type="line"/>
      <point x="772" y="686" type="line"/>
      <point x="772" y="0" type="line"/>
      <point x="944" y="0" type="line"/>
      <point x="944" y="1307" type="line"/>
      <point x="1221" y="1307" type="line"/>
      <point x="1221" y="1462" type="line"/>
      <point x="772" y="1462" type="line"/>
      <point x="772" y="842" type="line"/>
      <point x="322" y="842" type="line"/>
      <point x="322" y="1462" type="line"/>
      <point x="150" y="1462" type="line"/>
    </contour>
  </outline>
</glyph>
<glyph name="uni04A7" format="2">
  <advance width="1364"/>
  <unicode hex="04A7"/>
  <anchor x="682" y="-500" name="bottom"/>
  <anchor x="682" y="1100" name="top"/>
  <outline>
    <contour>
      <point x="799" y="1100" type="line"/>
      <point x="133" y="1100" type="line"/>
      <point x="133" y="0" type="line"/>
      <point x="299" y="0" type="line"/>
      <point x="299" y="954" type="line"/>
      <point x="633" y="954" type="line"/>
      <point x="633" y="0" type="line"/>
      <point x="799" y="0" type="line"/>
      <point x="799" y="467" type="line"/>
      <point x="827" y="479"/>
      <point x="862" y="487"/>
      <point x="899" y="487" type="curve" smooth="yes"/>
      <point x="1049" y="487"/>
      <point x="1126" y="338"/>
      <point x="1126" y="63" type="curve" smooth="yes"/>
      <point x="1126" y="-207"/>
      <point x="1061" y="-352"/>
      <point x="936" y="-352" type="curve" smooth="yes"/>
      <point x="881" y="-352"/>
      <point x="829" y="-332"/>
      <point x="778" y="-293" type="curve"/>
      <point x="778" y="-444" type="line"/>
      <point x="829" y="-481"/>
      <point x="893" y="-500"/>
      <point x="967" y="-500" type="curve" smooth="yes"/>
      <point x="1180" y="-500"/>
      <point x="1294" y="-293"/>
      <point x="1294" y="70" type="curve" smooth="yes"/>
      <point x="1294" y="430"/>
      <point x="1159" y="633"/>
      <point x="911" y="633" type="curve" smooth="yes"/>
      <point x="879" y="633"/>
      <point x="840" y="627"/>
      <point x="799" y="610" type="curve"/>
    </contour>
  </outline>
</glyph>
<glyph name="uni04A9" format="2">
  <advance width="1047"/>
  <unicode hex="04A9"/>
  <anchor x="524" y="0" name="bottom"/>
  <anchor x="524" y="1100" name="top"/>
  <outline>
    <contour>
      <point x="469" y="1120" type="curve" smooth="yes"/>
      <point x="203" y="1120"/>
      <point x="86" y="874"/>
      <point x="86" y="545" type="curve" smooth="yes"/>
      <point x="86" y="221"/>
      <point x="209" y="-20"/>
      <point x="473" y="-20" type="curve" smooth="yes"/>
      <point x="549" y="-20"/>
      <point x="612" y="-6"/>
      <point x="664" y="20" type="curve"/>
      <point x="727" y="-31"/>
      <point x="801" y="-57"/>
      <point x="883" y="-57" type="curve" smooth="yes"/>
      <point x="926" y="-57"/>
      <point x="965" y="-51"/>
      <point x="995" y="-39" type="curve"/>
      <point x="995" y="94" type="line"/>
      <point x="969" y="84"/>
      <point x="936" y="78"/>
      <point x="901" y="78" type="curve" smooth="yes"/>
      <point x="862" y="78"/>
      <point x="815" y="94"/>
      <point x="797" y="111" type="curve"/>
      <point x="909" y="219"/>
      <point x="954" y="356"/>
      <point x="954" y="504" type="curve" smooth="yes"/>
      <point x="954" y="735"/>
      <point x="868" y="870"/>
      <point x="709" y="870" type="curve" smooth="yes"/>
      <point x="551" y="870"/>
      <point x="463" y="735"/>
      <point x="463" y="500" type="curve" smooth="yes"/>
      <point x="463" y="352"/>
      <point x="498" y="231"/>
      <point x="571" y="141" type="curve"/>
      <point x="551" y="131"/>
      <point x="522" y="123"/>
      <point x="487" y="123" type="curve" smooth="yes"/>
      <point x="326" y="123"/>
      <point x="252" y="319"/>
      <point x="252" y="543" type="curve" smooth="yes"/>
      <point x="252" y="817"/>
      <point x="332" y="975"/>
      <point x="473" y="975" type="curve" smooth="yes"/>
      <point x="504" y="975"/>
      <point x="539" y="967"/>
      <point x="573" y="952" type="curve"/>
      <point x="608" y="1092" type="line"/>
      <point x="565" y="1110"/>
      <point x="520" y="1120"/>
    </contour>
    <contour>
      <point x="709" y="735" type="curve" smooth="yes"/>
      <point x="778" y="735"/>
      <point x="807" y="649"/>
      <point x="807" y="500" type="curve" smooth="yes"/>
      <point x="807" y="360"/>
      <point x="762" y="250"/>
      <point x="692" y="193" type="curve"/>
      <point x="637" y="266"/>
      <point x="604" y="362"/>
      <point x="604" y="494" type="curve" smooth="yes"/>
      <point x="604" y="651"/>
      <point x="641" y="735"/>
    </contour>
  </outline>
</glyph>
<glyph name="uni04B9" format="2">
  <advance width="946"/>
  <unicode hex="04B9"/>
  <anchor x="473" y="0" name="bottom"/>
  <anchor x="473" y="1100" name="top"/>
  <outline>
    <contour>
      <point x="815" y="1100" type="line"/>
      <point x="651" y="1100" type="line"/>
      <point x="651" y="616" type="line"/>
      <point x="608" y="573"/>
      <point x="561" y="543"/>
      <point x="512" y="522" type="curve"/>
      <point x="512" y="801" type="line"/>
      <point x="412" y="801" type="line"/>
      <point x="412" y="504" type="line"/>
      <point x="324" y="504"/>
      <point x="274" y="545"/>
      <point x="274" y="664" type="curve" smooth="yes"/>
      <point x="274" y="1100" type="line"/>
      <point x="109" y="1100" type="line"/>
      <point x="109" y="676" type="line" smooth="yes"/>
      <point x="109" y="463"/>
      <point x="193" y="360"/>
      <point x="369" y="360" type="curve" smooth="yes"/>
      <point x="383" y="360"/>
      <point x="403" y="362"/>
      <point x="412" y="362" type="curve"/>
      <point x="412" y="129" type="line"/>
      <point x="512" y="129" type="line"/>
      <point x="512" y="385" type="line"/>
      <point x="565" y="406"/>
      <point x="612" y="436"/>
      <point x="651" y="471" type="curve"/>
      <point x="651" y="0" type="line"/>
      <point x="815" y="0" type="line"/>
    </contour>
  </outline>
</glyph>
<glyph name="uni04D8" format="2">
  <advance width="1100"/>
  <unicode hex="04D8"/>
  <anchor x="551" y="0" name="bottom"/>
  <anchor x="516" y="1462" name="top"/>
  <outline>
    <contour>
      <point x="489" y="1325" type="curve" smooth="yes"/>
      <point x="702" y="1325"/>
      <point x="805" y="1141"/>
      <point x="819" y="797" type="curve"/>
      <point x="102" y="797" type="line"/>
      <point x="102" y="721" type="line" smooth="yes"/>
      <point x="102" y="231"/>
      <point x="254" y="-20"/>
      <point x="532" y="-20" type="curve" smooth="yes"/>
      <point x="850" y="-20"/>
      <point x="1001" y="309"/>
      <point x="1001" y="731" type="curve" smooth="yes"/>
      <point x="1001" y="1225"/>
      <point x="834" y="1485"/>
      <point x="510" y="1485" type="curve" smooth="yes"/>
      <point x="395" y="1485"/>
      <point x="295" y="1460"/>
      <point x="182" y="1405" type="curve"/>
      <point x="182" y="1241" type="line"/>
      <point x="299" y="1298"/>
      <point x="387" y="1325"/>
    </contour>
    <contour>
      <point x="535" y="133" type="curve" smooth="yes"/>
      <point x="373" y="133"/>
      <point x="281" y="313"/>
      <point x="279" y="649" type="curve"/>
      <point x="817" y="649" type="line"/>
      <point x="803" y="313"/>
      <point x="700" y="133"/>
    </contour>
  </outline>
</glyph>
<glyph name="uni04F7" format="2">
  <advance width="653"/>
  <unicode hex="04F7"/>
  <anchor x="328" y="-383" name="bottom"/>
  <anchor x="328" y="1100" name="top"/>
  <outline>
    <contour>
      <point x="633" y="1100" type="line"/>
      <point x="133" y="1100" type="line"/>
      <point x="133" y="0" type="line"/>
      <point x="256" y="0" type="line"/>
      <point x="256" y="-383" type="line"/>
      <point x="418" y="-383" type="line"/>
      <point x="418" y="145" type="line"/>
      <point x="299" y="145" type="line"/>
      <point x="299" y="954" type="line"/>
      <point x="633" y="954" type="line"/>
    </contour>
  </outline>
</glyph>
<glyph name="uni0502" format="2">
  <advance width="1386"/>
  <unicode hex="0502"/>
  <anchor x="694" y="0" name="bottom"/>
  <anchor x="694" y="1462" name="top"/>
  <outline>
    <contour>
      <point x="758" y="1462" type="line"/>
      <point x="584" y="1462" type="line"/>
      <point x="584" y="883" type="line"/>
      <point x="483" y="883" type="line" smooth="yes"/>
      <point x="174" y="883"/>
      <point x="72" y="717"/>
      <point x="72" y="442" type="curve" smooth="yes"/>
      <point x="72" y="135"/>
      <point x="190" y="-20"/>
      <point x="399" y="-20" type="curve" smooth="yes"/>
      <point x="539" y="-20"/>
      <point x="616" y="37"/>
      <point x="666" y="135" type="curve"/>
      <point x="711" y="31"/>
      <point x="795" y="-20"/>
      <point x="932" y="-20" type="curve" smooth="yes"/>
      <point x="1151" y="-20"/>
      <point x="1255" y="106"/>
      <point x="1255" y="401" type="curve" smooth="yes"/>
      <point x="1255" y="848" type="line"/>
      <point x="1083" y="848" type="line"/>
      <point x="1083" y="379" type="line" smooth="yes"/>
      <point x="1083" y="211"/>
      <point x="1032" y="135"/>
      <point x="922" y="135" type="curve" smooth="yes"/>
      <point x="807" y="135"/>
      <point x="758" y="205"/>
      <point x="758" y="381" type="curve" smooth="yes"/>
    </contour>
    <contour>
      <point x="584" y="731" type="line"/>
      <point x="584" y="373" type="line" smooth="yes"/>
      <point x="584" y="205"/>
      <point x="535" y="135"/>
      <point x="410" y="135" type="curve" smooth="yes"/>
      <point x="264" y="135"/>
      <point x="246" y="270"/>
      <point x="246" y="440" type="curve" smooth="yes"/>
      <point x="246" y="643"/>
      <point x="307" y="731"/>
      <point x="494" y="731" type="curve" smooth="yes"/>
    </contour>
  </outline>
</glyph>
<glyph name="uni050E" format="2">
  <advance width="1104"/>
  <unicode hex="050E"/>
  <anchor x="553" y="0" name="bottom"/>
  <anchor x="553" y="1462" name="top"/>
  <outline>
    <contour>
      <point x="758" y="1462" type="line"/>
      <point x="20" y="1462" type="line"/>
      <point x="20" y="1307" type="line"/>
      <point x="303" y="1307" type="line"/>
      <point x="303" y="393" type="line" smooth="yes"/>
      <point x="303" y="102"/>
      <point x="403" y="-20"/>
      <point x="639" y="-20" type="curve" smooth="yes"/>
      <point x="872" y="-20"/>
      <point x="975" y="104"/>
      <point x="975" y="401" type="curve" smooth="yes"/>
      <point x="975" y="848" type="line"/>
      <point x="803" y="848" type="line"/>
      <point x="803" y="379" type="line" smooth="yes"/>
      <point x="803" y="211"/>
      <point x="752" y="135"/>
      <point x="639" y="135" type="curve" smooth="yes"/>
      <point x="524" y="135"/>
      <point x="475" y="205"/>
      <point x="475" y="381" type="curve" smooth="yes"/>
      <point x="475" y="1307" type="line"/>
      <point x="758" y="1307" type="line"/>
    </contour>
  </outline>
</glyph>
<glyph name="uni050F" format="2">
  <advance width="963"/>
  <unicode hex="050F"/>
  <anchor x="481" y="0" name="bottom"/>
  <anchor x="481" y="1100" name="top"/>
  <outline>
    <contour>
      <point x="614" y="1100" type="line"/>
      <point x="20" y="1100" type="line"/>
      <point x="20" y="956" type="line"/>
      <point x="236" y="956" type="line"/>
      <point x="236" y="371" type="line" smooth="yes"/>
      <point x="236" y="98"/>
      <point x="330" y="-20"/>
      <point x="543" y="-20" type="curve" smooth="yes"/>
      <point x="756" y="-20"/>
      <point x="848" y="106"/>
      <point x="848" y="362" type="curve" smooth="yes"/>
      <point x="848" y="700" type="line"/>
      <point x="684" y="700" type="line"/>
      <point x="684" y="369" type="line" smooth="yes"/>
      <point x="684" y="197"/>
      <point x="641" y="123"/>
      <point x="543" y="123" type="curve" smooth="yes"/>
      <point x="442" y="123"/>
      <point x="401" y="193"/>
      <point x="401" y="369" type="curve" smooth="yes"/>
      <point x="401" y="956" type="line"/>
      <point x="614" y="956" type="line"/>
    </contour>
  </outline>
</glyph>
<glyph name="uni0513" format="2">
  <advance width="913"/>
  <unicode hex="0513"/>
  <anchor x="457" y="-393" name="bottom"/>
  <anchor x="457" y="1100" name="top"/>
  <outline>
    <contour>
      <point x="637" y="-393" type="curve" smooth="yes"/>
      <point x="778" y="-393"/>
      <point x="856" y="-303"/>
      <point x="856" y="-121" type="curve" smooth="yes"/>
      <point x="856" y="143" type="line"/>
      <point x="745" y="143" type="line"/>
      <point x="745" y="1100" type="line"/>
      <point x="221" y="1100" type="line"/>
      <point x="197" y="379"/>
      <point x="145" y="135"/>
      <point x="45" y="135" type="curve" smooth="yes"/>
      <point x="27" y="135"/>
      <point x="10" y="139"/>
      <point x="0" y="145" type="curve"/>
      <point x="0" y="2" type="line"/>
      <point x="25" y="-8"/>
      <point x="49" y="-12"/>
      <point x="78" y="-12" type="curve" smooth="yes"/>
      <point x="291" y="-12"/>
      <point x="342" y="260"/>
      <point x="375" y="950" type="curve"/>
      <point x="580" y="950" type="line"/>
      <point x="580" y="0" type="line"/>
      <point x="700" y="0" type="line"/>
      <point x="700" y="-125" type="line" smooth="yes"/>
      <point x="700" y="-213"/>
      <point x="668" y="-254"/>
      <point x="598" y="-254" type="curve" smooth="yes"/>
      <point x="569" y="-254"/>
      <point x="541" y="-248"/>
      <point x="510" y="-236" type="curve"/>
      <point x="510" y="-375" type="line"/>
      <point x="541" y="-387"/>
      <point x="584" y="-393"/>
    </contour>
  </outline>
</glyph>
<glyph name="uni0514" format="2">
  <advance width="1348"/>
  <unicode hex="0514"/>
  <anchor x="674" y="0" name="bottom"/>
  <anchor x="674" y="1462" name="top"/>
  <outline>
    <contour>
      <point x="92" y="-16" type="curve" smooth="yes"/>
      <point x="266" y="-16"/>
      <point x="319" y="100"/>
      <point x="362" y="377" type="curve" smooth="yes"/>
      <point x="389" y="567"/>
      <point x="428" y="991"/>
      <point x="453" y="1300" type="curve"/>
      <point x="645" y="1300" type="line"/>
      <point x="852" y="764" type="line"/>
      <point x="543" y="0" type="line"/>
      <point x="721" y="0" type="line"/>
      <point x="946" y="598" type="line"/>
      <point x="1151" y="0" type="line"/>
      <point x="1335" y="0" type="line"/>
      <point x="1047" y="752" type="line"/>
      <point x="1321" y="1462" type="line"/>
      <point x="1141" y="1462" type="line"/>
      <point x="948" y="915" type="line"/>
      <point x="758" y="1462" type="line"/>
      <point x="301" y="1462" type="line"/>
      <point x="268" y="1067"/>
      <point x="227" y="635"/>
      <point x="205" y="444" type="curve" smooth="yes"/>
      <point x="176" y="209"/>
      <point x="145" y="139"/>
      <point x="63" y="139" type="curve" smooth="yes"/>
      <point x="37" y="139"/>
      <point x="12" y="145"/>
      <point x="-6" y="156" type="curve"/>
      <point x="-6" y="4" type="line"/>
      <point x="18" y="-10"/>
      <point x="51" y="-16"/>
    </contour>
  </outline>
</glyph>
<glyph name="uni0517" format="2">
  <advance width="1266"/>
  <unicode hex="0517"/>
  <anchor x="633" y="-492" name="bottom"/>
  <anchor x="633" y="1100" name="top"/>
  <outline>
    <contour>
      <point x="133" y="-492" type="line"/>
      <point x="299" y="-492" type="line"/>
      <point x="299" y="0" type="line" smooth="yes"/>
      <point x="299" y="41"/>
      <point x="295" y="90"/>
      <point x="291" y="147" type="curve"/>
      <point x="299" y="147" type="line"/>
      <point x="350" y="41"/>
      <point x="442" y="-20"/>
      <point x="549" y="-20" type="curve" smooth="yes"/>
      <point x="735" y="-20"/>
      <point x="844" y="162"/>
      <point x="858" y="481" type="curve"/>
      <point x="1061" y="0" type="line"/>
      <point x="1239" y="0" type="line"/>
      <point x="981" y="559" type="line"/>
      <point x="1227" y="1100" type="line"/>
      <point x="1051" y="1100" type="line"/>
      <point x="858" y="637" type="line"/>
      <point x="842" y="961"/>
      <point x="733" y="1120"/>
      <point x="539" y="1120" type="curve" smooth="yes"/>
      <point x="440" y="1120"/>
      <point x="358" y="1069"/>
      <point x="299" y="950" type="curve"/>
      <point x="289" y="950" type="line"/>
      <point x="268" y="1100" type="line"/>
      <point x="133" y="1100" type="line"/>
    </contour>
    <contour>
      <point x="504" y="125" type="curve" smooth="yes"/>
      <point x="365" y="125"/>
      <point x="299" y="254"/>
      <point x="299" y="543" type="curve" smooth="yes"/>
      <point x="299" y="584" type="line" smooth="yes"/>
      <point x="299" y="854"/>
      <point x="365" y="977"/>
      <point x="502" y="977" type="curve" smooth="yes"/>
      <point x="639" y="977"/>
      <point x="692" y="834"/>
      <point x="692" y="549" type="curve" smooth="yes"/>
      <point x="692" y="260"/>
      <point x="631" y="125"/>
    </contour>
  </outline>
</glyph>
<glyph name="uni0519" format="2">
  <advance width="1329"/>
  <unicode hex="0519"/>
  <anchor x="666" y="0" name="bottom"/>
  <anchor x="666" y="1100" name="top"/>
  <outline>
    <contour>
      <point x="948" y="-20" type="curve" smooth="yes"/>
      <point x="1042" y="-20"/>
      <point x="1126" y="2"/>
      <point x="1204" y="49" type="curve"/>
      <point x="1204" y="197" type="line"/>
      <point x="1120" y="143"/>
      <point x="1044" y="121"/>
      <point x="967" y="121" type="curve" smooth="yes"/>
      <point x="803" y="121"/>
      <point x="727" y="252"/>
      <point x="723" y="518" type="curve"/>
      <point x="1247" y="518" type="line"/>
      <point x="1247" y="633" type="line"/>
      <point x="1247" y="905"/>
      <point x="1135" y="1118"/>
      <point x="911" y="1118" type="curve" smooth="yes"/>
      <point x="821" y="1118"/>
      <point x="752" y="1083"/>
      <point x="700" y="1012" type="curve"/>
      <point x="700" y="1100" type="line"/>
      <point x="436" y="1100" type="line" smooth="yes"/>
      <point x="215" y="1100"/>
      <point x="84" y="983"/>
      <point x="84" y="778" type="curve" smooth="yes"/>
      <point x="84" y="616"/>
      <point x="160" y="508"/>
      <point x="303" y="473" type="curve"/>
      <point x="33" y="0" type="line"/>
      <point x="215" y="0" type="line"/>
      <point x="455" y="453" type="line"/>
      <point x="569" y="453" type="line"/>
      <point x="588" y="182"/>
      <point x="696" y="-20"/>
    </contour>
    <contour>
      <point x="453" y="588" type="line" smooth="yes"/>
      <point x="319" y="588"/>
      <point x="252" y="651"/>
      <point x="252" y="776" type="curve" smooth="yes"/>
      <point x="252" y="899"/>
      <point x="322" y="967"/>
      <point x="455" y="967" type="curve" smooth="yes"/>
      <point x="559" y="967" type="line"/>
      <point x="559" y="588" type="line"/>
    </contour>
    <contour>
      <point x="725" y="649" type="line"/>
      <point x="735" y="877"/>
      <point x="799" y="983"/>
      <point x="911" y="983" type="curve" smooth="yes"/>
      <point x="1034" y="983"/>
      <point x="1090" y="829"/>
      <point x="1090" y="649" type="curve"/>
    </contour>
  </outline>
</glyph>
<glyph name="uni052B" format="2">
  <advance width="1741"/>
  <unicode hex="052B"/>
  <anchor x="870" y="-383" name="bottom"/>
  <anchor x="870" y="1100" name="top"/>
  <outline>
    <contour>
      <point x="698" y="637" type="line"/>
      <point x="698" y="510" type="line"/>
      <point x="1126" y="510" type="line"/>
      <point x="1126" y="637" type="line"/>
    </contour>
    <component base="afii10069"/>
    <component base="afii10076" xOffset="932"/>
  </outline>
</glyph>
<glyph name="uni1AB6" format="2">
  <unicode hex="1AB6"/>
  <anchor x="-2" y="0" name="_bottom"/>
  <anchor x="2" y="-553" name="bottom"/>
  <outline>
    <contour>
      <point x="-1026" y="-553" type="curve"/>
      <point x="-903" y="-553" type="line"/>
      <point x="-887" y="-399"/>
      <point x="-831" y="-256"/>
      <point x="-729" y="-256" type="curve" smooth="yes"/>
      <point x="-573" y="-256"/>
      <point x="-598" y="-553"/>
      <point x="-350" y="-553" type="curve" smooth="yes"/>
      <point x="-96" y="-553"/>
      <point x="-137" y="-256"/>
      <point x="0" y="-256" type="curve" smooth="yes"/>
      <point x="137" y="-256"/>
      <point x="90" y="-553"/>
      <point x="350" y="-553" type="curve" smooth="yes"/>
      <point x="594" y="-553"/>
      <point x="571" y="-256"/>
      <point x="723" y="-256" type="curve" smooth="yes"/>
      <point x="819" y="-256"/>
      <point x="881" y="-375"/>
      <point x="899" y="-553" type="curve"/>
      <point x="1022" y="-553" type="line"/>
      <point x="1008" y="-309"/>
      <point x="924" y="-129"/>
      <point x="717" y="-129" type="curve" smooth="yes"/>
      <point x="479" y="-129"/>
      <point x="483" y="-426"/>
      <point x="350" y="-426" type="curve" smooth="yes"/>
      <point x="197" y="-426"/>
      <point x="252" y="-129"/>
      <point x="0" y="-129" type="curve" smooth="yes"/>
      <point x="-256" y="-129"/>
      <point x="-197" y="-426"/>
      <point x="-350" y="-426" type="curve" smooth="yes"/>
      <point x="-485" y="-426"/>
      <point x="-483" y="-129"/>
      <point x="-715" y="-129" type="curve" smooth="yes"/>
      <point x="-946" y="-129"/>
      <point x="-1014" y="-367"/>
    </contour>
  </outline>
</glyph>
<glyph name="uni1C83" format="2">
  <advance width="934"/>
  <unicode hex="1C83"/>
  <anchor x="590" y="0" name="bottom"/>
  <anchor x="604" y="1100" name="top"/>
  <outline>
    <contour>
      <point x="590" y="-20" type="curve" smooth="yes"/>
      <point x="715" y="-20"/>
      <point x="799" y="0"/>
      <point x="872" y="39" type="curve"/>
      <point x="872" y="199" type="line"/>
      <point x="797" y="164"/>
      <point x="707" y="135"/>
      <point x="588" y="135" type="curve" smooth="yes"/>
      <point x="381" y="135"/>
      <point x="274" y="281"/>
      <point x="274" y="545" type="curve" smooth="yes"/>
      <point x="274" y="819"/>
      <point x="379" y="961"/>
      <point x="598" y="961" type="curve" smooth="yes"/>
      <point x="682" y="961"/>
      <point x="770" y="940"/>
      <point x="836" y="909" type="curve"/>
      <point x="891" y="1059" type="line"/>
      <point x="825" y="1092"/>
      <point x="713" y="1118"/>
      <point x="602" y="1118" type="curve" smooth="yes"/>
      <point x="307" y="1118"/>
      <point x="88" y="948"/>
      <point x="88" y="543" type="curve" smooth="yes"/>
      <point x="88" y="154"/>
      <point x="297" y="-20"/>
    </contour>
  </outline>
</glyph>
<glyph name="uni1D03" format="2">
  <advance width="866"/>
  <unicode hex="1D03"/>
  <anchor x="453" y="0" name="bottom"/>
  <anchor x="424" y="1100" name="top"/>
  <outline>
    <contour>
      <point x="848" y="639" type="line"/>
      <point x="18" y="639" type="line"/>
      <point x="18" y="516" type="line"/>
      <point x="848" y="516" type="line"/>
    </contour>
    <component base="uni0299"/>
  </outline>
</glyph>
<glyph name="uni1D08" format="2">
  <advance width="721"/>
  <unicode hex="1D08"/>
  <anchor x="354" y="0" name="bottom"/>
  <anchor x="313" y="1100" name="top"/>
  <outline>
    <contour>
      <point x="315" y="-20" type="curve" smooth="yes"/>
      <point x="496" y="-20"/>
      <point x="604" y="86"/>
      <point x="604" y="262" type="curve" smooth="yes"/>
      <point x="604" y="377"/>
      <point x="541" y="477"/>
      <point x="451" y="510" type="curve"/>
      <point x="451" y="518" type="line"/>
      <point x="569" y="551"/>
      <point x="639" y="649"/>
      <point x="639" y="791" type="curve" smooth="yes"/>
      <point x="639" y="987"/>
      <point x="516" y="1120"/>
      <point x="311" y="1120" type="curve" smooth="yes"/>
      <point x="205" y="1120"/>
      <point x="123" y="1098"/>
      <point x="53" y="1047" type="curve"/>
      <point x="53" y="891" type="line"/>
      <point x="119" y="940"/>
      <point x="199" y="977"/>
      <point x="295" y="977" type="curve" smooth="yes"/>
      <point x="406" y="977"/>
      <point x="471" y="909"/>
      <point x="471" y="780" type="curve" smooth="yes"/>
      <point x="471" y="668"/>
      <point x="408" y="590"/>
      <point x="274" y="590" type="curve" smooth="yes"/>
      <point x="207" y="590" type="line"/>
      <point x="207" y="457" type="line"/>
      <point x="270" y="457" type="line" smooth="yes"/>
      <point x="375" y="457"/>
      <point x="440" y="391"/>
      <point x="440" y="274" type="curve" smooth="yes"/>
      <point x="440" y="172"/>
      <point x="385" y="119"/>
      <point x="297" y="119" type="curve" smooth="yes"/>
      <point x="242" y="119"/>
      <point x="184" y="137"/>
      <point x="127" y="174" type="curve"/>
      <point x="63" y="49" type="line"/>
      <point x="147" y="0"/>
      <point x="227" y="-20"/>
    </contour>
  </outline>
</glyph>
<glyph name="uni1D10" format="2">
  <advance width="711"/>
  <unicode hex="1D10"/>
  <anchor x="356" y="0" name="bottom"/>
  <anchor x="356" y="1100" name="top"/>
  <outline>
    <contour>
      <point x="258" y="-20" type="curve" smooth="yes"/>
      <point x="502" y="-20"/>
      <point x="623" y="168"/>
      <point x="623" y="543" type="curve" smooth="yes"/>
      <point x="623" y="903"/>
      <point x="504" y="1120"/>
      <point x="254" y="1120" type="curve" smooth="yes"/>
      <point x="168" y="1120"/>
      <point x="100" y="1102"/>
      <point x="43" y="1069" type="curve"/>
      <point x="94" y="932" type="line"/>
      <point x="145" y="958"/>
      <point x="195" y="973"/>
      <point x="242" y="973" type="curve" smooth="yes"/>
      <point x="381" y="973"/>
      <point x="453" y="827"/>
      <point x="453" y="545" type="curve" smooth="yes"/>
      <point x="453" y="264"/>
      <point x="381" y="125"/>
      <point x="240" y="125" type="curve" smooth="yes"/>
      <point x="180" y="125"/>
      <point x="119" y="143"/>
      <point x="55" y="176" type="curve"/>
      <point x="55" y="37" type="line"/>
      <point x="113" y="0"/>
      <point x="197" y="-20"/>
    </contour>
  </outline>
</glyph>
<glyph name="uni1D1C" format="2">
  <advance width="969"/>
  <unicode hex="1D1C"/>
  <anchor x="485" y="0" name="bottom"/>
  <anchor x="485" y="1100" name="top"/>
  <outline>
    <contour>
      <point x="840" y="1100" type="line"/>
      <point x="676" y="1100" type="line"/>
      <point x="676" y="406" type="line" smooth="yes"/>
      <point x="676" y="209"/>
      <point x="612" y="129"/>
      <point x="483" y="129" type="curve" smooth="yes"/>
      <point x="356" y="129"/>
      <point x="295" y="209"/>
      <point x="295" y="406" type="curve" smooth="yes"/>
      <point x="295" y="1100" type="line"/>
      <point x="129" y="1100" type="line"/>
      <point x="129" y="383" type="line" smooth="yes"/>
      <point x="129" y="137"/>
      <point x="217" y="-20"/>
      <point x="483" y="-20" type="curve" smooth="yes"/>
      <point x="752" y="-20"/>
      <point x="840" y="137"/>
      <point x="840" y="383" type="curve" smooth="yes"/>
    </contour>
  </outline>
</glyph>
<glyph name="uni1D70" format="2">
  <advance width="989"/>
  <unicode hex="1D70"/>
  <outline>
    <contour>
      <point x="1030" y="662" type="curve"/>
      <point x="930" y="662" type="line"/>
      <point x="922" y="586"/>
      <point x="883" y="530"/>
      <point x="784" y="530" type="curve" smooth="yes"/>
      <point x="578" y="530"/>
      <point x="424" y="657"/>
      <point x="219" y="657" type="curve" smooth="yes"/>
      <point x="80" y="657"/>
      <point x="-23" y="582"/>
      <point x="-43" y="399" type="curve"/>
      <point x="59" y="399" type="line"/>
      <point x="68" y="477"/>
      <point x="109" y="530"/>
      <point x="207" y="530" type="curve" smooth="yes"/>
      <point x="412" y="530"/>
      <point x="565" y="401"/>
      <point x="768" y="401" type="curve" smooth="yes"/>
      <point x="911" y="401"/>
      <point x="1010" y="477"/>
    </contour>
    <component base="n" xOffset="25"/>
  </outline>
</glyph>
<glyph name="uni1D88" format="2">
  <advance width="946"/>
  <unicode hex="1D88"/>
  <outline>
    <contour>
      <point x="778" y="190" type="line"/>
      <point x="631" y="63" type="line"/>
      <point x="631" y="-145" type="line" smooth="yes"/>
      <point x="631" y="-238"/>
      <point x="602" y="-279"/>
      <point x="539" y="-279" type="curve" smooth="yes"/>
      <point x="514" y="-279"/>
      <point x="487" y="-272"/>
      <point x="459" y="-260" type="curve"/>
      <point x="459" y="-389" type="line"/>
      <point x="489" y="-401"/>
      <point x="528" y="-408"/>
      <point x="580" y="-408" type="curve" smooth="yes"/>
      <point x="713" y="-408"/>
      <point x="778" y="-330"/>
      <point x="778" y="-154" type="curve" smooth="yes"/>
    </contour>
    <component base="p"/>
  </outline>
</glyph>
<glyph name="uni1D89" format="2">
  <advance width="623"/>
  <unicode hex="1D89"/>
  <outline>
    <contour>
      <point x="512" y="1120" type="curve" smooth="yes"/>
      <point x="416" y="1120"/>
      <point x="344" y="1038"/>
      <point x="295" y="911" type="curve"/>
      <point x="287" y="911" type="line"/>
      <point x="266" y="1100" type="line"/>
      <point x="135" y="1100" type="line"/>
      <point x="135" y="0" type="line"/>
      <point x="225" y="0" type="line"/>
      <point x="225" y="-145" type="line" smooth="yes"/>
      <point x="225" y="-238"/>
      <point x="197" y="-279"/>
      <point x="133" y="-279" type="curve" smooth="yes"/>
      <point x="109" y="-279"/>
      <point x="82" y="-272"/>
      <point x="53" y="-260" type="curve"/>
      <point x="53" y="-389" type="line"/>
      <point x="84" y="-401"/>
      <point x="123" y="-408"/>
      <point x="174" y="-408" type="curve" smooth="yes"/>
      <point x="307" y="-408"/>
      <point x="373" y="-330"/>
      <point x="373" y="-154" type="curve" smooth="yes"/>
      <point x="373" y="143" type="line"/>
      <point x="299" y="143" type="line"/>
      <point x="299" y="573" type="line"/>
      <point x="299" y="788"/>
      <point x="383" y="948"/>
      <point x="500" y="948" type="curve" smooth="yes"/>
      <point x="528" y="948"/>
      <point x="555" y="944"/>
      <point x="582" y="934" type="curve"/>
      <point x="604" y="1106" type="line"/>
      <point x="573" y="1116"/>
      <point x="543" y="1120"/>
    </contour>
  </outline>
</glyph>
<glyph name="uni1D91" format="2">
  <advance width="946"/>
  <unicode hex="1D91"/>
  <outline>
    <contour>
      <point x="895" y="-492" type="curve" smooth="yes"/>
      <point x="934" y="-492"/>
      <point x="979" y="-483"/>
      <point x="1001" y="-473" type="curve"/>
      <point x="1001" y="-326" type="line"/>
      <point x="975" y="-336"/>
      <point x="944" y="-342"/>
      <point x="920" y="-342" type="curve" smooth="yes"/>
      <point x="844" y="-342"/>
      <point x="815" y="-309"/>
      <point x="815" y="-197" type="curve"/>
      <point x="815" y="1278" type="line" smooth="yes"/>
      <point x="815" y="1393"/>
      <point x="844" y="1425"/>
      <point x="920" y="1425" type="curve" smooth="yes"/>
      <point x="944" y="1425"/>
      <point x="975" y="1419"/>
      <point x="1001" y="1407" type="curve"/>
      <point x="1001" y="1554" type="line"/>
      <point x="979" y="1565"/>
      <point x="934" y="1573"/>
      <point x="895" y="1573" type="curve" smooth="yes"/>
      <point x="743" y="1573"/>
      <point x="649" y="1470"/>
      <point x="649" y="1284" type="curve" smooth="yes"/>
      <point x="649" y="1092" type="line" smooth="yes"/>
      <point x="649" y="1051"/>
      <point x="651" y="1004"/>
      <point x="655" y="958" type="curve"/>
      <point x="647" y="958" type="line"/>
      <point x="592" y="1063"/>
      <point x="502" y="1120"/>
      <point x="401" y="1120" type="curve" smooth="yes"/>
      <point x="199" y="1120"/>
      <point x="86" y="915"/>
      <point x="86" y="549" type="curve" smooth="yes"/>
      <point x="86" y="178"/>
      <point x="197" y="-20"/>
      <point x="408" y="-20" type="curve" smooth="yes"/>
      <point x="514" y="-20"/>
      <point x="590" y="35"/>
      <point x="649" y="139" type="curve"/>
      <point x="657" y="139" type="line"/>
      <point x="651" y="96"/>
      <point x="649" y="49"/>
      <point x="649" y="8" type="curve" smooth="yes"/>
      <point x="649" y="-205" type="line" smooth="yes"/>
      <point x="649" y="-406"/>
      <point x="743" y="-492"/>
    </contour>
    <contour>
      <point x="446" y="121" type="curve" smooth="yes"/>
      <point x="315" y="121"/>
      <point x="256" y="266"/>
      <point x="256" y="549" type="curve" smooth="yes"/>
      <point x="256" y="823"/>
      <point x="313" y="973"/>
      <point x="442" y="973" type="curve" smooth="yes"/>
      <point x="586" y="973"/>
      <point x="649" y="844"/>
      <point x="649" y="561" type="curve" smooth="yes"/>
      <point x="649" y="500" type="line" smooth="yes"/>
      <point x="649" y="246"/>
      <point x="580" y="121"/>
    </contour>
  </outline>
</glyph>
<glyph name="snakebelow" format="2">
  <unicode hex="1DC2"/>
  <anchor x="-2" y="0" name="_bottom"/>
  <anchor x="4" y="-434" name="bottom"/>
  <outline>
    <contour>
      <point x="76" y="-434" type="curve"/>
      <point x="76" y="-385" type="line"/>
      <point x="43" y="-383"/>
      <point x="10" y="-377"/>
      <point x="10" y="-365" type="curve" smooth="yes"/>
      <point x="10" y="-346"/>
      <point x="82" y="-350"/>
      <point x="82" y="-303" type="curve" smooth="yes"/>
      <point x="82" y="-254"/>
      <point x="10" y="-258"/>
      <point x="10" y="-242" type="curve" smooth="yes"/>
      <point x="10" y="-219"/>
      <point x="86" y="-215"/>
      <point x="86" y="-147" type="curve" smooth="yes"/>
      <point x="86" y="-106"/>
      <point x="45" y="-84"/>
      <point x="-2" y="-84" type="curve" smooth="yes"/>
      <point x="-33" y="-84"/>
      <point x="-66" y="-94"/>
      <point x="-88" y="-109" type="curve"/>
      <point x="-82" y="-166" type="line"/>
      <point x="-59" y="-152"/>
      <point x="-37" y="-145"/>
      <point x="-16" y="-145" type="curve" smooth="yes"/>
      <point x="0" y="-145"/>
      <point x="12" y="-152"/>
      <point x="12" y="-164" type="curve" smooth="yes"/>
      <point x="12" y="-186"/>
      <point x="-59" y="-201"/>
      <point x="-59" y="-244" type="curve" smooth="yes"/>
      <point x="-59" y="-289"/>
      <point x="8" y="-281"/>
      <point x="8" y="-303" type="curve" smooth="yes"/>
      <point x="8" y="-319"/>
      <point x="-59" y="-322"/>
      <point x="-59" y="-371" type="curve" smooth="yes"/>
      <point x="-59" y="-412"/>
      <point x="-6" y="-434"/>
    </contour>
  </outline>
</glyph>
<glyph name="uni1DFC" format="2">
  <unicode hex="1DFC"/>
  <anchor x="-2" y="18" name="_bottom"/>
  <outline>
    <contour>
      <point x="551" y="-444" type="line"/>
      <point x="530" y="-197"/>
      <point x="291" y="-104"/>
      <point x="0" y="-104" type="curve" smooth="yes"/>
      <point x="-309" y="-104"/>
      <point x="-530" y="-195"/>
      <point x="-555" y="-444" type="curve"/>
      <point x="-446" y="-444" type="line"/>
      <point x="-422" y="-276"/>
      <point x="-254" y="-231"/>
      <point x="2" y="-231" type="curve" smooth="yes"/>
      <point x="225" y="-231"/>
      <point x="420" y="-274"/>
      <point x="442" y="-444" type="curve"/>
    </contour>
  </outline>
</glyph>
<glyph name="longsdiagonalstroke" format="2">
  <advance width="465"/>
  <unicode hex="1E9C"/>
  <anchor x="233" y="0" name="bottom"/>
  <anchor x="233" y="1567" name="top"/>
  <outline>
    <contour>
      <point x="-41" y="776" type="line"/>
      <point x="20" y="668" type="line"/>
      <point x="502" y="999" type="line"/>
      <point x="438" y="1106" type="line"/>
    </contour>
    <component base="longs"/>
  </outline>
</glyph>
<glyph name="Germandbls" format="2">
  <advance width="1124"/>
  <unicode hex="1E9E"/>
  <anchor x="563" y="0" name="bottom"/>
  <anchor x="563" y="1462" name="top"/>
  <outline>
    <contour>
      <point x="528" y="1483" type="curve" smooth="yes"/>
      <point x="281" y="1483"/>
      <point x="137" y="1335"/>
      <point x="137" y="1004" type="curve" smooth="yes"/>
      <point x="137" y="0" type="line"/>
      <point x="309" y="0" type="line"/>
      <point x="309" y="1006" type="line" smooth="yes"/>
      <point x="309" y="1235"/>
      <point x="381" y="1325"/>
      <point x="528" y="1325" type="curve" smooth="yes"/>
      <point x="645" y="1325"/>
      <point x="717" y="1264"/>
      <point x="741" y="1122" type="curve"/>
      <point x="526" y="831" type="line"/>
      <point x="526" y="702" type="line"/>
      <point x="575" y="702" type="line" smooth="yes"/>
      <point x="760" y="702"/>
      <point x="852" y="610"/>
      <point x="852" y="426" type="curve" smooth="yes"/>
      <point x="852" y="236"/>
      <point x="780" y="135"/>
      <point x="621" y="135" type="curve" smooth="yes"/>
      <point x="541" y="135"/>
      <point x="457" y="164"/>
      <point x="401" y="217" type="curve"/>
      <point x="401" y="47" type="line"/>
      <point x="459" y="0"/>
      <point x="555" y="-20"/>
      <point x="637" y="-20" type="curve" smooth="yes"/>
      <point x="897" y="-20"/>
      <point x="1030" y="139"/>
      <point x="1030" y="422" type="curve" smooth="yes"/>
      <point x="1030" y="668"/>
      <point x="903" y="813"/>
      <point x="698" y="825" type="curve"/>
      <point x="918" y="1104" type="line"/>
      <point x="901" y="1358"/>
      <point x="748" y="1483"/>
    </contour>
  </outline>
</glyph>
<glyph name="LL-middleWelsh" format="2">
  <advance width="1217"/>
  <unicode hex="1EFA"/>
  <anchor x="610" y="0" name="bottom"/>
  <anchor x="610" y="1462" name="top"/>
  <outline>
    <contour>
      <point x="606" y="0" type="line"/>
      <point x="1182" y="0" type="line"/>
      <point x="1182" y="156" type="line"/>
      <point x="778" y="156" type="line"/>
      <point x="778" y="1462" type="line"/>
      <point x="606" y="1462" type="line"/>
    </contour>
    <contour>
      <point x="150" y="0" type="line"/>
      <point x="322" y="0" type="line"/>
      <point x="322" y="1462" type="line"/>
      <point x="150" y="1462" type="line"/>
    </contour>
  </outline>
</glyph>
<glyph name="uni1FCD" format="2">
  <advance width="1092"/>
  <unicode hex="1FCD"/>
  <anchor x="569" y="1100" name="_top"/>
  <anchor x="573" y="1579" name="top"/>
  <outline>
    <contour>
      <point x="696" y="1268" type="curve"/>
      <point x="772" y="1268" type="line"/>
      <point x="772" y="1292" type="line"/>
      <point x="748" y="1372"/>
      <point x="727" y="1470"/>
      <point x="713" y="1567" type="curve"/>
      <point x="565" y="1567" type="line"/>
      <point x="565" y="1542" type="line"/>
      <point x="594" y="1454"/>
      <point x="641" y="1362"/>
    </contour>
    <contour>
      <point x="365" y="1257" type="line"/>
      <point x="469" y="1262"/>
      <point x="535" y="1341"/>
      <point x="535" y="1450" type="curve" smooth="yes"/>
      <point x="535" y="1540"/>
      <point x="498" y="1579"/>
      <point x="442" y="1579" type="curve" smooth="yes"/>
      <point x="393" y="1579"/>
      <point x="365" y="1544"/>
      <point x="365" y="1495" type="curve" smooth="yes"/>
      <point x="365" y="1432"/>
      <point x="414" y="1419"/>
      <point x="434" y="1405" type="curve"/>
      <point x="434" y="1366"/>
      <point x="410" y="1321"/>
      <point x="365" y="1317" type="curve"/>
    </contour>
  </outline>
</glyph>
<glyph name="uni1FEE" format="2">
  <advance width="1061"/>
  <unicode hex="1FEE"/>
  <anchor x="532" y="1100" name="_top"/>
  <outline>
    <contour>
      <point x="455" y="1266" type="line"/>
      <point x="535" y="1266" type="line"/>
      <point x="575" y="1343"/>
      <point x="625" y="1462"/>
      <point x="647" y="1542" type="curve"/>
      <point x="647" y="1563" type="line"/>
      <point x="496" y="1563" type="line"/>
      <point x="492" y="1487"/>
      <point x="471" y="1362"/>
      <point x="455" y="1288" type="curve"/>
    </contour>
    <contour>
      <point x="322" y="1257" type="curve" smooth="yes"/>
      <point x="367" y="1257"/>
      <point x="403" y="1288"/>
      <point x="403" y="1360" type="curve" smooth="yes"/>
      <point x="403" y="1432"/>
      <point x="367" y="1462"/>
      <point x="322" y="1462" type="curve" smooth="yes"/>
      <point x="274" y="1462"/>
      <point x="238" y="1432"/>
      <point x="238" y="1360" type="curve" smooth="yes"/>
      <point x="238" y="1288"/>
      <point x="274" y="1257"/>
    </contour>
    <contour>
      <point x="739" y="1257" type="curve" smooth="yes"/>
      <point x="786" y="1257"/>
      <point x="823" y="1288"/>
      <point x="823" y="1360" type="curve" smooth="yes"/>
      <point x="823" y="1432"/>
      <point x="786" y="1462"/>
      <point x="739" y="1462" type="curve" smooth="yes"/>
      <point x="692" y="1462"/>
      <point x="655" y="1432"/>
      <point x="655" y="1360" type="curve" smooth="yes"/>
      <point x="655" y="1288"/>
      <point x="692" y="1257"/>
    </contour>
  </outline>
</glyph>
<glyph name="uni2012" format="2">
  <advance width="879"/>
  <unicode hex="2012"/>
  <outline>
    <contour>
      <point x="76" y="668" type="line"/>
      <point x="801" y="668" type="line"/>
      <point x="801" y="807" type="line"/>
      <point x="76" y="807" type="line"/>
    </contour>
  </outline>
</glyph>
<glyph name="primeReversed" format="2">
  <advance width="528"/>
  <unicode hex="2035"/>
  <outline>
    <contour>
      <point x="266" y="1462" type="line"/>
      <point x="80" y="1462" type="line"/>
      <point x="276" y="1032" type="line"/>
      <point x="395" y="1032" type="line"/>
    </contour>
  </outline>
</glyph>
<glyph name="referencemark" format="2">
  <advance width="1710"/>
  <unicode hex="203B"/>
  <outline>
    <contour>
      <point x="223" y="-4" type="line"/>
      <point x="854" y="635" type="line"/>
      <point x="1487" y="-4" type="line"/>
      <point x="1585" y="92" type="line"/>
      <point x="952" y="731" type="line"/>
      <point x="1585" y="1366" type="line"/>
      <point x="1489" y="1464" type="line"/>
      <point x="854" y="827" type="line"/>
      <point x="221" y="1464" type="line"/>
      <point x="125" y="1366" type="line"/>
      <point x="758" y="731" type="line"/>
      <point x="127" y="92" type="line"/>
    </contour>
    <contour>
      <point x="199" y="606" type="curve" smooth="yes"/>
      <point x="266" y="606"/>
      <point x="311" y="643"/>
      <point x="311" y="725" type="curve" smooth="yes"/>
      <point x="311" y="807"/>
      <point x="266" y="846"/>
      <point x="199" y="846" type="curve" smooth="yes"/>
      <point x="129" y="846"/>
      <point x="86" y="807"/>
      <point x="86" y="725" type="curve" smooth="yes"/>
      <point x="86" y="643"/>
      <point x="129" y="606"/>
    </contour>
    <contour>
      <point x="846" y="-35" type="curve" smooth="yes"/>
      <point x="913" y="-35"/>
      <point x="958" y="2"/>
      <point x="958" y="84" type="curve" smooth="yes"/>
      <point x="958" y="168"/>
      <point x="913" y="205"/>
      <point x="846" y="205" type="curve" smooth="yes"/>
      <point x="776" y="205"/>
      <point x="733" y="168"/>
      <point x="733" y="84" type="curve" smooth="yes"/>
      <point x="733" y="2"/>
      <point x="776" y="-35"/>
    </contour>
    <contour>
      <point x="846" y="1251" type="curve" smooth="yes"/>
      <point x="913" y="1251"/>
      <point x="958" y="1288"/>
      <point x="958" y="1372" type="curve" smooth="yes"/>
      <point x="958" y="1454"/>
      <point x="913" y="1491"/>
      <point x="846" y="1491" type="curve" smooth="yes"/>
      <point x="776" y="1491"/>
      <point x="733" y="1454"/>
      <point x="733" y="1372" type="curve" smooth="yes"/>
      <point x="733" y="1288"/>
      <point x="776" y="1251"/>
    </contour>
    <contour>
      <point x="1513" y="606" type="curve" smooth="yes"/>
      <point x="1581" y="606"/>
      <point x="1626" y="643"/>
      <point x="1626" y="725" type="curve" smooth="yes"/>
      <point x="1626" y="807"/>
      <point x="1581" y="846"/>
      <point x="1513" y="846" type="curve" smooth="yes"/>
      <point x="1444" y="846"/>
      <point x="1401" y="807"/>
      <point x="1401" y="725" type="curve" smooth="yes"/>
      <point x="1401" y="643"/>
      <point x="1444" y="606"/>
    </contour>
  </outline>
</glyph>
<glyph name="undertie" format="2">
  <advance width="1229"/>
  <unicode hex="203F"/>
  <outline>
    <contour>
      <point x="172" y="-96" type="curve"/>
      <point x="72" y="-135" type="line"/>
      <point x="156" y="-369"/>
      <point x="326" y="-537"/>
      <point x="616" y="-537" type="curve" smooth="yes"/>
      <point x="893" y="-537"/>
      <point x="1077" y="-367"/>
      <point x="1159" y="-135" type="curve"/>
      <point x="1059" y="-96" type="line"/>
      <point x="981" y="-260"/>
      <point x="846" y="-410"/>
      <point x="618" y="-410" type="curve" smooth="yes"/>
      <point x="362" y="-410"/>
      <point x="250" y="-258"/>
    </contour>
  </outline>
</glyph>
<glyph name="charactertie" format="2">
  <advance width="1229"/>
  <unicode hex="2040"/>
  <outline>
    <contour>
      <point x="172" y="1206" type="line"/>
      <point x="248" y="1368"/>
      <point x="385" y="1520"/>
      <point x="612" y="1520" type="curve" smooth="yes"/>
      <point x="868" y="1520"/>
      <point x="981" y="1366"/>
      <point x="1059" y="1206" type="curve"/>
      <point x="1159" y="1243" type="line"/>
      <point x="1073" y="1479"/>
      <point x="905" y="1647"/>
      <point x="612" y="1647" type="curve" smooth="yes"/>
      <point x="338" y="1647"/>
      <point x="154" y="1477"/>
      <point x="72" y="1243" type="curve"/>
    </contour>
  </outline>
</glyph>
<glyph name="caretinsertionpoint" format="2">
  <advance width="758"/>
  <unicode hex="2041"/>
  <outline>
    <contour>
      <point x="29" y="-492" type="line"/>
      <point x="162" y="-492" type="line"/>
      <point x="729" y="823" type="line"/>
      <point x="598" y="823" type="line"/>
    </contour>
    <contour>
      <point x="565" y="-492" type="line"/>
      <point x="692" y="-492" type="line"/>
      <point x="420" y="156" type="line"/>
      <point x="334" y="102" type="line"/>
      <point x="360" y="12" type="line"/>
    </contour>
  </outline>
</glyph>
<glyph name="blackleftbullet" format="2">
  <advance width="1092"/>
  <unicode hex="204C"/>
  <outline>
    <contour>
      <point x="539" y="76" type="curve" smooth="yes"/>
      <point x="926" y="76" type="line"/>
      <point x="926" y="1100" type="line"/>
      <point x="561" y="1100" type="line" smooth="yes"/>
      <point x="264" y="1100"/>
      <point x="111" y="936"/>
      <point x="111" y="584" type="curve" smooth="yes"/>
      <point x="111" y="225"/>
      <point x="256" y="76"/>
    </contour>
    <contour>
      <point x="590" y="209" type="line"/>
      <point x="590" y="965" type="line"/>
      <point x="797" y="965" type="line"/>
      <point x="797" y="209" type="line"/>
    </contour>
  </outline>
</glyph>
<glyph name="fivedotpunctuation" format="2">
  <advance width="1679"/>
  <unicode hex="2059"/>
  <outline>
    <contour>
      <point x="707" y="748" type="curve" smooth="yes"/>
      <point x="707" y="659"/>
      <point x="754" y="621"/>
      <point x="825" y="621" type="curve" smooth="yes"/>
      <point x="899" y="621"/>
      <point x="944" y="659"/>
      <point x="944" y="748" type="curve" smooth="yes"/>
      <point x="944" y="834"/>
      <point x="899" y="872"/>
      <point x="825" y="872" type="curve" smooth="yes"/>
      <point x="754" y="872"/>
      <point x="707" y="834"/>
    </contour>
    <contour>
      <point x="104" y="98" type="curve" smooth="yes"/>
      <point x="104" y="10"/>
      <point x="152" y="-29"/>
      <point x="223" y="-29" type="curve" smooth="yes"/>
      <point x="297" y="-29"/>
      <point x="342" y="10"/>
      <point x="342" y="98" type="curve" smooth="yes"/>
      <point x="342" y="184"/>
      <point x="297" y="223"/>
      <point x="223" y="223" type="curve" smooth="yes"/>
      <point x="152" y="223"/>
      <point x="104" y="184"/>
    </contour>
    <contour>
      <point x="1317" y="98" type="curve" smooth="yes"/>
      <point x="1317" y="10"/>
      <point x="1364" y="-29"/>
      <point x="1436" y="-29" type="curve" smooth="yes"/>
      <point x="1509" y="-29"/>
      <point x="1554" y="10"/>
      <point x="1554" y="98" type="curve" smooth="yes"/>
      <point x="1554" y="184"/>
      <point x="1509" y="223"/>
      <point x="1436" y="223" type="curve" smooth="yes"/>
      <point x="1364" y="223"/>
      <point x="1317" y="184"/>
    </contour>
    <contour>
      <point x="104" y="1364" type="curve" smooth="yes"/>
      <point x="104" y="1278"/>
      <point x="152" y="1239"/>
      <point x="223" y="1239" type="curve" smooth="yes"/>
      <point x="297" y="1239"/>
      <point x="342" y="1278"/>
      <point x="342" y="1364" type="curve" smooth="yes"/>
      <point x="342" y="1452"/>
      <point x="297" y="1491"/>
      <point x="223" y="1491" type="curve" smooth="yes"/>
      <point x="152" y="1491"/>
      <point x="104" y="1452"/>
    </contour>
    <contour>
      <point x="1337" y="1364" type="curve" smooth="yes"/>
      <point x="1337" y="1278"/>
      <point x="1384" y="1239"/>
      <point x="1456" y="1239" type="curve" smooth="yes"/>
      <point x="1530" y="1239"/>
      <point x="1575" y="1278"/>
      <point x="1575" y="1364" type="curve" smooth="yes"/>
      <point x="1575" y="1452"/>
      <point x="1530" y="1491"/>
      <point x="1456" y="1491" type="curve" smooth="yes"/>
      <point x="1384" y="1491"/>
      <point x="1337" y="1452"/>
    </contour>
  </outline>
</glyph>
<glyph name="dottedcross" format="2">
  <advance width="1608"/>
  <unicode hex="205C"/>
  <outline>
    <contour>
      <point x="727" y="-41" type="line"/>
      <point x="883" y="-41" type="line"/>
      <point x="883" y="651" type="line"/>
      <point x="1538" y="651" type="line"/>
      <point x="1540" y="807" type="line"/>
      <point x="883" y="807" type="line"/>
      <point x="883" y="1499" type="line"/>
      <point x="727" y="1497" type="line"/>
      <point x="727" y="807" type="line"/>
      <point x="72" y="807" type="line"/>
      <point x="72" y="651" type="line"/>
      <point x="727" y="651" type="line"/>
    </contour>
    <contour>
      <point x="350" y="143" type="curve" smooth="yes"/>
      <point x="424" y="143"/>
      <point x="469" y="182"/>
      <point x="469" y="268" type="curve" smooth="yes"/>
      <point x="469" y="356"/>
      <point x="424" y="393"/>
      <point x="350" y="393" type="curve" smooth="yes"/>
      <point x="279" y="393"/>
      <point x="231" y="356"/>
      <point x="231" y="268" type="curve" smooth="yes"/>
      <point x="231" y="182"/>
      <point x="279" y="143"/>
    </contour>
    <contour>
      <point x="1241" y="143" type="curve" smooth="yes"/>
      <point x="1315" y="143"/>
      <point x="1360" y="182"/>
      <point x="1360" y="268" type="curve" smooth="yes"/>
      <point x="1360" y="356"/>
      <point x="1315" y="393"/>
      <point x="1241" y="393" type="curve" smooth="yes"/>
      <point x="1169" y="393"/>
      <point x="1122" y="356"/>
      <point x="1122" y="268" type="curve" smooth="yes"/>
      <point x="1122" y="182"/>
      <point x="1169" y="143"/>
    </contour>
    <contour>
      <point x="350" y="1067" type="curve" smooth="yes"/>
      <point x="424" y="1067"/>
      <point x="469" y="1108"/>
      <point x="469" y="1192" type="curve" smooth="yes"/>
      <point x="469" y="1282"/>
      <point x="424" y="1319"/>
      <point x="350" y="1319" type="curve" smooth="yes"/>
      <point x="279" y="1319"/>
      <point x="231" y="1282"/>
      <point x="231" y="1192" type="curve" smooth="yes"/>
      <point x="231" y="1108"/>
      <point x="279" y="1067"/>
    </contour>
    <contour>
      <point x="1260" y="1067" type="curve" smooth="yes"/>
      <point x="1333" y="1067"/>
      <point x="1378" y="1106"/>
      <point x="1378" y="1192" type="curve" smooth="yes"/>
      <point x="1378" y="1282"/>
      <point x="1333" y="1319"/>
      <point x="1260" y="1319" type="curve" smooth="yes"/>
      <point x="1188" y="1319"/>
      <point x="1141" y="1282"/>
      <point x="1141" y="1192" type="curve" smooth="yes"/>
      <point x="1141" y="1108"/>
      <point x="1188" y="1067"/>
    </contour>
  </outline>
</glyph>
<glyph name="fivesuperior" format="2">
  <advance width="643"/>
  <unicode hex="2075"/>
  <outline>
    <contour>
      <point x="508" y="1726" type="line"/>
      <point x="133" y="1726" type="line"/>
      <point x="98" y="1323" type="line"/>
      <point x="172" y="1268" type="line"/>
      <point x="207" y="1282"/>
      <point x="242" y="1290"/>
      <point x="276" y="1290" type="curve" smooth="yes"/>
      <point x="369" y="1290"/>
      <point x="424" y="1233"/>
      <point x="424" y="1130" type="curve" smooth="yes"/>
      <point x="424" y="1008"/>
      <point x="369" y="948"/>
      <point x="266" y="948" type="curve" smooth="yes"/>
      <point x="199" y="948"/>
      <point x="137" y="967"/>
      <point x="86" y="1001" type="curve"/>
      <point x="86" y="870" type="line"/>
      <point x="145" y="844"/>
      <point x="209" y="831"/>
      <point x="279" y="831" type="curve" smooth="yes"/>
      <point x="457" y="831"/>
      <point x="559" y="940"/>
      <point x="559" y="1128" type="curve" smooth="yes"/>
      <point x="559" y="1294"/>
      <point x="461" y="1399"/>
      <point x="301" y="1399" type="curve" smooth="yes"/>
      <point x="274" y="1399"/>
      <point x="246" y="1395"/>
      <point x="213" y="1389" type="curve"/>
      <point x="233" y="1604" type="line"/>
      <point x="508" y="1604" type="line"/>
    </contour>
  </outline>
</glyph>
<glyph name="eightsuperior" format="2">
  <advance width="643"/>
  <unicode hex="2078"/>
  <outline>
    <contour>
      <point x="326" y="1743" type="curve" smooth="yes"/>
      <point x="178" y="1743"/>
      <point x="80" y="1655"/>
      <point x="80" y="1518" type="curve" smooth="yes"/>
      <point x="80" y="1434"/>
      <point x="117" y="1370"/>
      <point x="211" y="1305" type="curve"/>
      <point x="100" y="1241"/>
      <point x="53" y="1171"/>
      <point x="53" y="1079" type="curve" smooth="yes"/>
      <point x="53" y="924"/>
      <point x="156" y="831"/>
      <point x="322" y="831" type="curve" smooth="yes"/>
      <point x="483" y="831"/>
      <point x="588" y="934"/>
      <point x="588" y="1085" type="curve" smooth="yes"/>
      <point x="588" y="1186"/>
      <point x="535" y="1262"/>
      <point x="420" y="1315" type="curve"/>
      <point x="520" y="1366"/>
      <point x="565" y="1432"/>
      <point x="565" y="1518" type="curve" smooth="yes"/>
      <point x="565" y="1657"/>
      <point x="471" y="1743"/>
    </contour>
    <contour>
      <point x="313" y="1251" type="curve"/>
      <point x="336" y="1241" type="line" smooth="yes"/>
      <point x="424" y="1200"/>
      <point x="461" y="1151"/>
      <point x="461" y="1081" type="curve" smooth="yes"/>
      <point x="461" y="995"/>
      <point x="410" y="942"/>
      <point x="322" y="942" type="curve" smooth="yes"/>
      <point x="240" y="942"/>
      <point x="184" y="1001"/>
      <point x="184" y="1083" type="curve" smooth="yes"/>
      <point x="184" y="1155"/>
      <point x="229" y="1212"/>
    </contour>
    <contour>
      <point x="324" y="1632" type="curve" smooth="yes"/>
      <point x="393" y="1632"/>
      <point x="442" y="1581"/>
      <point x="442" y="1511" type="curve" smooth="yes"/>
      <point x="442" y="1448"/>
      <point x="399" y="1397"/>
      <point x="326" y="1362" type="curve"/>
      <point x="250" y="1401"/>
      <point x="207" y="1444"/>
      <point x="207" y="1511" type="curve" smooth="yes"/>
      <point x="207" y="1579"/>
      <point x="256" y="1632"/>
    </contour>
  </outline>
</glyph>
<glyph name="parenleftsuperior" format="2">
  <advance width="465"/>
  <unicode hex="207D"/>
  <outline>
    <contour>
      <point x="80" y="1022" type="curve" smooth="yes"/>
      <point x="80" y="795"/>
      <point x="150" y="604"/>
      <point x="268" y="471" type="curve"/>
      <point x="406" y="471" type="line"/>
      <point x="274" y="621"/>
      <point x="209" y="823"/>
      <point x="209" y="1022" type="curve" smooth="yes"/>
      <point x="209" y="1227"/>
      <point x="276" y="1423"/>
      <point x="406" y="1571" type="curve"/>
      <point x="268" y="1571" type="line"/>
      <point x="145" y="1430"/>
      <point x="80" y="1249"/>
    </contour>
  </outline>
</glyph>
<glyph name="uni20A2" format="2">
  <advance width="862"/>
  <unicode hex="20A2"/>
  <outline>
    <contour>
      <point x="571" y="1485" type="curve" smooth="yes"/>
      <point x="256" y="1485"/>
      <point x="102" y="1149"/>
      <point x="102" y="733" type="curve" smooth="yes"/>
      <point x="102" y="260"/>
      <point x="281" y="-20"/>
      <point x="553" y="-20" type="curve" smooth="yes"/>
      <point x="657" y="-20"/>
      <point x="735" y="-2"/>
      <point x="799" y="35" type="curve"/>
      <point x="799" y="190" type="line"/>
      <point x="748" y="164"/>
      <point x="690" y="147"/>
      <point x="614" y="141" type="curve"/>
      <point x="614" y="369" type="line" smooth="yes"/>
      <point x="614" y="584"/>
      <point x="676" y="743"/>
      <point x="764" y="743" type="curve" smooth="yes"/>
      <point x="782" y="743"/>
      <point x="795" y="739"/>
      <point x="813" y="731" type="curve"/>
      <point x="838" y="903" type="line"/>
      <point x="813" y="911"/>
      <point x="797" y="915"/>
      <point x="774" y="915" type="curve" smooth="yes"/>
      <point x="702" y="915"/>
      <point x="643" y="846"/>
      <point x="606" y="707" type="curve"/>
      <point x="598" y="707" type="line"/>
      <point x="582" y="895" type="line"/>
      <point x="469" y="895" type="line"/>
      <point x="469" y="162" type="line"/>
      <point x="350" y="225"/>
      <point x="272" y="426"/>
      <point x="272" y="731" type="curve" smooth="yes"/>
      <point x="272" y="1059"/>
      <point x="360" y="1329"/>
      <point x="580" y="1329" type="curve" smooth="yes"/>
      <point x="651" y="1329"/>
      <point x="715" y="1305"/>
      <point x="776" y="1266" type="curve"/>
      <point x="834" y="1411" type="line"/>
      <point x="756" y="1460"/>
      <point x="668" y="1485"/>
    </contour>
  </outline>
</glyph>
<glyph name="uni20B4" format="2">
  <advance width="879"/>
  <unicode hex="20B4"/>
  <outline>
    <contour>
      <point x="473" y="-20" type="curve" smooth="yes"/>
      <point x="592" y="-20"/>
      <point x="694" y="0"/>
      <point x="780" y="43" type="curve"/>
      <point x="780" y="219" type="line"/>
      <point x="688" y="164"/>
      <point x="582" y="141"/>
      <point x="492" y="141" type="curve" smooth="yes"/>
      <point x="354" y="141"/>
      <point x="270" y="256"/>
      <point x="270" y="389" type="curve" smooth="yes"/>
      <point x="270" y="457"/>
      <point x="283" y="506"/>
      <point x="311" y="551" type="curve"/>
      <point x="870" y="551" type="line"/>
      <point x="870" y="657" type="line"/>
      <point x="418" y="657" type="line"/>
      <point x="483" y="711"/>
      <point x="618" y="764"/>
      <point x="688" y="842" type="curve"/>
      <point x="870" y="842" type="line"/>
      <point x="870" y="948" type="line"/>
      <point x="748" y="948" type="line"/>
      <point x="762" y="991"/>
      <point x="768" y="1038"/>
      <point x="768" y="1098" type="curve" smooth="yes"/>
      <point x="772" y="1325"/>
      <point x="618" y="1485"/>
      <point x="403" y="1483" type="curve" smooth="yes"/>
      <point x="291" y="1483"/>
      <point x="184" y="1450"/>
      <point x="113" y="1411" type="curve"/>
      <point x="164" y="1255" type="line"/>
      <point x="244" y="1298"/>
      <point x="322" y="1321"/>
      <point x="395" y="1321" type="curve" smooth="yes"/>
      <point x="524" y="1321"/>
      <point x="600" y="1229"/>
      <point x="600" y="1104" type="curve" smooth="yes"/>
      <point x="600" y="1038"/>
      <point x="590" y="991"/>
      <point x="565" y="948" type="curve"/>
      <point x="8" y="948" type="line"/>
      <point x="8" y="842" type="line"/>
      <point x="467" y="842" type="line"/>
      <point x="403" y="791"/>
      <point x="256" y="731"/>
      <point x="193" y="657" type="curve"/>
      <point x="8" y="657" type="line"/>
      <point x="8" y="551" type="line"/>
      <point x="127" y="551" type="line"/>
      <point x="109" y="506"/>
      <point x="100" y="457"/>
      <point x="100" y="401" type="curve" smooth="yes"/>
      <point x="100" y="147"/>
      <point x="240" y="-20"/>
    </contour>
  </outline>
</glyph>
<glyph name="tenge" format="2">
  <advance width="780"/>
  <unicode hex="20B8"/>
  <outline>
    <contour>
      <point x="475" y="0" type="line"/>
      <point x="475" y="1028" type="line"/>
      <point x="758" y="1028" type="line"/>
      <point x="758" y="1165" type="line"/>
      <point x="20" y="1165" type="line"/>
      <point x="20" y="1028" type="line"/>
      <point x="303" y="1028" type="line"/>
      <point x="303" y="0" type="line"/>
    </contour>
    <contour>
      <point x="20" y="1462" type="line"/>
      <point x="20" y="1325" type="line"/>
      <point x="758" y="1325" type="line"/>
      <point x="758" y="1462" type="line"/>
    </contour>
  </outline>
</glyph>
<glyph name="uni20BA" format="2">
  <advance width="879"/>
  <unicode hex="20BA"/>
  <outline>
    <contour>
      <point x="315" y="-18" type="curve" smooth="yes"/>
      <point x="639" y="-18"/>
      <point x="811" y="182"/>
      <point x="811" y="709" type="curve"/>
      <point x="637" y="709" type="line"/>
      <point x="637" y="291"/>
      <point x="541" y="139"/>
      <point x="344" y="139" type="curve"/>
      <point x="344" y="719" type="line"/>
      <point x="643" y="823" type="line"/>
      <point x="643" y="950" type="line"/>
      <point x="344" y="848" type="line"/>
      <point x="344" y="1040" type="line"/>
      <point x="643" y="1141" type="line"/>
      <point x="643" y="1270" type="line"/>
      <point x="344" y="1165" type="line"/>
      <point x="344" y="1462" type="line"/>
      <point x="174" y="1462" type="line"/>
      <point x="174" y="1106" type="line"/>
      <point x="33" y="1061" type="line"/>
      <point x="33" y="932" type="line"/>
      <point x="174" y="981" type="line"/>
      <point x="174" y="788" type="line"/>
      <point x="33" y="739" type="line"/>
      <point x="33" y="612" type="line"/>
      <point x="174" y="659" type="line"/>
      <point x="174" y="0" type="line"/>
      <point x="213" y="-10"/>
      <point x="264" y="-18"/>
    </contour>
  </outline>
</glyph>
<glyph name="centrelinesymbol" format="2">
  <advance width="883"/>
  <unicode hex="2104"/>
  <outline>
    <contour>
      <point x="848" y="0" type="line"/>
      <point x="848" y="139" type="line"/>
      <point x="446" y="139" type="line"/>
      <point x="446" y="395" type="line"/>
      <point x="492" y="403"/>
      <point x="528" y="418"/>
      <point x="561" y="440" type="curve"/>
      <point x="561" y="551" type="line"/>
      <point x="524" y="528"/>
      <point x="487" y="512"/>
      <point x="446" y="502" type="curve"/>
      <point x="446" y="1106" type="line"/>
      <point x="477" y="1100"/>
      <point x="510" y="1087"/>
      <point x="541" y="1071" type="curve"/>
      <point x="575" y="1174" type="line"/>
      <point x="537" y="1194"/>
      <point x="494" y="1208"/>
      <point x="446" y="1214" type="curve"/>
      <point x="446" y="1462" type="line"/>
      <point x="305" y="1462" type="line"/>
      <point x="305" y="1208" type="line"/>
      <point x="160" y="1171"/>
      <point x="72" y="1030"/>
      <point x="72" y="801" type="curve" smooth="yes"/>
      <point x="72" y="569"/>
      <point x="156" y="428"/>
      <point x="305" y="397" type="curve"/>
      <point x="305" y="0" type="line"/>
    </contour>
    <contour>
      <point x="195" y="801" type="curve" smooth="yes"/>
      <point x="195" y="961"/>
      <point x="233" y="1059"/>
      <point x="305" y="1096" type="curve"/>
      <point x="305" y="512" type="line"/>
      <point x="233" y="549"/>
      <point x="195" y="651"/>
    </contour>
  </outline>
</glyph>
<glyph name="planckconstant" format="2">
  <advance width="850"/>
  <unicode hex="210E"/>
  <outline>
    <contour>
      <point x="33" y="0" type="line"/>
      <point x="197" y="0" type="line"/>
      <point x="326" y="606" type="line" smooth="yes"/>
      <point x="381" y="858"/>
      <point x="455" y="973"/>
      <point x="571" y="973" type="curve" smooth="yes"/>
      <point x="627" y="973"/>
      <point x="655" y="930"/>
      <point x="655" y="866" type="curve" smooth="yes"/>
      <point x="655" y="831"/>
      <point x="649" y="797"/>
      <point x="643" y="762" type="curve" smooth="yes"/>
      <point x="483" y="0" type="line"/>
      <point x="645" y="0" type="line"/>
      <point x="809" y="774" type="line" smooth="yes"/>
      <point x="817" y="821"/>
      <point x="825" y="868"/>
      <point x="825" y="907" type="curve" smooth="yes"/>
      <point x="825" y="1040"/>
      <point x="756" y="1120"/>
      <point x="631" y="1120" type="curve" smooth="yes"/>
      <point x="532" y="1120"/>
      <point x="455" y="1065"/>
      <point x="393" y="961" type="curve"/>
      <point x="385" y="961" type="line"/>
      <point x="408" y="1024"/>
      <point x="426" y="1090"/>
      <point x="438" y="1151" type="curve" smooth="yes"/>
      <point x="526" y="1556" type="line"/>
      <point x="362" y="1556" type="line"/>
    </contour>
  </outline>
</glyph>
<glyph name="uni214E" format="2">
  <advance width="696"/>
  <unicode hex="214E"/>
  <outline>
    <contour>
      <point x="61" y="0" type="line"/>
      <point x="561" y="0" type="line"/>
      <point x="561" y="1096" type="line"/>
      <point x="397" y="1096" type="line"/>
      <point x="397" y="639" type="line"/>
      <point x="86" y="639" type="line"/>
      <point x="86" y="500" type="line"/>
      <point x="397" y="500" type="line"/>
      <point x="397" y="141" type="line"/>
      <point x="61" y="141" type="line"/>
    </contour>
  </outline>
</glyph>
<glyph name="threeeighths" format="2">
  <advance width="1522"/>
  <unicode hex="215C"/>
  <outline>
    <contour>
      <point x="303" y="0" type="line"/>
      <point x="444" y="0" type="line"/>
      <point x="1196" y="1462" type="line"/>
      <point x="1053" y="1462" type="line"/>
    </contour>
    <contour>
      <point x="268" y="569" type="curve" smooth="yes"/>
      <point x="440" y="569"/>
      <point x="559" y="666"/>
      <point x="559" y="821" type="curve" smooth="yes"/>
      <point x="559" y="938"/>
      <point x="504" y="1012"/>
      <point x="395" y="1042" type="curve"/>
      <point x="395" y="1051" type="line"/>
      <point x="483" y="1087"/>
      <point x="532" y="1159"/>
      <point x="532" y="1257" type="curve" smooth="yes"/>
      <point x="532" y="1399"/>
      <point x="438" y="1483"/>
      <point x="287" y="1483" type="curve" smooth="yes"/>
      <point x="199" y="1483"/>
      <point x="121" y="1450"/>
      <point x="49" y="1384" type="curve"/>
      <point x="115" y="1290" type="line"/>
      <point x="168" y="1339"/>
      <point x="217" y="1364"/>
      <point x="274" y="1364" type="curve" smooth="yes"/>
      <point x="356" y="1364"/>
      <point x="403" y="1319"/>
      <point x="403" y="1243" type="curve" smooth="yes"/>
      <point x="403" y="1153"/>
      <point x="346" y="1096"/>
      <point x="242" y="1096" type="curve" smooth="yes"/>
      <point x="176" y="1096" type="line"/>
      <point x="176" y="983" type="line"/>
      <point x="246" y="983" type="line" smooth="yes"/>
      <point x="365" y="983"/>
      <point x="424" y="930"/>
      <point x="424" y="827" type="curve" smooth="yes"/>
      <point x="424" y="745"/>
      <point x="377" y="692"/>
      <point x="268" y="692" type="curve" smooth="yes"/>
      <point x="190" y="692"/>
      <point x="121" y="713"/>
      <point x="57" y="752" type="curve"/>
      <point x="57" y="621" type="line"/>
      <point x="123" y="586"/>
      <point x="193" y="569"/>
    </contour>
    <contour>
      <point x="1184" y="90" type="curve" smooth="yes"/>
      <point x="1102" y="90"/>
      <point x="1047" y="147"/>
      <point x="1047" y="229" type="curve" smooth="yes"/>
      <point x="1047" y="303"/>
      <point x="1092" y="358"/>
      <point x="1176" y="399" type="curve"/>
      <point x="1198" y="389" type="line" smooth="yes"/>
      <point x="1286" y="346"/>
      <point x="1323" y="297"/>
      <point x="1323" y="227" type="curve" smooth="yes"/>
      <point x="1323" y="141"/>
      <point x="1272" y="90"/>
    </contour>
    <contour>
      <point x="1186" y="-20" type="curve" smooth="yes"/>
      <point x="1348" y="-20"/>
      <point x="1452" y="80"/>
      <point x="1452" y="231" type="curve" smooth="yes"/>
      <point x="1452" y="334"/>
      <point x="1399" y="410"/>
      <point x="1284" y="461" type="curve"/>
      <point x="1384" y="514"/>
      <point x="1430" y="580"/>
      <point x="1430" y="666" type="curve" smooth="yes"/>
      <point x="1430" y="803"/>
      <point x="1335" y="891"/>
      <point x="1190" y="891" type="curve" smooth="yes"/>
      <point x="1042" y="891"/>
      <point x="944" y="801"/>
      <point x="944" y="664" type="curve" smooth="yes"/>
      <point x="944" y="582"/>
      <point x="981" y="516"/>
      <point x="1075" y="453" type="curve"/>
      <point x="965" y="389"/>
      <point x="918" y="319"/>
      <point x="918" y="227" type="curve" smooth="yes"/>
      <point x="918" y="72"/>
      <point x="1020" y="-20"/>
    </contour>
    <contour>
      <point x="1188" y="508" type="curve"/>
      <point x="1112" y="547"/>
      <point x="1069" y="592"/>
      <point x="1069" y="657" type="curve" smooth="yes"/>
      <point x="1069" y="727"/>
      <point x="1118" y="780"/>
      <point x="1186" y="780" type="curve" smooth="yes"/>
      <point x="1255" y="780"/>
      <point x="1305" y="729"/>
      <point x="1305" y="659" type="curve" smooth="yes"/>
      <point x="1305" y="594"/>
      <point x="1262" y="545"/>
    </contour>
  </outline>
</glyph>
<glyph name="seveneighths" format="2">
  <advance width="1522"/>
  <unicode hex="215E"/>
  <outline>
    <contour>
      <point x="258" y="0" type="line"/>
      <point x="399" y="0" type="line"/>
      <point x="1151" y="1462" type="line"/>
      <point x="1008" y="1462" type="line"/>
    </contour>
    <contour>
      <point x="172" y="586" type="line"/>
      <point x="315" y="586" type="line"/>
      <point x="596" y="1362" type="line"/>
      <point x="596" y="1462" type="line"/>
      <point x="94" y="1462" type="line"/>
      <point x="94" y="1341" type="line"/>
      <point x="459" y="1341" type="line"/>
    </contour>
    <contour>
      <point x="1184" y="90" type="curve" smooth="yes"/>
      <point x="1102" y="90"/>
      <point x="1047" y="147"/>
      <point x="1047" y="229" type="curve" smooth="yes"/>
      <point x="1047" y="303"/>
      <point x="1092" y="358"/>
      <point x="1176" y="399" type="curve"/>
      <point x="1198" y="389" type="line" smooth="yes"/>
      <point x="1286" y="346"/>
      <point x="1323" y="297"/>
      <point x="1323" y="227" type="curve" smooth="yes"/>
      <point x="1323" y="141"/>
      <point x="1272" y="90"/>
    </contour>
    <contour>
      <point x="1186" y="-20" type="curve" smooth="yes"/>
      <point x="1348" y="-20"/>
      <point x="1452" y="80"/>
      <point x="1452" y="231" type="curve" smooth="yes"/>
      <point x="1452" y="334"/>
      <point x="1399" y="410"/>
      <point x="1284" y="461" type="curve"/>
      <point x="1384" y="514"/>
      <point x="1430" y="580"/>
      <point x="1430" y="666" type="curve" smooth="yes"/>
      <point x="1430" y="803"/>
      <point x="1335" y="891"/>
      <point x="1190" y="891" type="curve" smooth="yes"/>
      <point x="1042" y="891"/>
      <point x="944" y="801"/>
      <point x="944" y="664" type="curve" smooth="yes"/>
      <point x="944" y="582"/>
      <point x="981" y="516"/>
      <point x="1075" y="453" type="curve"/>
      <point x="965" y="389"/>
      <point x="918" y="319"/>
      <point x="918" y="227" type="curve" smooth="yes"/>
      <point x="918" y="72"/>
      <point x="1020" y="-20"/>
    </contour>
    <contour>
      <point x="1188" y="508" type="curve"/>
      <point x="1112" y="547"/>
      <point x="1069" y="592"/>
      <point x="1069" y="657" type="curve" smooth="yes"/>
      <point x="1069" y="727"/>
      <point x="1118" y="780"/>
      <point x="1186" y="780" type="curve" smooth="yes"/>
      <point x="1255" y="780"/>
      <point x="1305" y="729"/>
      <point x="1305" y="659" type="curve" smooth="yes"/>
      <point x="1305" y="594"/>
      <point x="1262" y="545"/>
    </contour>
  </outline>
</glyph>
<glyph name="minus" format="2">
  <advance width="881"/>
  <unicode hex="2212"/>
  <outline>
    <contour>
      <point x="61" y="653" type="line"/>
      <point x="817" y="653" type="line"/>
      <point x="817" y="793" type="line"/>
      <point x="61" y="793" type="line"/>
    </contour>
  </outline>
</glyph>
<glyph name="infinity" format="2">
  <advance width="1448"/>
  <unicode hex="221E"/>
  <outline>
    <contour>
      <point x="1333" y="715" type="curve" smooth="yes"/>
      <point x="1333" y="899"/>
      <point x="1210" y="1030"/>
      <point x="1040" y="1030" type="curve" smooth="yes"/>
      <point x="911" y="1030"/>
      <point x="801" y="956"/>
      <point x="721" y="827" type="curve"/>
      <point x="639" y="975"/>
      <point x="545" y="1040"/>
      <point x="414" y="1040" type="curve" smooth="yes"/>
      <point x="244" y="1040"/>
      <point x="115" y="909"/>
      <point x="115" y="723" type="curve" smooth="yes"/>
      <point x="115" y="535"/>
      <point x="233" y="403"/>
      <point x="414" y="403" type="curve" smooth="yes"/>
      <point x="530" y="403"/>
      <point x="643" y="481"/>
      <point x="723" y="614" type="curve"/>
      <point x="807" y="469"/>
      <point x="911" y="397"/>
      <point x="1042" y="397" type="curve" smooth="yes"/>
      <point x="1212" y="397"/>
      <point x="1333" y="549"/>
    </contour>
    <contour>
      <point x="653" y="717" type="curve"/>
      <point x="584" y="596"/>
      <point x="512" y="539"/>
      <point x="422" y="539" type="curve" smooth="yes"/>
      <point x="315" y="539"/>
      <point x="246" y="612"/>
      <point x="246" y="719" type="curve" smooth="yes"/>
      <point x="246" y="829"/>
      <point x="315" y="903"/>
      <point x="424" y="903" type="curve" smooth="yes"/>
      <point x="510" y="903"/>
      <point x="586" y="840"/>
    </contour>
    <contour>
      <point x="1200" y="717" type="curve" smooth="yes"/>
      <point x="1200" y="608"/>
      <point x="1130" y="535"/>
      <point x="1024" y="535" type="curve" smooth="yes"/>
      <point x="938" y="535"/>
      <point x="860" y="602"/>
      <point x="791" y="725" type="curve"/>
      <point x="864" y="844"/>
      <point x="934" y="895"/>
      <point x="1022" y="895" type="curve" smooth="yes"/>
      <point x="1128" y="895"/>
      <point x="1200" y="821"/>
    </contour>
  </outline>
</glyph>
<glyph name="lozenge" format="2">
  <advance width="1190"/>
  <unicode hex="25CA"/>
  <outline>
    <contour>
      <point x="557" y="0" type="line"/>
      <point x="633" y="0" type="line"/>
      <point x="1085" y="737" type="line"/>
      <point x="633" y="1475" type="line"/>
      <point x="557" y="1475" type="line"/>
      <point x="106" y="735" type="line"/>
    </contour>
    <contour>
      <point x="594" y="201" type="line"/>
      <point x="272" y="735" type="line"/>
      <point x="594" y="1272" type="line"/>
      <point x="915" y="735" type="line"/>
    </contour>
  </outline>
</glyph>
<glyph name="uni2C64" format="2">
  <advance width="944"/>
  <unicode hex="2C64"/>
  <anchor x="473" y="-395" name="bottom"/>
  <anchor x="473" y="1462" name="top"/>
  <outline>
    <contour>
      <point x="408" y="1462" type="curve" smooth="yes"/>
      <point x="150" y="1462" type="line"/>
      <point x="150" y="-39" type="line" smooth="yes"/>
      <point x="150" y="-289"/>
      <point x="242" y="-395"/>
      <point x="426" y="-395" type="curve" smooth="yes"/>
      <point x="475" y="-395"/>
      <point x="516" y="-389"/>
      <point x="555" y="-373" type="curve"/>
      <point x="555" y="-219" type="line"/>
      <point x="522" y="-231"/>
      <point x="485" y="-240"/>
      <point x="442" y="-240" type="curve" smooth="yes"/>
      <point x="352" y="-240"/>
      <point x="322" y="-172"/>
      <point x="322" y="-18" type="curve" smooth="yes"/>
      <point x="322" y="612" type="line"/>
      <point x="467" y="612" type="line"/>
      <point x="727" y="0" type="line"/>
      <point x="918" y="0" type="line"/>
      <point x="623" y="655" type="line"/>
      <point x="780" y="727"/>
      <point x="846" y="858"/>
      <point x="846" y="1051" type="curve" smooth="yes"/>
      <point x="846" y="1325"/>
      <point x="709" y="1462"/>
    </contour>
    <contour>
      <point x="410" y="1307" type="line" smooth="yes"/>
      <point x="588" y="1307"/>
      <point x="670" y="1229"/>
      <point x="670" y="1042" type="curve" smooth="yes"/>
      <point x="670" y="852"/>
      <point x="584" y="756"/>
      <point x="428" y="756" type="curve" smooth="yes"/>
      <point x="322" y="756" type="line"/>
      <point x="322" y="1307" type="line"/>
    </contour>
  </outline>
</glyph>
<glyph name="uni2C74" format="2">
  <advance width="758"/>
  <unicode hex="2C74"/>
  <anchor x="379" y="0" name="bottom"/>
  <anchor x="379" y="1100" name="top"/>
  <outline>
    <contour>
      <point x="268" y="1116" type="curve" smooth="yes"/>
      <point x="164" y="1116"/>
      <point x="76" y="1053"/>
      <point x="76" y="899" type="curve" smooth="yes"/>
      <point x="76" y="819"/>
      <point x="92" y="731"/>
      <point x="115" y="649" type="curve"/>
      <point x="82" y="643"/>
      <point x="51" y="641"/>
      <point x="12" y="641" type="curve"/>
      <point x="12" y="528" type="line"/>
      <point x="55" y="526"/>
      <point x="106" y="530"/>
      <point x="145" y="539" type="curve"/>
      <point x="283" y="0" type="line"/>
      <point x="469" y="0" type="line"/>
      <point x="750" y="1100" type="line"/>
      <point x="580" y="1100" type="line"/>
      <point x="422" y="403" type="line" smooth="yes"/>
      <point x="399" y="313"/>
      <point x="385" y="238"/>
      <point x="381" y="190" type="curve"/>
      <point x="373" y="190" type="line"/>
      <point x="358" y="279"/>
      <point x="346" y="356"/>
      <point x="326" y="438" type="curve" smooth="yes"/>
      <point x="291" y="582" type="line"/>
      <point x="389" y="649"/>
      <point x="449" y="748"/>
      <point x="449" y="899" type="curve" smooth="yes"/>
      <point x="449" y="1036"/>
      <point x="377" y="1116"/>
    </contour>
    <contour>
      <point x="264" y="1001" type="curve" smooth="yes"/>
      <point x="301" y="1001"/>
      <point x="330" y="967"/>
      <point x="330" y="899" type="curve" smooth="yes"/>
      <point x="330" y="788"/>
      <point x="289" y="733"/>
      <point x="238" y="694" type="curve"/>
      <point x="211" y="758"/>
      <point x="197" y="815"/>
      <point x="197" y="901" type="curve" smooth="yes"/>
      <point x="197" y="961"/>
      <point x="219" y="1001"/>
    </contour>
  </outline>
</glyph>
<glyph name="olowringinside" format="2">
  <advance width="924"/>
  <unicode hex="2C7A"/>
  <anchor x="463" y="0" name="bottom"/>
  <anchor x="463" y="1100" name="top"/>
  <outline>
    <contour>
      <point x="838" y="551" type="curve" smooth="yes"/>
      <point x="838" y="926"/>
      <point x="700" y="1120"/>
      <point x="463" y="1120" type="curve" smooth="yes"/>
      <point x="203" y="1120"/>
      <point x="86" y="913"/>
      <point x="86" y="551" type="curve" smooth="yes"/>
      <point x="86" y="207"/>
      <point x="209" y="-20"/>
      <point x="459" y="-20" type="curve" smooth="yes"/>
      <point x="719" y="-20"/>
      <point x="838" y="209"/>
    </contour>
    <contour>
      <point x="678" y="551" type="curve" smooth="yes"/>
      <point x="678" y="264"/>
      <point x="612" y="119"/>
      <point x="461" y="119" type="curve" smooth="yes"/>
      <point x="311" y="119"/>
      <point x="246" y="266"/>
      <point x="246" y="551" type="curve" smooth="yes"/>
      <point x="246" y="838"/>
      <point x="307" y="979"/>
      <point x="461" y="979" type="curve" smooth="yes"/>
      <point x="612" y="979"/>
      <point x="678" y="836"/>
    </contour>
    <contour>
      <point x="664" y="240" type="curve" smooth="yes"/>
      <point x="664" y="358"/>
      <point x="580" y="434"/>
      <point x="459" y="434" type="curve" smooth="yes"/>
      <point x="336" y="434"/>
      <point x="258" y="356"/>
      <point x="258" y="238" type="curve" smooth="yes"/>
      <point x="258" y="121"/>
      <point x="336" y="43"/>
      <point x="459" y="43" type="curve" smooth="yes"/>
      <point x="584" y="43"/>
      <point x="664" y="121"/>
    </contour>
    <contour>
      <point x="571" y="229" type="curve" smooth="yes"/>
      <point x="571" y="166"/>
      <point x="526" y="125"/>
      <point x="463" y="125" type="curve" smooth="yes"/>
      <point x="389" y="125"/>
      <point x="352" y="166"/>
      <point x="352" y="229" type="curve" smooth="yes"/>
      <point x="352" y="293"/>
      <point x="397" y="338"/>
      <point x="463" y="338" type="curve" smooth="yes"/>
      <point x="532" y="338"/>
      <point x="571" y="293"/>
    </contour>
  </outline>
</glyph>
<glyph name="Turnede" format="2">
  <advance width="719"/>
  <unicode hex="2C7B"/>
  <anchor x="358" y="0" name="bottom"/>
  <anchor x="358" y="1100" name="top"/>
  <outline>
    <contour>
      <point x="74" y="0" type="line"/>
      <point x="586" y="0" type="line"/>
      <point x="586" y="1100" type="line"/>
      <point x="74" y="1100" type="line"/>
      <point x="74" y="963" type="line"/>
      <point x="426" y="963" type="line"/>
      <point x="426" y="645" type="line"/>
      <point x="94" y="645" type="line"/>
      <point x="94" y="506" type="line"/>
      <point x="426" y="506" type="line"/>
      <point x="426" y="137" type="line"/>
      <point x="74" y="137" type="line"/>
    </contour>
  </outline>
</glyph>
<glyph name="leftdottedsubstitutionbracket" format="2">
  <advance width="1024"/>
  <unicode hex="2E04"/>
  <outline>
    <contour>
      <point x="252" y="565" type="line"/>
      <point x="362" y="565" type="line"/>
      <point x="362" y="1147" type="line"/>
      <point x="752" y="1366" type="line"/>
      <point x="696" y="1462" type="line"/>
      <point x="252" y="1208" type="line"/>
    </contour>
    <contour>
      <point x="631" y="838" type="curve" smooth="yes"/>
      <point x="686" y="838"/>
      <point x="721" y="872"/>
      <point x="721" y="942" type="curve" smooth="yes"/>
      <point x="721" y="1014"/>
      <point x="686" y="1049"/>
      <point x="631" y="1049" type="curve" smooth="yes"/>
      <point x="575" y="1049"/>
      <point x="539" y="1014"/>
      <point x="539" y="942" type="curve" smooth="yes"/>
      <point x="539" y="872"/>
      <point x="575" y="838"/>
    </contour>
  </outline>
</glyph>
<glyph name="raiseddottedinterpolationmarker" format="2">
  <advance width="1024"/>
  <unicode hex="2E07"/>
  <outline>
    <contour>
      <point x="565" y="565" type="line"/>
      <point x="565" y="1352" type="line"/>
      <point x="950" y="1352" type="line"/>
      <point x="950" y="1462" type="line"/>
      <point x="72" y="1462" type="line"/>
      <point x="72" y="1352" type="line"/>
      <point x="457" y="1352" type="line"/>
      <point x="457" y="565" type="line"/>
    </contour>
    <contour>
      <point x="713" y="1014" type="curve" smooth="yes"/>
      <point x="713" y="944"/>
      <point x="748" y="909"/>
      <point x="803" y="909" type="curve" smooth="yes"/>
      <point x="858" y="909"/>
      <point x="895" y="944"/>
      <point x="895" y="1014" type="curve" smooth="yes"/>
      <point x="895" y="1085"/>
      <point x="858" y="1120"/>
      <point x="803" y="1120" type="curve" smooth="yes"/>
      <point x="748" y="1120"/>
      <point x="713" y="1085"/>
    </contour>
  </outline>
</glyph>
